<svg id="svg" version="1.1" xmlns="http://www.w3.org/2000/svg" xmlns:xlink="http://www.w3.org/1999/xlink" width="400" height="400" viewBox="0, 0, 400,300"><g id="svgg"><path id="path0" d="M154.900 0.273 C 152.865 0.359,151.200 0.603,151.200 0.815 C 151.200 1.027,149.940 1.200,148.400 1.200 C 146.800 1.200,145.600 1.371,145.600 1.600 C 145.600 1.820,144.610 2.000,143.400 2.000 C 142.190 2.000,141.200 2.180,141.200 2.400 C 141.200 2.620,140.491 2.800,139.624 2.800 C 138.757 2.800,137.936 2.980,137.800 3.200 C 137.664 3.420,136.753 3.600,135.776 3.600 C 134.799 3.600,134.000 3.780,134.000 4.000 C 134.000 4.220,133.280 4.400,132.400 4.400 C 131.520 4.400,130.800 4.580,130.800 4.800 C 130.800 5.020,130.181 5.200,129.424 5.200 C 128.667 5.200,127.936 5.380,127.800 5.600 C 127.664 5.820,127.113 6.000,126.576 6.000 C 126.039 6.000,125.600 6.180,125.600 6.400 C 125.600 6.620,124.880 6.800,124.000 6.800 C 123.120 6.800,122.400 6.980,122.400 7.200 C 122.400 7.420,121.860 7.600,121.200 7.600 C 120.540 7.600,120.000 7.769,120.000 7.975 C 120.000 8.182,119.188 8.473,118.195 8.622 C 117.202 8.771,116.292 9.052,116.171 9.246 C 116.051 9.441,115.691 9.600,115.372 9.600 C 114.840 9.600,111.979 10.748,110.305 11.633 C 109.923 11.835,109.338 12.000,109.005 12.000 C 108.672 12.000,108.400 12.180,108.400 12.400 C 108.400 12.620,108.040 12.800,107.600 12.800 C 107.160 12.800,106.800 12.980,106.800 13.200 C 106.800 13.420,106.440 13.600,106.000 13.600 C 105.560 13.600,105.200 13.780,105.200 14.000 C 105.200 14.220,104.840 14.400,104.400 14.400 C 103.960 14.400,103.600 14.580,103.600 14.800 C 103.600 15.020,103.240 15.200,102.800 15.200 C 102.360 15.200,102.000 15.380,102.000 15.600 C 102.000 15.820,101.640 16.000,101.200 16.000 C 100.760 16.000,100.400 16.180,100.400 16.400 C 100.400 16.620,100.040 16.800,99.600 16.800 C 99.160 16.800,98.800 16.980,98.800 17.200 C 98.800 17.420,98.564 17.600,98.275 17.600 C 97.987 17.600,97.364 17.960,96.892 18.400 C 96.420 18.840,95.756 19.200,95.417 19.200 C 95.078 19.200,94.800 19.380,94.800 19.600 C 94.800 19.820,94.530 20.000,94.200 20.000 C 93.870 20.000,93.600 20.180,93.600 20.400 C 93.600 20.620,93.330 20.800,93.000 20.800 C 92.670 20.800,92.400 20.980,92.400 21.200 C 92.400 21.420,92.130 21.600,91.800 21.600 C 91.470 21.600,91.200 21.780,91.200 22.000 C 91.200 22.220,90.880 22.400,90.488 22.400 C 90.097 22.400,89.517 22.760,89.200 23.200 C 88.883 23.640,88.479 24.000,88.302 24.000 C 87.880 24.000,84.047 26.554,82.914 27.590 C 82.427 28.035,81.885 28.400,81.710 28.400 C 81.280 28.400,78.529 30.787,74.909 34.300 C 73.266 35.895,71.752 37.200,71.544 37.200 C 70.809 37.200,59.801 48.878,58.882 50.632 C 58.545 51.274,57.759 52.277,57.135 52.860 C 56.511 53.444,56.000 54.137,56.000 54.400 C 56.000 54.663,55.460 55.383,54.800 56.000 C 54.140 56.617,53.600 57.316,53.600 57.554 C 53.600 57.792,53.151 58.484,52.603 59.093 C 50.687 61.220,49.601 62.602,49.600 62.917 C 49.600 63.091,49.240 63.620,48.800 64.092 C 48.360 64.564,48.000 65.187,48.000 65.475 C 48.000 65.764,47.820 66.000,47.600 66.000 C 47.380 66.000,47.200 66.320,47.200 66.712 C 47.200 67.103,46.840 67.683,46.400 68.000 C 45.960 68.317,45.600 68.897,45.600 69.288 C 45.600 69.680,45.455 70.000,45.279 70.000 C 45.102 70.000,44.517 70.897,43.979 71.994 C 43.440 73.090,42.865 73.990,42.700 73.994 C 42.535 73.997,42.400 74.287,42.400 74.638 C 42.400 75.344,41.173 77.723,40.700 77.933 C 40.535 78.007,40.400 78.322,40.400 78.633 C 40.400 78.945,40.220 79.200,40.000 79.200 C 39.780 79.200,39.600 79.560,39.600 80.000 C 39.600 80.440,39.420 80.800,39.200 80.800 C 38.980 80.800,38.800 81.160,38.800 81.600 C 38.800 82.040,38.620 82.400,38.400 82.400 C 38.180 82.400,38.000 82.760,38.000 83.200 C 38.000 83.640,37.820 84.000,37.600 84.000 C 37.380 84.000,37.200 84.360,37.200 84.800 C 37.200 85.240,37.020 85.600,36.800 85.600 C 36.580 85.600,36.400 86.039,36.400 86.576 C 36.400 87.113,36.220 87.664,36.000 87.800 C 35.780 87.936,35.600 88.397,35.600 88.824 C 35.600 89.251,35.420 89.600,35.200 89.600 C 34.980 89.600,34.800 89.960,34.800 90.400 C 34.800 90.840,34.620 91.200,34.400 91.200 C 34.180 91.200,34.000 91.560,34.000 92.000 C 34.000 92.440,33.820 92.800,33.600 92.800 C 33.380 92.800,33.200 93.250,33.200 93.800 C 33.200 94.350,33.020 94.800,32.800 94.800 C 32.580 94.800,32.400 95.149,32.400 95.576 C 32.400 96.003,32.220 96.464,32.000 96.600 C 31.780 96.736,31.600 97.287,31.600 97.824 C 31.600 98.361,31.453 98.800,31.272 98.800 C 31.092 98.800,30.696 99.711,30.393 100.825 C 30.090 101.939,29.697 102.940,29.521 103.049 C 29.344 103.158,29.200 103.687,29.200 104.224 C 29.200 104.761,29.020 105.200,28.800 105.200 C 28.580 105.200,28.400 105.740,28.400 106.400 C 28.400 107.060,28.220 107.600,28.000 107.600 C 27.780 107.600,27.600 108.140,27.600 108.800 C 27.600 109.460,27.420 110.000,27.200 110.000 C 26.980 110.000,26.800 110.529,26.800 111.176 C 26.800 111.823,26.620 112.464,26.400 112.600 C 26.180 112.736,25.997 113.242,25.994 113.724 C 25.991 114.206,25.729 115.320,25.412 116.200 C 25.095 117.080,24.827 118.475,24.818 119.300 C 24.808 120.125,24.620 120.800,24.400 120.800 C 24.180 120.800,24.000 121.520,24.000 122.400 C 24.000 123.280,23.820 124.000,23.600 124.000 C 23.380 124.000,23.200 124.709,23.200 125.576 C 23.200 126.443,23.020 127.264,22.800 127.400 C 22.580 127.536,22.400 128.177,22.400 128.824 C 22.400 129.864,22.261 130.000,21.200 130.000 C 20.540 130.000,20.000 130.180,20.000 130.400 C 20.000 130.620,19.471 130.800,18.824 130.800 C 18.177 130.800,17.536 130.980,17.400 131.200 C 17.264 131.420,16.713 131.600,16.176 131.600 C 15.639 131.600,15.200 131.780,15.200 132.000 C 15.200 132.220,14.840 132.400,14.400 132.400 C 13.960 132.400,13.600 132.580,13.600 132.800 C 13.600 133.020,13.364 133.200,13.075 133.200 C 12.787 133.200,12.164 133.560,11.692 134.000 C 11.220 134.440,10.719 134.800,10.578 134.800 C 10.044 134.800,4.400 140.829,4.400 141.400 C 4.400 141.730,4.220 142.000,4.000 142.000 C 3.780 142.000,3.600 142.270,3.600 142.600 C 3.600 142.930,3.420 143.200,3.200 143.200 C 2.980 143.200,2.800 143.470,2.800 143.800 C 2.800 144.130,2.620 144.400,2.400 144.400 C 2.180 144.400,2.000 144.749,2.000 145.176 C 2.000 145.603,1.820 146.064,1.600 146.200 C 1.380 146.336,1.200 146.782,1.200 147.190 C 1.200 147.599,0.975 148.008,0.700 148.100 C 0.318 148.227,0.200 150.551,0.200 157.913 C 0.200 165.097,0.328 167.687,0.700 168.060 C 0.975 168.335,1.200 168.884,1.200 169.280 C 1.200 169.676,1.380 170.000,1.600 170.000 C 1.820 170.000,2.000 170.360,2.000 170.800 C 2.000 171.240,2.180 171.600,2.400 171.600 C 2.620 171.600,2.800 171.960,2.800 172.400 C 2.800 172.840,2.980 173.200,3.200 173.200 C 3.420 173.200,3.600 173.377,3.600 173.593 C 3.600 174.404,10.658 181.600,11.453 181.600 C 11.754 181.600,12.000 181.780,12.000 182.000 C 12.000 182.220,12.360 182.400,12.800 182.400 C 13.240 182.400,13.601 182.535,13.603 182.700 C 13.607 183.059,15.544 184.000,16.280 184.000 C 16.566 184.000,16.800 184.180,16.800 184.400 C 16.800 184.620,17.149 184.800,17.576 184.800 C 18.003 184.800,18.464 184.980,18.600 185.200 C 18.736 185.420,19.287 185.600,19.824 185.600 C 20.642 185.600,20.800 185.794,20.800 186.800 C 20.800 187.460,20.620 188.000,20.400 188.000 C 20.180 188.000,20.000 188.979,20.000 190.176 C 20.000 191.373,19.820 192.464,19.600 192.600 C 19.380 192.736,19.200 193.456,19.200 194.200 C 19.200 194.944,19.020 195.664,18.800 195.800 C 18.580 195.936,18.400 196.667,18.400 197.424 C 18.400 198.181,18.220 198.800,18.000 198.800 C 17.780 198.800,17.600 199.340,17.600 200.000 C 17.600 200.660,17.420 201.200,17.200 201.200 C 16.980 201.200,16.800 201.740,16.800 202.400 C 16.800 203.060,16.653 203.600,16.472 203.600 C 16.292 203.600,15.900 204.500,15.600 205.600 C 15.300 206.700,14.908 207.600,14.728 207.600 C 14.547 207.600,14.400 207.960,14.400 208.400 C 14.400 208.840,14.220 209.200,14.000 209.200 C 13.780 209.200,13.600 209.545,13.600 209.967 C 13.600 210.388,13.464 210.793,13.298 210.867 C 13.132 210.940,12.368 212.260,11.600 213.800 C 10.832 215.340,10.068 216.660,9.902 216.733 C 9.736 216.807,9.600 217.212,9.600 217.633 C 9.600 218.055,9.423 218.400,9.208 218.400 C 8.992 218.400,8.693 218.895,8.544 219.500 C 8.394 220.105,7.941 220.891,7.536 221.247 C 7.131 221.603,6.800 222.188,6.800 222.547 C 6.800 222.906,6.620 223.200,6.400 223.200 C 6.180 223.200,6.000 223.650,6.000 224.200 C 6.000 224.750,5.820 225.200,5.600 225.200 C 5.380 225.200,5.200 225.740,5.200 226.400 C 5.200 227.060,5.020 227.600,4.800 227.600 C 4.556 227.600,4.400 229.467,4.400 232.400 C 4.400 235.333,4.556 237.200,4.800 237.200 C 5.020 237.200,5.200 237.830,5.200 238.600 C 5.200 239.370,5.380 240.000,5.600 240.000 C 5.820 240.000,6.000 240.360,6.000 240.800 C 6.000 241.240,6.180 241.600,6.400 241.600 C 6.620 241.600,6.800 241.878,6.800 242.218 C 6.800 242.558,7.250 243.286,7.800 243.836 C 8.350 244.386,8.800 244.981,8.800 245.157 C 8.800 245.560,10.205 247.200,10.551 247.200 C 10.692 247.200,11.372 247.740,12.063 248.400 C 12.754 249.060,13.562 249.600,13.859 249.600 C 14.157 249.600,14.400 249.780,14.400 250.000 C 14.400 250.220,14.760 250.400,15.200 250.400 C 15.640 250.400,16.000 250.580,16.000 250.800 C 16.000 251.020,16.360 251.200,16.800 251.200 C 17.240 251.200,17.600 251.380,17.600 251.600 C 17.600 251.820,17.949 252.000,18.376 252.000 C 18.803 252.000,19.264 252.180,19.400 252.400 C 19.536 252.620,20.087 252.800,20.624 252.800 C 21.161 252.800,21.600 252.980,21.600 253.200 C 21.600 253.420,21.949 253.600,22.376 253.600 C 22.803 253.600,23.264 253.780,23.400 254.000 C 23.536 254.220,24.076 254.400,24.600 254.400 C 25.124 254.400,25.664 254.580,25.800 254.800 C 25.936 255.020,26.566 255.200,27.200 255.200 C 27.834 255.200,28.464 255.380,28.600 255.600 C 28.736 255.820,29.611 256.000,30.544 256.000 C 31.477 256.000,32.411 256.165,32.620 256.368 C 33.846 257.553,53.754 257.553,54.980 256.368 C 55.189 256.165,56.134 256.000,57.080 256.000 C 58.026 256.000,58.800 255.820,58.800 255.600 C 58.800 255.380,59.340 255.200,60.000 255.200 C 60.660 255.200,61.200 255.020,61.200 254.800 C 61.200 254.580,61.729 254.400,62.376 254.400 C 63.023 254.400,63.664 254.220,63.800 254.000 C 63.936 253.780,64.487 253.600,65.024 253.600 C 65.561 253.600,66.000 253.420,66.000 253.200 C 66.000 252.980,66.281 252.800,66.625 252.800 C 67.387 252.800,72.547 250.367,72.733 249.920 C 72.807 249.744,73.122 249.600,73.433 249.600 C 73.745 249.600,74.000 249.420,74.000 249.200 C 74.000 248.980,74.270 248.800,74.600 248.800 C 74.930 248.800,75.200 248.620,75.200 248.400 C 75.200 248.180,75.520 248.000,75.912 248.000 C 76.303 248.000,76.883 247.640,77.200 247.200 C 77.517 246.760,78.021 246.400,78.320 246.400 C 78.618 246.400,79.554 245.680,80.400 244.800 C 81.246 243.920,82.127 243.200,82.358 243.200 C 83.060 243.200,86.048 240.354,93.900 232.207 C 95.275 230.781,96.400 229.449,96.400 229.247 C 96.400 229.046,97.300 227.962,98.400 226.839 C 99.500 225.715,100.400 224.699,100.400 224.580 C 100.400 224.461,100.805 223.944,101.300 223.432 C 102.774 221.907,103.600 220.816,103.600 220.395 C 103.600 220.178,103.738 220.000,103.906 220.000 C 104.074 220.000,104.656 219.280,105.200 218.400 C 105.744 217.520,106.314 216.800,106.467 216.800 C 106.621 216.800,106.854 216.461,106.985 216.048 C 107.116 215.634,107.578 214.886,108.012 214.386 C 108.445 213.887,108.800 213.185,108.800 212.827 C 108.800 212.469,109.160 211.917,109.600 211.600 C 110.040 211.283,110.400 210.703,110.400 210.312 C 110.400 209.920,110.580 209.600,110.800 209.600 C 111.020 209.600,111.200 209.330,111.200 209.000 C 111.200 208.670,111.380 208.400,111.600 208.400 C 111.820 208.400,112.000 208.130,112.000 207.800 C 112.000 207.470,112.180 207.200,112.400 207.200 C 112.620 207.200,112.800 206.930,112.800 206.600 C 112.800 206.270,112.980 206.000,113.200 206.000 C 113.420 206.000,113.600 205.640,113.600 205.200 C 113.600 204.760,113.780 204.400,114.000 204.400 C 114.220 204.400,114.400 204.175,114.400 203.900 C 114.401 203.625,114.827 202.905,115.347 202.300 L 116.293 201.200 126.947 201.200 C 133.782 201.200,137.600 201.057,137.600 200.800 C 137.600 200.556,139.467 200.400,142.400 200.400 C 145.333 200.400,147.200 200.244,147.200 200.000 C 147.200 199.767,148.533 199.600,150.400 199.600 C 153.488 199.600,154.581 200.147,153.200 201.000 C 152.980 201.136,152.800 201.766,152.800 202.400 C 152.800 203.034,152.620 203.664,152.400 203.800 C 152.180 203.936,152.000 204.667,152.000 205.424 C 152.000 206.181,151.820 206.800,151.600 206.800 C 151.380 206.800,151.200 207.239,151.200 207.776 C 151.200 208.313,151.020 208.864,150.800 209.000 C 150.580 209.136,150.400 209.687,150.400 210.224 C 150.400 210.761,150.220 211.200,150.000 211.200 C 149.780 211.200,149.600 211.560,149.600 212.000 C 149.600 212.440,149.420 212.800,149.200 212.800 C 148.980 212.800,148.800 213.239,148.800 213.776 C 148.800 214.313,148.620 214.864,148.400 215.000 C 148.180 215.136,148.000 215.597,148.000 216.024 C 148.000 216.451,147.820 216.800,147.600 216.800 C 147.380 216.800,147.200 217.160,147.200 217.600 C 147.200 218.040,147.020 218.400,146.800 218.400 C 146.580 218.400,146.400 218.760,146.400 219.200 C 146.400 219.640,146.220 220.000,146.000 220.000 C 145.780 220.000,145.600 220.360,145.600 220.800 C 145.600 221.240,145.420 221.600,145.200 221.600 C 144.980 221.600,144.800 221.960,144.800 222.400 C 144.800 222.840,144.620 223.200,144.400 223.200 C 144.180 223.200,144.000 223.560,144.000 224.000 C 144.000 224.440,143.865 224.801,143.700 224.803 C 143.355 224.805,142.000 227.074,142.000 227.649 C 142.000 227.861,141.640 228.420,141.200 228.892 C 140.760 229.364,140.400 229.987,140.400 230.275 C 140.400 230.564,140.220 230.800,140.000 230.800 C 139.780 230.800,139.600 231.160,139.600 231.600 C 139.600 232.040,139.420 232.400,139.200 232.400 C 138.980 232.400,138.800 232.760,138.800 233.200 C 138.800 233.640,138.620 234.000,138.400 234.000 C 138.180 234.000,138.000 234.540,138.000 235.200 C 138.000 235.860,137.820 236.400,137.600 236.400 C 137.352 236.400,137.200 238.600,137.200 242.200 C 137.200 245.800,137.352 248.000,137.600 248.000 C 137.820 248.000,138.000 248.540,138.000 249.200 C 138.000 249.860,138.180 250.400,138.400 250.400 C 138.620 250.400,138.800 250.760,138.800 251.200 C 138.800 251.640,138.980 252.000,139.200 252.000 C 139.420 252.000,139.600 252.320,139.600 252.712 C 139.600 253.103,139.960 253.683,140.400 254.000 C 140.840 254.317,141.200 254.786,141.200 255.041 C 141.200 255.646,144.354 258.800,144.959 258.800 C 145.214 258.800,145.683 259.160,146.000 259.600 C 146.317 260.040,146.897 260.400,147.288 260.400 C 147.680 260.400,148.000 260.580,148.000 260.800 C 148.000 261.020,148.360 261.200,148.800 261.200 C 149.240 261.200,149.600 261.380,149.600 261.600 C 149.600 261.820,149.960 262.000,150.400 262.000 C 150.840 262.000,151.200 262.180,151.200 262.400 C 151.200 262.620,151.560 262.800,152.000 262.800 C 152.440 262.800,152.800 262.980,152.800 263.200 C 152.800 263.420,153.340 263.600,154.000 263.600 C 154.660 263.600,155.200 263.780,155.200 264.000 C 155.200 264.220,155.560 264.400,156.000 264.400 C 156.440 264.400,156.800 264.580,156.800 264.800 C 156.800 265.020,157.340 265.200,158.000 265.200 C 158.660 265.200,159.200 265.380,159.200 265.600 C 159.200 265.820,159.740 266.000,160.400 266.000 C 161.060 266.000,161.600 266.180,161.600 266.400 C 161.600 266.620,162.219 266.800,162.976 266.800 C 163.733 266.800,164.464 266.980,164.600 267.200 C 164.736 267.420,165.827 267.600,167.024 267.600 C 168.221 267.600,169.200 267.780,169.200 268.000 C 169.200 268.243,170.992 268.400,173.776 268.400 C 176.396 268.400,178.458 268.571,178.600 268.800 C 178.736 269.020,179.287 269.200,179.824 269.200 C 180.361 269.200,180.800 269.020,180.800 268.800 C 180.800 268.557,182.600 268.400,185.400 268.400 C 188.200 268.400,190.000 268.243,190.000 268.000 C 190.000 267.780,190.900 267.600,192.000 267.600 C 193.100 267.600,194.000 267.420,194.000 267.200 C 194.000 266.980,194.720 266.800,195.600 266.800 C 196.480 266.800,197.200 266.620,197.200 266.400 C 197.200 266.180,197.819 266.000,198.576 266.000 C 199.333 266.000,200.064 265.820,200.200 265.600 C 200.336 265.380,200.887 265.200,201.424 265.200 C 201.961 265.200,202.400 265.020,202.400 264.800 C 202.400 264.580,202.850 264.400,203.400 264.400 C 203.950 264.400,204.400 264.220,204.400 264.000 C 204.400 263.780,204.760 263.600,205.200 263.600 C 205.640 263.600,206.000 263.420,206.000 263.200 C 206.000 262.980,206.450 262.800,207.000 262.800 C 207.550 262.800,208.000 262.620,208.000 262.400 C 208.000 262.180,208.360 262.000,208.800 262.000 C 209.240 262.000,209.600 261.820,209.600 261.600 C 209.600 261.380,209.920 261.200,210.312 261.200 C 210.703 261.200,211.283 260.840,211.600 260.400 C 211.917 259.960,212.497 259.600,212.888 259.600 C 213.280 259.600,213.600 259.420,213.600 259.200 C 213.600 258.980,213.932 258.800,214.339 258.800 C 214.745 258.800,215.493 258.440,216.000 258.000 C 216.507 257.560,217.032 257.200,217.165 257.200 C 217.299 257.200,217.856 256.790,218.404 256.289 C 218.952 255.787,220.030 254.938,220.800 254.402 C 222.365 253.311,225.200 250.497,225.200 250.035 C 225.200 249.870,225.695 249.481,226.300 249.170 C 226.905 248.859,228.660 247.274,230.200 245.648 C 231.740 244.022,234.014 241.651,235.254 240.379 C 236.494 239.108,238.024 237.381,238.654 236.541 C 239.931 234.841,241.146 233.357,241.900 232.575 C 242.175 232.290,242.400 231.847,242.400 231.589 C 242.400 231.332,242.940 230.617,243.600 230.000 C 244.260 229.383,244.800 228.663,244.800 228.400 C 244.800 228.137,245.340 227.417,246.000 226.800 C 246.660 226.183,247.200 225.481,247.200 225.240 C 247.200 224.998,247.380 224.800,247.600 224.800 C 247.820 224.800,248.000 224.530,248.000 224.200 C 248.000 223.870,248.180 223.600,248.400 223.600 C 248.620 223.600,248.800 223.330,248.800 223.000 C 248.800 222.670,248.950 222.400,249.132 222.400 C 249.315 222.400,249.720 221.905,250.032 221.300 C 250.345 220.695,250.915 219.851,251.300 219.425 C 251.685 218.998,252.000 218.496,252.000 218.308 C 252.000 218.120,252.360 217.580,252.800 217.108 C 253.240 216.636,253.600 216.013,253.600 215.725 C 253.600 215.436,253.780 215.200,254.000 215.200 C 254.220 215.200,254.400 214.840,254.400 214.400 C 254.400 213.519,258.086 213.168,258.600 214.000 C 258.736 214.220,259.917 214.400,261.224 214.400 C 262.541 214.400,263.600 214.578,263.600 214.800 C 263.600 215.033,264.933 215.200,266.800 215.200 C 268.667 215.200,270.000 215.367,270.000 215.600 C 270.000 215.840,271.610 216.000,274.029 216.000 C 278.285 216.000,278.532 216.094,279.568 218.100 C 279.880 218.705,280.285 219.200,280.468 219.200 C 280.650 219.200,280.800 219.436,280.800 219.725 C 280.800 220.013,281.160 220.636,281.600 221.108 C 282.040 221.580,282.400 222.154,282.400 222.383 C 282.400 222.612,282.550 222.800,282.732 222.800 C 282.915 222.800,283.320 223.295,283.632 223.900 C 283.945 224.505,284.695 225.477,285.300 226.060 C 285.905 226.644,286.400 227.337,286.400 227.600 C 286.400 227.863,286.940 228.583,287.600 229.200 C 288.260 229.817,288.800 230.519,288.800 230.760 C 288.800 231.002,289.520 231.941,290.400 232.848 C 291.280 233.755,292.000 234.668,292.000 234.877 C 292.000 235.086,292.225 235.495,292.500 235.787 C 292.775 236.078,293.900 237.345,295.000 238.604 C 298.811 242.963,310.010 253.820,312.414 255.488 C 312.956 255.864,313.749 256.493,314.175 256.886 C 314.602 257.279,315.187 257.600,315.475 257.600 C 315.764 257.600,316.000 257.777,316.000 257.992 C 316.000 258.208,316.495 258.507,317.100 258.656 C 317.705 258.806,318.491 259.259,318.847 259.664 C 319.203 260.069,319.788 260.400,320.147 260.400 C 320.506 260.400,320.800 260.580,320.800 260.800 C 320.800 261.020,321.160 261.200,321.600 261.200 C 322.040 261.200,322.400 261.380,322.400 261.600 C 322.400 261.820,322.760 262.000,323.200 262.000 C 323.640 262.000,324.000 262.180,324.000 262.400 C 324.000 262.620,324.360 262.800,324.800 262.800 C 325.240 262.800,325.600 262.980,325.600 263.200 C 325.600 263.420,326.050 263.600,326.600 263.600 C 327.150 263.600,327.600 263.780,327.600 264.000 C 327.600 264.220,327.960 264.400,328.400 264.400 C 328.840 264.400,329.200 264.580,329.200 264.800 C 329.200 265.020,329.740 265.200,330.400 265.200 C 331.060 265.200,331.600 265.380,331.600 265.600 C 331.600 265.820,332.129 266.000,332.776 266.000 C 333.423 266.000,334.064 266.180,334.200 266.400 C 334.336 266.620,335.056 266.800,335.800 266.800 C 336.544 266.800,337.264 266.980,337.400 267.200 C 337.536 267.420,338.627 267.600,339.824 267.600 C 341.021 267.600,342.000 267.780,342.000 268.000 C 342.000 268.243,343.800 268.400,346.600 268.400 C 349.400 268.400,351.200 268.557,351.200 268.800 C 351.200 269.321,353.078 269.321,353.400 268.800 C 353.542 268.571,355.604 268.400,358.224 268.400 C 361.008 268.400,362.800 268.243,362.800 268.000 C 362.800 267.780,363.700 267.600,364.800 267.600 C 365.900 267.600,366.800 267.420,366.800 267.200 C 366.800 266.980,367.520 266.800,368.400 266.800 C 369.280 266.800,370.000 266.620,370.000 266.400 C 370.000 266.180,370.540 266.000,371.200 266.000 C 371.860 266.000,372.400 265.820,372.400 265.600 C 372.400 265.380,372.929 265.200,373.576 265.200 C 374.223 265.200,374.864 265.020,375.000 264.800 C 375.136 264.580,375.597 264.400,376.024 264.400 C 376.451 264.400,376.800 264.220,376.800 264.000 C 376.800 263.780,377.072 263.600,377.405 263.600 C 377.738 263.600,378.368 263.420,378.805 263.200 C 379.242 262.980,379.958 262.620,380.395 262.400 C 380.832 262.180,381.462 262.000,381.795 262.000 C 382.128 262.000,382.400 261.841,382.400 261.647 C 382.400 261.452,382.715 261.193,383.100 261.071 C 383.744 260.867,385.313 259.978,386.756 259.000 C 388.287 257.962,391.600 254.244,391.600 253.564 C 391.600 253.144,391.735 252.799,391.900 252.797 C 392.259 252.793,393.200 250.856,393.200 250.120 C 393.200 249.834,393.380 249.600,393.600 249.600 C 393.820 249.600,394.000 248.981,394.000 248.224 C 394.000 247.467,394.180 246.736,394.400 246.600 C 394.927 246.274,394.927 237.726,394.400 237.400 C 394.180 237.264,394.000 236.623,394.000 235.976 C 394.000 235.329,393.820 234.800,393.600 234.800 C 393.380 234.800,393.200 234.438,393.200 233.995 C 393.200 233.277,392.540 231.740,392.000 231.200 C 391.890 231.090,391.480 230.370,391.088 229.600 C 390.071 227.600,388.634 225.034,388.400 224.800 C 388.004 224.404,386.746 222.185,386.529 221.500 C 386.407 221.115,386.148 220.800,385.953 220.800 C 385.759 220.800,385.600 220.528,385.600 220.195 C 385.600 219.862,385.443 219.277,385.250 218.895 C 383.752 215.920,383.200 214.647,383.200 214.162 C 383.200 213.853,383.020 213.600,382.800 213.600 C 382.580 213.600,382.400 213.161,382.400 212.624 C 382.400 212.087,382.220 211.536,382.000 211.400 C 381.780 211.264,381.600 210.803,381.600 210.376 C 381.600 209.949,381.420 209.600,381.200 209.600 C 380.980 209.600,380.800 209.150,380.800 208.600 C 380.800 208.050,380.620 207.600,380.400 207.600 C 380.180 207.600,380.000 207.071,380.000 206.424 C 380.000 205.777,379.820 205.136,379.600 205.000 C 379.380 204.864,379.200 204.133,379.200 203.376 C 379.200 202.619,379.020 202.000,378.800 202.000 C 378.580 202.000,378.400 201.190,378.400 200.200 C 378.400 199.210,378.220 198.400,378.000 198.400 C 377.780 198.400,377.600 197.410,377.600 196.200 C 377.600 194.990,377.420 194.000,377.200 194.000 C 376.955 194.000,376.800 192.121,376.800 189.162 C 376.800 183.619,376.846 183.511,380.890 179.522 C 382.161 178.269,383.200 177.037,383.200 176.783 C 383.200 176.529,383.740 175.817,384.400 175.200 C 385.060 174.583,385.600 173.881,385.600 173.640 C 385.600 173.398,385.750 173.200,385.932 173.200 C 386.115 173.200,386.520 172.705,386.832 172.100 C 387.145 171.495,387.715 170.651,388.100 170.225 C 388.485 169.798,388.800 169.228,388.800 168.958 C 388.800 168.688,388.935 168.407,389.100 168.333 C 389.574 168.123,391.600 164.162,391.600 163.446 C 391.600 163.091,391.780 162.800,392.000 162.800 C 392.220 162.800,392.400 162.440,392.400 162.000 C 392.400 161.560,392.580 161.200,392.800 161.200 C 393.020 161.200,393.200 160.840,393.200 160.400 C 393.200 159.960,393.380 159.600,393.600 159.600 C 393.820 159.600,394.000 159.150,394.000 158.600 C 394.000 158.050,394.180 157.600,394.400 157.600 C 394.620 157.600,394.800 157.251,394.800 156.824 C 394.800 156.397,394.980 155.936,395.200 155.800 C 395.420 155.664,395.600 155.113,395.600 154.576 C 395.600 154.039,395.780 153.600,396.000 153.600 C 396.220 153.600,396.400 153.060,396.400 152.400 C 396.400 151.740,396.580 151.200,396.800 151.200 C 397.020 151.200,397.200 150.581,397.200 149.824 C 397.200 149.067,397.380 148.336,397.600 148.200 C 397.820 148.064,398.000 147.434,398.000 146.800 C 398.000 146.166,398.180 145.536,398.400 145.400 C 398.620 145.264,398.800 144.368,398.800 143.410 C 398.800 142.371,399.002 141.599,399.300 141.500 C 399.690 141.370,399.800 137.551,399.800 124.200 C 399.800 110.849,399.690 107.030,399.300 106.900 C 398.990 106.797,398.800 105.984,398.800 104.767 C 398.800 103.685,398.620 102.800,398.400 102.800 C 398.180 102.800,398.000 102.080,398.000 101.200 C 398.000 100.320,397.820 99.600,397.600 99.600 C 397.380 99.600,397.200 98.880,397.200 98.000 C 397.200 97.120,397.020 96.400,396.800 96.400 C 396.580 96.400,396.400 95.860,396.400 95.200 C 396.400 94.540,396.220 94.000,396.000 94.000 C 395.780 94.000,395.600 93.550,395.600 93.000 C 395.600 92.450,395.420 92.000,395.200 92.000 C 394.980 92.000,394.800 91.460,394.800 90.800 C 394.800 90.140,394.620 89.600,394.400 89.600 C 394.180 89.600,394.000 89.161,394.000 88.624 C 394.000 88.087,393.820 87.536,393.600 87.400 C 393.380 87.264,393.200 86.803,393.200 86.376 C 393.200 85.949,393.020 85.600,392.800 85.600 C 392.580 85.600,392.400 85.240,392.400 84.800 C 392.400 84.360,392.220 84.000,392.000 84.000 C 391.780 84.000,391.600 83.696,391.600 83.324 C 391.600 82.555,388.079 75.263,387.339 74.498 C 387.071 74.221,386.738 73.636,386.599 73.198 C 386.460 72.759,386.178 72.400,385.973 72.400 C 385.768 72.400,385.600 72.080,385.600 71.688 C 385.600 71.297,385.240 70.717,384.800 70.400 C 384.360 70.083,384.000 69.543,384.000 69.200 C 384.000 68.857,383.640 68.317,383.200 68.000 C 382.760 67.683,382.400 67.175,382.400 66.872 C 382.400 66.569,381.860 65.817,381.200 65.200 C 380.540 64.583,380.000 63.910,380.000 63.703 C 380.000 63.496,379.235 62.512,378.300 61.515 C 377.365 60.518,376.060 59.014,375.400 58.173 C 373.315 55.517,368.060 50.400,367.417 50.400 C 367.078 50.400,366.800 50.220,366.800 50.000 C 366.800 49.769,365.524 49.600,363.771 49.600 C 360.716 49.600,359.600 50.051,359.600 51.287 C 359.600 51.586,359.240 52.537,358.800 53.400 C 357.210 56.519,357.745 57.829,362.727 63.006 C 386.978 88.211,395.129 124.231,382.999 152.600 C 375.775 169.498,362.820 182.689,344.799 191.498 C 336.260 195.673,328.418 198.468,319.900 200.375 C 312.574 202.014,311.116 202.250,300.000 203.591 C 295.586 204.123,278.660 204.119,273.677 203.584 C 267.253 202.894,256.516 201.167,253.800 200.387 C 253.140 200.197,250.800 199.561,248.600 198.973 C 238.362 196.238,225.359 190.404,218.460 185.452 C 217.501 184.763,216.311 183.930,215.816 183.600 C 212.109 181.129,206.447 175.908,202.800 171.599 C 201.590 170.170,200.495 168.910,200.366 168.800 C 197.028 165.943,189.932 151.362,188.054 143.500 C 186.098 135.310,185.836 133.070,185.824 124.400 C 185.781 94.143,200.692 67.370,227.348 49.843 C 235.932 44.198,246.670 39.201,255.400 36.787 C 277.060 30.798,293.521 30.488,314.800 35.669 C 323.185 37.711,332.012 41.255,340.860 46.133 C 344.623 48.208,346.703 47.985,349.705 45.188 C 350.170 44.754,350.697 44.400,350.875 44.400 C 351.054 44.400,351.200 43.140,351.200 41.600 C 351.200 40.000,351.029 38.800,350.800 38.800 C 350.580 38.800,350.400 38.517,350.400 38.171 C 350.400 37.422,349.791 36.802,348.300 36.032 C 347.695 35.720,347.200 35.315,347.200 35.132 C 347.200 34.950,346.840 34.800,346.400 34.800 C 345.960 34.800,345.600 34.620,345.600 34.400 C 345.600 34.180,345.240 34.000,344.800 34.000 C 344.360 34.000,344.000 33.820,344.000 33.600 C 344.000 33.380,343.655 33.200,343.233 33.200 C 342.812 33.200,342.407 33.063,342.333 32.896 C 342.122 32.414,335.475 29.193,334.700 29.197 C 334.315 29.199,334.000 29.020,334.000 28.800 C 334.000 28.580,333.651 28.400,333.224 28.400 C 332.797 28.400,332.336 28.220,332.200 28.000 C 332.064 27.780,331.513 27.600,330.976 27.600 C 330.439 27.600,330.000 27.420,330.000 27.200 C 330.000 26.980,329.460 26.800,328.800 26.800 C 328.140 26.800,327.600 26.640,327.600 26.445 C 327.600 26.250,327.105 25.985,326.500 25.855 C 325.895 25.726,324.365 25.397,323.100 25.124 C 321.835 24.851,320.800 24.487,320.800 24.314 C 320.800 24.141,320.080 24.000,319.200 24.000 C 318.320 24.000,317.600 23.820,317.600 23.600 C 317.600 23.380,316.880 23.200,316.000 23.200 C 315.120 23.200,314.400 23.020,314.400 22.800 C 314.400 22.580,313.500 22.400,312.400 22.400 C 311.300 22.400,310.400 22.220,310.400 22.000 C 310.400 21.780,309.410 21.600,308.200 21.600 C 306.990 21.600,306.000 21.420,306.000 21.200 C 306.000 20.967,304.667 20.800,302.800 20.800 C 300.933 20.800,299.600 20.633,299.600 20.400 C 299.600 20.142,295.200 20.000,287.200 20.000 C 279.200 20.000,274.800 20.142,274.800 20.400 C 274.800 20.633,273.467 20.800,271.600 20.800 C 269.733 20.800,268.400 20.967,268.400 21.200 C 268.400 21.422,267.344 21.600,266.033 21.600 C 264.732 21.600,263.607 21.770,263.533 21.978 C 263.330 22.554,259.081 22.643,258.892 22.075 C 258.805 21.814,258.478 21.600,258.167 21.600 C 257.855 21.600,257.600 21.420,257.600 21.200 C 257.600 20.980,257.330 20.800,257.000 20.800 C 256.670 20.800,256.400 20.620,256.400 20.400 C 256.400 20.180,256.130 20.000,255.800 20.000 C 255.470 20.000,255.200 19.820,255.200 19.600 C 255.200 19.380,254.855 19.200,254.433 19.200 C 254.012 19.200,253.607 19.065,253.533 18.900 C 253.366 18.524,251.236 17.225,250.300 16.929 C 249.915 16.807,249.600 16.548,249.600 16.353 C 249.600 16.159,249.240 16.000,248.800 16.000 C 248.360 16.000,248.000 15.820,248.000 15.600 C 248.000 15.380,247.640 15.200,247.200 15.200 C 246.760 15.200,246.400 15.020,246.400 14.800 C 246.400 14.580,246.128 14.400,245.795 14.400 C 245.462 14.400,244.877 14.239,244.495 14.042 C 243.297 13.425,238.238 11.116,237.400 10.805 C 236.960 10.641,236.150 10.320,235.600 10.091 C 232.887 8.961,231.092 8.400,230.192 8.400 C 229.646 8.400,229.200 8.220,229.200 8.000 C 229.200 7.780,228.660 7.600,228.000 7.600 C 227.340 7.600,226.800 7.420,226.800 7.200 C 226.800 6.980,226.260 6.800,225.600 6.800 C 224.940 6.800,224.400 6.620,224.400 6.400 C 224.400 6.180,223.770 6.000,223.000 6.000 C 222.230 6.000,221.600 5.820,221.600 5.600 C 221.600 5.380,220.970 5.200,220.200 5.200 C 219.430 5.200,218.800 5.020,218.800 4.800 C 218.800 4.580,218.170 4.400,217.400 4.400 C 216.630 4.400,216.000 4.220,216.000 4.000 C 216.000 3.780,215.100 3.600,214.000 3.600 C 212.900 3.600,212.000 3.420,212.000 3.200 C 212.000 2.980,211.190 2.800,210.200 2.800 C 209.210 2.800,208.400 2.620,208.400 2.400 C 208.400 2.180,207.410 2.000,206.200 2.000 C 204.990 2.000,204.000 1.820,204.000 1.600 C 204.000 1.375,202.878 1.200,201.433 1.200 C 199.794 1.200,198.809 1.027,198.707 0.721 C 198.548 0.243,163.940 -0.110,154.900 0.273 M185.541 12.005 C 194.919 12.654,203.461 13.880,210.800 15.630 C 211.570 15.814,212.740 16.078,213.400 16.218 C 222.292 18.096,243.600 26.484,243.600 28.107 C 243.600 28.380,242.475 29.030,241.100 29.551 C 237.733 30.827,230.781 34.201,227.659 36.075 C 226.262 36.914,225.040 37.600,224.944 37.600 C 224.597 37.600,217.324 42.598,214.074 45.070 L 210.748 47.600 191.236 47.600 C 173.147 47.600,171.680 47.549,171.127 46.900 C 170.799 46.515,169.759 44.850,168.815 43.200 C 167.871 41.550,166.786 39.660,166.402 39.000 C 159.333 26.834,152.000 13.938,152.000 13.672 C 152.000 12.283,173.852 11.197,185.541 12.005 M141.897 19.600 C 143.108 21.690,146.169 27.000,148.699 31.400 C 151.229 35.800,153.614 39.940,154.000 40.600 C 157.273 46.206,160.876 52.533,161.042 52.964 C 161.153 53.254,160.669 54.460,159.966 55.645 C 159.263 56.830,158.353 58.385,157.944 59.100 C 156.547 61.540,155.702 63.004,151.189 70.800 C 144.766 81.894,142.369 86.055,141.745 87.200 C 141.445 87.750,140.431 89.460,139.492 91.000 L 137.786 93.800 114.221 93.800 L 90.656 93.800 89.473 91.800 C 87.948 89.223,87.736 88.857,82.400 79.600 C 79.927 75.310,77.589 71.260,77.204 70.600 C 76.820 69.940,74.968 66.705,73.090 63.410 L 69.675 57.420 70.889 56.010 C 80.977 44.297,94.479 33.699,108.557 26.441 C 115.349 22.940,127.891 18.191,134.000 16.807 C 135.210 16.533,136.560 16.157,137.000 15.972 C 138.943 15.156,139.605 15.647,141.897 19.600 M198.265 59.426 C 198.412 59.809,198.043 60.549,197.316 61.326 C 183.411 76.215,174.380 100.737,174.308 123.800 C 174.291 129.128,174.477 133.749,174.779 135.513 C 175.349 138.852,175.136 139.373,173.039 139.766 C 171.443 140.066,170.557 139.781,170.257 138.872 C 170.135 138.503,169.600 137.480,169.069 136.600 C 167.020 133.209,162.798 125.930,161.297 123.200 C 160.753 122.210,159.808 120.590,159.198 119.600 C 158.025 117.697,149.457 102.902,148.542 101.200 C 147.741 99.709,147.749 99.681,149.888 96.000 C 150.336 95.230,154.078 88.750,158.203 81.600 C 162.328 74.450,166.018 68.060,166.402 67.400 C 166.785 66.740,167.866 64.850,168.803 63.200 C 171.519 58.418,170.108 58.800,185.057 58.800 C 196.458 58.800,198.054 58.876,198.265 59.426 M65.215 72.800 C 66.801 75.550,68.456 78.430,68.892 79.200 C 69.328 79.970,69.820 80.780,69.985 81.000 C 70.150 81.220,70.827 82.390,71.490 83.600 C 72.513 85.468,75.740 91.061,79.453 97.400 C 80.752 99.618,80.692 99.940,78.149 104.321 C 75.721 108.503,74.846 110.019,73.600 112.200 C 73.160 112.970,72.411 114.275,71.935 115.100 C 71.459 115.925,70.824 117.050,70.523 117.600 C 60.690 135.608,58.083 139.105,55.257 138.077 C 54.676 137.866,53.390 137.466,52.400 137.190 C 48.336 136.053,37.349 132.313,35.695 131.503 C 34.654 130.993,34.683 130.617,36.225 124.600 C 38.401 116.107,41.543 106.385,43.981 100.600 C 48.458 89.977,51.995 83.030,57.275 74.494 C 59.895 70.257,61.954 67.419,62.215 67.683 C 62.278 67.747,63.628 70.050,65.215 72.800 M138.551 106.903 C 138.964 107.616,139.616 108.740,140.001 109.400 C 142.261 113.280,155.314 135.896,156.408 137.826 C 156.852 138.610,157.501 139.688,157.851 140.222 C 158.797 141.666,158.322 142.294,156.128 142.501 C 155.068 142.601,149.755 143.158,144.322 143.740 C 128.647 145.418,106.225 145.793,93.600 144.589 C 84.384 143.710,70.942 141.831,70.428 141.350 C 70.252 141.186,71.092 139.382,72.174 137.600 C 74.125 134.387,77.200 129.070,77.200 128.911 C 77.200 128.808,77.533 128.246,77.939 127.662 C 78.345 127.078,79.222 125.610,79.887 124.400 C 80.551 123.190,82.401 119.950,83.998 117.200 C 85.594 114.450,87.356 111.390,87.914 110.400 C 88.471 109.410,89.351 107.925,89.869 107.100 L 90.810 105.600 114.305 105.603 L 137.800 105.605 138.551 106.903 M230.600 121.852 C 220.712 123.340,212.454 136.551,217.377 143.005 C 220.226 146.741,227.180 144.622,227.209 140.009 C 227.229 136.710,229.711 133.724,232.772 133.313 C 236.719 132.784,240.000 135.895,240.000 140.169 C 240.000 142.022,241.940 144.167,244.185 144.796 C 249.358 146.244,252.898 139.969,250.387 133.800 C 246.844 125.093,239.306 120.541,230.600 121.852 M337.400 121.855 C 329.571 123.013,322.800 130.723,322.800 138.480 C 322.800 146.799,332.468 147.550,334.083 139.356 C 335.762 130.841,345.323 131.090,346.605 139.683 C 347.560 146.088,356.682 146.693,357.859 140.429 C 359.727 130.489,348.421 120.225,337.400 121.855 M30.881 142.356 C 31.387 142.552,34.230 143.474,37.200 144.404 C 40.170 145.334,42.960 146.236,43.400 146.407 C 44.091 146.677,45.914 147.211,51.400 148.754 C 56.626 150.224,61.336 151.334,67.689 152.592 C 72.825 153.609,74.761 153.924,82.400 154.981 C 92.826 156.424,96.321 156.600,114.600 156.600 C 126.765 156.600,134.830 156.422,138.400 156.076 C 144.461 155.487,158.089 153.822,161.900 153.205 C 167.101 152.363,169.077 152.024,171.600 151.542 C 173.030 151.269,175.071 151.036,176.137 151.023 L 178.073 151.000 179.955 155.800 C 181.893 160.743,183.776 164.603,185.614 167.400 C 186.192 168.280,186.766 169.270,186.889 169.600 C 187.146 170.287,190.246 174.511,192.584 177.359 C 194.540 179.740,194.294 180.025,189.477 180.953 C 187.675 181.300,184.940 181.853,183.400 182.181 C 180.521 182.793,175.233 183.757,171.000 184.441 C 169.680 184.654,167.520 185.005,166.200 185.221 C 163.825 185.609,160.209 186.103,154.400 186.835 C 133.622 189.450,105.889 189.921,88.000 187.962 C 76.472 186.699,73.200 187.819,73.200 193.027 C 73.200 197.875,77.849 199.315,96.379 200.204 C 98.897 200.325,101.036 200.503,101.132 200.599 C 101.854 201.321,94.997 211.366,88.025 219.800 C 70.038 241.557,50.454 249.102,29.200 242.463 C 18.054 238.982,14.199 233.841,18.301 227.928 C 19.016 226.898,19.600 225.972,19.600 225.869 C 19.600 225.766,20.289 224.538,21.130 223.141 C 24.658 217.283,28.364 208.531,30.174 201.781 C 30.761 199.591,31.393 197.260,31.579 196.600 C 31.764 195.940,32.151 194.005,32.437 192.300 C 32.724 190.595,33.074 189.200,33.214 189.200 C 33.353 189.200,34.533 189.547,35.834 189.972 C 38.378 190.802,51.435 194.050,55.436 194.848 C 60.781 195.914,64.540 191.487,62.269 186.800 C 61.399 185.003,59.612 183.882,56.600 183.241 C 48.013 181.416,32.194 177.043,29.000 175.611 C 28.560 175.414,27.480 175.024,26.600 174.745 C 25.720 174.465,24.829 174.093,24.620 173.918 C 24.411 173.743,23.995 173.600,23.695 173.600 C 19.843 173.600,13.860 167.622,12.056 161.972 C 8.677 151.391,21.017 138.533,30.881 142.356 M271.759 148.172 C 267.816 149.888,267.605 154.482,271.300 158.169 C 279.893 166.744,293.585 166.864,302.533 158.443 C 309.254 152.118,302.114 143.740,295.105 149.728 C 289.552 154.472,283.740 154.398,278.658 149.519 C 276.584 147.527,274.275 147.076,271.759 148.172 M205.869 190.540 C 213.655 197.011,229.675 205.432,239.905 208.430 C 242.925 209.315,242.397 210.836,236.234 219.006 C 235.407 220.103,234.341 221.534,233.865 222.186 C 228.149 230.022,214.964 243.297,208.992 247.228 C 204.021 250.500,198.847 252.995,194.800 254.072 C 194.030 254.277,192.770 254.616,192.000 254.825 C 180.816 257.860,167.399 256.269,155.683 250.520 C 148.806 247.144,147.590 242.098,152.040 235.398 C 154.483 231.719,159.322 222.207,161.001 217.782 C 163.605 210.919,166.400 201.104,166.400 198.822 C 166.400 196.993,166.700 196.881,175.600 195.378 C 182.087 194.282,196.638 191.248,201.400 189.997 C 203.533 189.437,204.715 189.580,205.869 190.540 M365.122 196.900 C 365.982 202.591,368.168 210.924,369.976 215.400 C 373.230 223.459,375.742 228.548,379.919 235.547 C 385.251 244.482,381.363 250.370,367.700 254.050 C 366.985 254.242,365.725 254.579,364.900 254.798 C 358.957 256.374,352.037 256.732,345.570 255.798 C 341.710 255.240,340.672 255.025,337.100 254.042 C 323.923 250.416,310.672 239.141,295.450 218.603 C 293.447 215.900,293.452 215.600,295.497 215.600 C 296.294 215.600,298.578 215.415,300.573 215.189 C 302.568 214.963,305.820 214.593,307.800 214.367 C 309.780 214.141,312.300 213.785,313.400 213.576 C 320.287 212.266,322.250 211.840,326.200 210.795 C 335.725 208.276,342.630 205.661,350.800 201.478 C 356.998 198.304,356.956 198.329,360.600 195.836 C 364.679 193.047,364.535 193.013,365.122 196.900 " stroke="none" fill="#050605" fill-rule="evenodd"></path><path id="path1" d="M280.600 32.838 C 270.679 33.461,267.311 34.757,255.200 42.617 C 241.566 51.465,226.571 67.268,218.811 80.969 C 218.365 81.756,217.614 83.075,217.142 83.900 C 212.949 91.236,208.403 102.219,206.009 110.800 C 205.733 111.790,205.365 113.050,205.192 113.600 C 202.262 122.890,200.307 142.231,201.165 153.446 C 202.010 164.506,203.053 170.909,204.294 172.651 C 206.663 175.979,217.595 184.766,223.400 188.009 C 227.454 190.274,232.537 192.800,233.043 192.800 C 233.349 192.800,233.600 192.980,233.600 193.200 C 233.600 193.420,233.955 193.600,234.388 193.600 C 234.821 193.600,235.766 193.922,236.488 194.316 C 237.210 194.710,239.150 195.464,240.800 195.991 C 242.450 196.518,243.980 197.071,244.200 197.221 C 244.420 197.370,245.050 197.594,245.600 197.718 C 246.150 197.843,247.230 198.121,248.000 198.338 C 269.506 204.377,292.107 205.193,315.400 200.770 C 322.413 199.439,331.825 196.826,334.095 195.581 C 334.477 195.371,334.974 195.200,335.199 195.200 C 335.593 195.200,338.655 193.929,340.095 193.167 C 340.477 192.965,341.062 192.800,341.395 192.800 C 341.728 192.800,342.000 192.620,342.000 192.400 C 342.000 192.180,342.253 192.000,342.562 192.000 C 343.080 192.000,346.340 190.461,346.800 189.999 C 346.910 189.889,347.540 189.530,348.200 189.202 C 350.686 187.965,355.916 184.590,359.813 181.706 C 363.698 178.832,370.177 172.399,373.427 168.190 C 375.359 165.688,378.000 161.682,378.000 161.255 C 378.000 161.042,378.154 160.807,378.343 160.733 C 378.807 160.553,382.114 153.665,383.401 150.200 C 387.925 138.014,389.107 122.774,386.567 109.400 C 385.589 104.257,383.222 96.011,381.629 92.200 C 380.601 89.740,376.888 82.370,375.987 81.000 C 375.408 80.120,374.835 79.130,374.713 78.800 C 373.972 76.790,366.008 66.999,360.521 61.352 C 357.337 58.075,356.780 55.884,358.400 53.000 C 359.444 51.142,359.411 50.747,358.134 49.795 C 357.548 49.358,356.873 48.811,356.634 48.581 C 356.395 48.351,355.300 47.551,354.200 46.804 C 353.100 46.058,352.140 45.301,352.067 45.123 C 351.795 44.464,350.510 44.832,349.570 45.838 C 347.136 48.444,344.248 48.690,340.600 46.603 C 337.018 44.555,330.439 41.367,327.800 40.400 C 327.360 40.239,326.550 39.915,326.000 39.680 C 321.298 37.671,310.418 34.864,303.400 33.849 C 299.801 33.328,297.454 33.133,288.800 32.636 C 287.370 32.554,283.680 32.645,280.600 32.838 M236.200 121.344 C 241.463 122.364,244.880 124.383,247.912 128.266 C 253.779 135.779,252.454 145.600,245.574 145.600 C 243.220 145.600,239.601 142.740,239.600 140.877 C 239.596 132.273,229.461 130.911,227.914 139.306 C 226.263 148.263,215.592 147.477,215.607 138.400 C 215.621 130.155,222.029 123.107,231.200 121.250 C 232.190 121.050,233.090 120.867,233.200 120.843 C 233.310 120.820,234.660 121.045,236.200 121.344 M343.400 121.421 C 355.298 123.075,363.637 140.532,354.667 145.007 C 350.808 146.931,346.000 143.575,346.000 138.958 C 346.000 131.957,336.053 131.997,334.770 139.002 C 333.611 145.330,327.973 147.630,323.814 143.471 C 321.886 141.543,321.842 136.131,323.721 132.000 C 325.071 129.031,329.449 124.015,330.700 124.004 C 330.975 124.002,331.200 123.856,331.200 123.679 C 331.200 122.915,338.875 120.740,340.600 121.015 C 341.040 121.085,342.300 121.268,343.400 121.421 M22.361 143.177 C 8.700 148.384,8.695 168.144,22.353 172.767 C 25.116 173.703,28.204 174.866,28.895 175.232 C 29.277 175.434,29.941 175.600,30.371 175.600 C 30.801 175.600,31.264 175.780,31.400 176.000 C 31.536 176.220,31.999 176.400,32.429 176.400 C 32.859 176.400,33.523 176.563,33.905 176.763 C 34.763 177.211,38.033 178.222,42.000 179.266 C 43.650 179.700,45.630 180.234,46.400 180.453 C 47.170 180.672,48.610 181.038,49.600 181.265 C 50.590 181.493,52.030 181.828,52.800 182.010 C 53.570 182.193,55.421 182.617,56.913 182.953 C 61.155 183.908,62.858 185.518,63.434 189.119 C 63.719 190.903,63.269 190.715,69.317 191.580 C 72.666 192.060,73.200 191.956,73.200 190.823 C 73.200 188.144,77.316 186.526,82.586 187.132 C 101.332 189.288,129.528 189.221,149.855 186.973 C 159.739 185.880,166.668 184.904,173.800 183.602 C 175.120 183.361,176.830 183.071,177.600 182.958 C 178.370 182.845,179.720 182.598,180.600 182.409 C 181.480 182.220,183.280 181.856,184.600 181.600 C 189.978 180.558,193.600 179.629,193.600 179.291 C 193.600 179.192,192.899 178.273,192.042 177.250 C 189.116 173.755,184.547 166.606,182.423 162.200 C 179.711 156.571,179.754 156.671,178.649 153.600 C 177.598 150.680,177.743 150.736,173.400 151.576 C 172.080 151.831,169.920 152.218,168.600 152.436 C 167.280 152.654,165.210 153.007,164.000 153.221 C 160.966 153.758,153.675 154.743,146.400 155.601 C 131.068 157.407,99.936 157.597,87.000 155.962 C 74.886 154.431,67.763 153.153,57.000 150.580 C 50.249 148.966,45.081 147.422,30.972 142.802 C 29.086 142.185,24.433 142.387,22.361 143.177 M275.975 147.391 C 276.897 147.716,278.580 148.796,279.716 149.789 C 284.138 153.657,290.065 153.643,294.280 149.755 C 299.333 145.092,305.600 146.992,305.600 153.188 C 305.600 160.182,291.186 167.475,282.560 164.847 C 281.922 164.652,280.590 164.254,279.600 163.961 C 268.883 160.794,264.355 150.278,272.447 147.350 C 274.212 146.712,274.044 146.710,275.975 147.391 " stroke="none" fill="#b5e9cb" fill-rule="evenodd"></path><path id="path2" d="M164.200 12.237 C 153.347 13.045,151.757 13.369,152.569 14.609 C 152.908 15.126,153.548 16.190,153.992 16.974 C 154.959 18.680,156.127 20.725,157.148 22.500 C 157.560 23.215,160.739 28.750,164.213 34.800 C 167.687 40.850,170.798 46.115,171.127 46.500 C 171.681 47.149,173.156 47.200,191.425 47.200 L 211.127 47.200 213.263 45.483 C 220.889 39.356,239.290 28.800,242.347 28.800 C 245.600 28.800,240.451 25.834,229.800 21.573 C 229.360 21.397,228.280 21.023,227.400 20.743 C 226.520 20.463,225.620 20.123,225.400 19.989 C 225.180 19.854,224.190 19.506,223.200 19.214 C 222.210 18.923,220.680 18.460,219.800 18.185 C 218.431 17.757,214.955 16.889,207.800 15.187 C 205.463 14.632,199.712 13.714,194.000 12.984 C 189.249 12.378,169.094 11.872,164.200 12.237 M135.600 16.620 C 112.380 22.608,93.543 33.295,77.058 49.833 C 69.262 57.655,69.619 56.867,71.994 61.000 C 72.499 61.880,73.364 63.410,73.915 64.400 C 74.467 65.390,75.765 67.640,76.802 69.400 C 78.775 72.751,84.761 83.114,88.470 89.600 L 90.643 93.400 114.227 93.503 L 137.812 93.606 139.106 91.303 C 139.818 90.036,140.915 88.100,141.543 87.000 C 142.171 85.900,143.054 84.349,143.505 83.553 C 143.957 82.758,145.063 80.894,145.963 79.412 C 146.863 77.931,147.600 76.655,147.600 76.578 C 147.600 76.502,148.886 74.229,150.458 71.528 C 152.030 68.828,153.628 66.074,154.009 65.409 C 154.648 64.294,156.729 60.680,158.390 57.800 C 158.770 57.140,159.468 55.970,159.939 55.200 C 161.137 53.245,161.401 53.904,154.949 42.732 C 148.382 31.361,147.924 30.567,146.800 28.600 C 146.360 27.830,145.662 26.615,145.249 25.900 C 144.836 25.185,143.381 22.665,142.016 20.300 C 139.265 15.533,139.435 15.631,135.600 16.620 M171.162 59.900 C 170.853 60.285,170.358 61.030,170.062 61.555 C 168.584 64.180,162.948 73.968,158.406 81.800 C 154.187 89.073,153.564 90.154,150.859 94.900 C 150.452 95.615,149.732 96.830,149.261 97.600 C 147.926 99.778,147.773 99.423,156.548 114.459 C 157.017 115.262,160.460 121.255,164.200 127.778 L 171.000 139.637 172.800 139.381 C 175.129 139.050,175.006 139.399,174.421 134.808 C 174.141 132.611,173.919 127.615,173.927 123.706 C 173.947 114.673,174.587 109.754,177.166 98.800 C 177.623 96.861,179.534 91.149,180.009 90.305 C 180.224 89.923,180.400 89.434,180.400 89.217 C 180.400 88.340,183.929 80.955,186.652 76.136 C 189.753 70.646,194.353 64.073,197.263 60.974 C 197.896 60.299,198.291 59.624,198.140 59.474 C 197.437 58.770,171.743 59.176,171.162 59.900 M61.306 68.901 C 60.561 69.707,57.050 75.158,54.545 79.400 C 54.025 80.280,52.104 83.970,50.276 87.600 C 45.339 97.404,42.556 104.374,38.620 116.800 C 36.890 122.260,34.917 130.651,35.278 131.011 C 36.187 131.921,57.792 138.842,58.154 138.340 C 58.313 138.121,60.711 133.968,62.363 131.053 C 62.783 130.313,63.863 128.494,64.763 127.012 C 65.663 125.531,66.400 124.255,66.400 124.178 C 66.400 124.102,67.691 121.825,69.269 119.119 C 70.848 116.414,73.118 112.490,74.315 110.400 C 76.855 105.964,77.451 104.938,79.144 102.082 C 79.835 100.918,80.400 99.898,80.400 99.815 C 80.400 99.699,68.426 78.813,64.797 72.600 C 64.412 71.940,63.656 70.636,63.117 69.701 L 62.137 68.002 61.306 68.901 M89.396 108.300 C 88.530 109.785,87.620 111.360,87.374 111.800 C 87.127 112.240,86.559 113.230,86.111 114.000 C 84.782 116.287,77.997 128.069,77.013 129.800 C 76.513 130.680,75.157 133.020,74.000 135.000 C 72.844 136.980,71.570 139.173,71.171 139.873 L 70.444 141.146 71.522 141.374 C 87.471 144.742,113.451 146.002,134.400 144.424 C 144.164 143.688,147.917 143.290,156.313 142.100 L 158.427 141.800 154.165 134.400 C 151.821 130.330,149.565 126.415,149.152 125.700 C 148.160 123.984,146.995 121.946,145.953 120.100 C 145.487 119.275,144.767 118.122,144.353 117.538 C 143.939 116.954,143.600 116.380,143.600 116.263 C 143.600 115.839,137.857 106.193,137.434 105.906 C 137.195 105.744,126.643 105.609,113.985 105.606 L 90.970 105.600 89.396 108.300 " stroke="none" fill="#e79478" fill-rule="evenodd"></path><path id="path3" d="M211.591 62.700 L 208.200 66.200 211.700 62.809 C 213.625 60.944,215.200 59.369,215.200 59.309 C 215.200 59.018,214.741 59.449,211.591 62.700 M185.753 124.200 C 185.753 126.840,185.818 127.868,185.897 126.484 C 185.975 125.101,185.974 122.941,185.895 121.684 C 185.816 120.428,185.752 121.560,185.753 124.200 M32.437 192.300 C 32.151 194.005,31.764 195.940,31.579 196.600 C 31.393 197.260,30.761 199.591,30.174 201.781 C 28.364 208.531,24.658 217.283,21.130 223.141 C 20.289 224.538,19.600 225.766,19.600 225.869 C 19.600 225.972,19.016 226.898,18.301 227.928 C 13.671 234.603,19.849 240.831,34.017 243.771 C 39.851 244.982,52.616 245.049,51.030 243.860 C 47.911 241.522,45.377 220.085,47.145 211.000 C 48.291 205.111,49.753 200.164,51.433 196.491 C 51.984 195.287,52.382 194.269,52.317 194.230 C 52.253 194.191,49.050 193.391,45.200 192.451 C 41.350 191.511,37.135 190.395,35.834 189.971 C 34.533 189.547,33.353 189.200,33.214 189.200 C 33.074 189.200,32.724 190.595,32.437 192.300 M185.800 193.438 C 184.480 193.732,180.790 194.433,177.600 194.995 C 166.237 196.999,166.400 196.943,166.400 198.822 C 166.400 201.104,163.605 210.919,161.001 217.782 C 159.322 222.207,154.483 231.719,152.040 235.398 C 145.324 245.508,152.739 252.796,172.800 255.805 C 177.933 256.575,190.009 256.402,185.837 255.618 C 184.224 255.315,182.578 250.412,180.795 240.600 C 178.868 229.998,180.537 212.352,184.447 202.000 C 186.456 196.681,187.912 193.692,188.727 193.217 C 189.628 192.691,188.912 192.746,185.800 193.438 M95.505 200.283 C 96.002 200.379,96.722 200.375,97.105 200.275 C 97.487 200.175,97.080 200.096,96.200 200.101 C 95.320 200.105,95.007 200.187,95.505 200.283 M324.552 211.193 C 323.797 211.498,319.120 212.499,313.400 213.579 C 312.300 213.787,309.780 214.141,307.800 214.367 C 305.820 214.593,302.568 214.963,300.573 215.189 C 298.578 215.415,296.294 215.600,295.497 215.600 C 294.699 215.600,293.963 215.736,293.860 215.903 C 293.567 216.376,300.147 225.058,304.999 230.599 C 319.212 246.831,330.037 253.555,345.570 255.798 C 347.863 256.129,351.373 256.373,353.370 256.339 C 356.759 256.282,356.841 256.262,354.600 256.037 C 348.569 255.430,336.771 243.556,331.314 232.600 C 327.365 224.671,324.044 211.553,325.867 211.082 C 326.325 210.964,326.375 210.885,326.000 210.872 C 325.670 210.860,325.018 211.005,324.552 211.193 M75.375 232.500 L 74.200 233.800 75.500 232.625 C 76.712 231.530,76.984 231.200,76.675 231.200 C 76.606 231.200,76.021 231.785,75.375 232.500 M224.575 232.900 L 223.400 234.200 224.700 233.025 C 225.415 232.379,226.000 231.794,226.000 231.725 C 226.000 231.416,225.670 231.688,224.575 232.900 M216.378 241.100 L 215.000 242.600 216.500 241.222 C 217.896 239.938,218.184 239.600,217.878 239.600 C 217.812 239.600,217.137 240.275,216.378 241.100 M379.775 248.100 L 378.600 249.400 379.900 248.225 C 380.615 247.579,381.200 246.994,381.200 246.925 C 381.200 246.616,380.870 246.888,379.775 248.100 " stroke="none" fill="#08c98b" fill-rule="evenodd"></path><path id="path4" d="M171.280 11.898 C 173.194 11.971,176.434 11.971,178.480 11.898 C 180.526 11.826,178.960 11.766,175.000 11.765 C 171.040 11.765,169.366 11.824,171.280 11.898 M163.500 12.282 C 163.995 12.378,164.805 12.378,165.300 12.282 C 165.795 12.187,165.390 12.109,164.400 12.109 C 163.410 12.109,163.005 12.187,163.500 12.282 M184.700 12.282 C 185.195 12.378,186.005 12.378,186.500 12.282 C 186.995 12.187,186.590 12.109,185.600 12.109 C 184.610 12.109,184.205 12.187,184.700 12.282 M157.100 12.682 C 157.595 12.778,158.405 12.778,158.900 12.682 C 159.395 12.587,158.990 12.509,158.000 12.509 C 157.010 12.509,156.605 12.587,157.100 12.682 M191.100 12.682 C 191.595 12.778,192.405 12.778,192.900 12.682 C 193.395 12.587,192.990 12.509,192.000 12.509 C 191.010 12.509,190.605 12.587,191.100 12.682 M197.700 13.476 C 198.085 13.576,198.715 13.576,199.100 13.476 C 199.485 13.375,199.170 13.293,198.400 13.293 C 197.630 13.293,197.315 13.375,197.700 13.476 M207.800 15.200 C 208.240 15.389,208.870 15.544,209.200 15.544 C 209.578 15.544,209.504 15.417,209.000 15.200 C 208.560 15.011,207.930 14.856,207.600 14.856 C 207.222 14.856,207.296 14.983,207.800 15.200 M137.307 15.925 C 137.023 16.106,137.473 16.230,138.367 16.219 C 139.221 16.209,139.838 16.065,139.737 15.900 C 139.497 15.509,137.938 15.525,137.307 15.925 M133.800 16.800 C 133.296 17.017,133.222 17.144,133.600 17.144 C 133.930 17.144,134.560 16.989,135.000 16.800 C 135.504 16.583,135.578 16.456,135.200 16.456 C 134.870 16.456,134.240 16.611,133.800 16.800 M214.600 16.800 C 215.040 16.989,215.670 17.144,216.000 17.144 C 216.378 17.144,216.304 17.017,215.800 16.800 C 215.360 16.611,214.730 16.456,214.400 16.456 C 214.022 16.456,214.096 16.583,214.600 16.800 M146.815 28.600 C 146.817 28.820,147.186 29.450,147.636 30.000 C 148.179 30.664,148.315 30.731,148.040 30.200 C 147.366 28.895,146.812 28.172,146.815 28.600 M276.600 32.612 C 270.137 33.342,260.954 35.215,255.800 36.854 C 254.480 37.274,252.770 37.806,252.000 38.035 C 251.230 38.265,250.240 38.604,249.800 38.788 C 249.360 38.973,247.470 39.710,245.600 40.427 C 231.911 45.673,211.924 60.147,205.700 69.322 C 205.206 70.051,204.444 71.031,204.008 71.499 C 203.572 71.968,201.878 74.387,200.244 76.875 C 192.498 88.672,188.892 98.266,186.425 113.646 C 185.872 117.090,185.876 131.456,186.431 134.576 C 187.659 141.483,187.946 142.821,188.800 145.600 C 188.969 146.150,189.341 147.410,189.626 148.400 C 189.911 149.390,190.262 150.380,190.405 150.600 C 190.549 150.820,190.908 151.630,191.203 152.400 C 195.590 163.825,206.017 177.045,215.813 183.600 C 216.306 183.930,217.800 184.965,219.133 185.900 C 220.466 186.835,221.673 187.600,221.816 187.600 C 221.959 187.600,222.554 187.939,223.138 188.353 C 225.772 190.222,233.600 193.841,233.600 193.190 C 233.600 192.976,233.349 192.800,233.043 192.800 C 232.537 192.800,227.454 190.274,223.400 188.009 C 217.595 184.766,206.663 175.979,204.294 172.651 C 203.053 170.909,202.010 164.506,201.165 153.446 C 200.307 142.231,202.262 122.890,205.192 113.600 C 205.365 113.050,205.733 111.790,206.009 110.800 C 208.403 102.219,212.949 91.236,217.142 83.900 C 217.614 83.075,218.365 81.756,218.811 80.969 C 228.953 63.063,247.979 45.198,266.817 35.892 C 278.093 30.322,308.680 32.279,326.000 39.680 C 327.129 40.162,328.614 40.761,329.800 41.211 C 331.273 41.770,338.173 45.215,340.600 46.603 C 343.159 48.067,345.659 48.416,347.326 47.542 C 348.414 46.973,351.320 44.400,350.877 44.400 C 350.697 44.400,350.170 44.754,349.705 45.188 C 346.703 47.985,344.623 48.208,340.860 46.133 C 337.224 44.129,332.705 41.907,329.639 40.616 C 316.639 35.145,300.391 31.916,286.573 32.057 C 283.508 32.089,279.020 32.338,276.600 32.612 M89.800 38.235 L 88.600 39.266 89.900 38.406 C 90.615 37.933,91.200 37.468,91.200 37.373 C 91.200 37.073,91.031 37.178,89.800 38.235 M80.185 46.500 L 78.200 48.600 80.300 46.615 C 82.251 44.771,82.583 44.400,82.285 44.400 C 82.222 44.400,81.277 45.345,80.185 46.500 M170.962 46.700 L 171.724 47.600 191.362 47.504 L 211.000 47.408 191.427 47.300 C 173.506 47.201,171.785 47.134,171.027 46.496 C 170.202 45.801,170.201 45.802,170.962 46.700 M359.246 50.888 C 359.221 51.266,358.840 52.217,358.400 53.000 C 356.780 55.884,357.337 58.075,360.521 61.352 C 366.008 66.999,373.972 76.790,374.713 78.800 C 374.835 79.130,375.410 80.120,375.992 81.000 C 376.573 81.880,377.914 84.364,378.972 86.519 C 380.029 88.675,380.977 90.357,381.077 90.256 C 382.447 88.886,370.365 70.945,362.727 63.006 C 357.713 57.795,357.240 56.622,358.831 53.336 C 359.288 52.391,359.579 51.300,359.478 50.909 C 359.309 50.262,359.289 50.260,359.246 50.888 M73.586 53.100 L 71.400 55.400 73.700 53.214 C 75.837 51.182,76.183 50.800,75.886 50.800 C 75.824 50.800,74.789 51.835,73.586 53.100 M159.014 56.635 C 158.641 57.204,158.405 57.738,158.489 57.822 C 158.573 57.907,158.958 57.441,159.344 56.788 C 160.206 55.328,159.948 55.209,159.014 56.635 M70.282 56.709 C 69.818 57.222,69.754 57.581,70.051 58.009 C 70.410 58.527,70.439 58.526,70.283 58.000 C 70.185 57.670,70.379 57.085,70.714 56.700 C 71.515 55.781,71.115 55.789,70.282 56.709 M157.053 60.100 L 156.333 61.400 157.158 60.400 C 157.889 59.513,158.214 58.800,157.886 58.800 C 157.824 58.800,157.449 59.385,157.053 60.100 M176.400 59.084 C 187.967 59.366,198.308 59.373,198.139 59.100 C 198.036 58.935,192.068 58.839,184.876 58.886 C 177.684 58.933,173.870 59.022,176.400 59.084 M196.975 61.300 L 195.800 62.600 197.100 61.425 C 198.312 60.330,198.584 60.000,198.275 60.000 C 198.206 60.000,197.621 60.585,196.975 61.300 M195.144 63.500 C 193.993 64.889,193.506 65.600,193.704 65.600 C 193.814 65.600,194.386 64.970,194.973 64.200 C 196.063 62.771,196.195 62.232,195.144 63.500 M192.719 66.700 C 192.107 67.408,188.419 72.894,187.812 74.000 C 187.029 75.426,188.444 73.554,190.911 69.900 C 193.489 66.080,193.933 65.296,192.719 66.700 M75.549 67.800 C 75.765 68.240,76.234 68.960,76.593 69.400 L 77.244 70.200 76.851 69.400 C 76.635 68.960,76.166 68.240,75.807 67.800 L 75.156 67.000 75.549 67.800 M63.000 69.600 C 63.341 70.260,63.711 70.800,63.821 70.800 C 63.931 70.800,63.741 70.260,63.400 69.600 C 63.059 68.940,62.689 68.400,62.579 68.400 C 62.469 68.400,62.659 68.940,63.000 69.600 M164.759 70.100 C 164.501 70.595,163.835 71.810,163.279 72.800 C 162.723 73.790,162.458 74.420,162.690 74.200 C 163.272 73.648,165.729 69.200,165.452 69.200 C 165.329 69.200,165.017 69.605,164.759 70.100 M150.600 71.200 C 150.259 71.860,150.069 72.400,150.179 72.400 C 150.289 72.400,150.659 71.860,151.000 71.200 C 151.341 70.540,151.531 70.000,151.421 70.000 C 151.311 70.000,150.941 70.540,150.600 71.200 M77.215 70.600 C 77.217 70.820,77.586 71.450,78.036 72.000 C 78.579 72.664,78.715 72.731,78.440 72.200 C 77.766 70.895,77.212 70.172,77.215 70.600 M149.000 74.000 C 148.659 74.660,148.469 75.200,148.579 75.200 C 148.689 75.200,149.059 74.660,149.400 74.000 C 149.741 73.340,149.931 72.800,149.821 72.800 C 149.711 72.800,149.341 73.340,149.000 74.000 M161.400 76.000 C 161.059 76.660,160.869 77.200,160.979 77.200 C 161.089 77.200,161.459 76.660,161.800 76.000 C 162.141 75.340,162.331 74.800,162.221 74.800 C 162.111 74.800,161.741 75.340,161.400 76.000 M82.600 80.000 C 82.941 80.660,83.311 81.200,83.421 81.200 C 83.531 81.200,83.341 80.660,83.000 80.000 C 82.659 79.340,82.289 78.800,82.179 78.800 C 82.069 78.800,82.259 79.340,82.600 80.000 M70.200 82.000 C 70.541 82.660,70.911 83.200,71.021 83.200 C 71.131 83.200,70.941 82.660,70.600 82.000 C 70.259 81.340,69.889 80.800,69.779 80.800 C 69.669 80.800,69.859 81.340,70.200 82.000 M144.214 82.235 C 143.841 82.804,143.605 83.338,143.689 83.422 C 143.773 83.507,144.158 83.041,144.544 82.388 C 145.406 80.928,145.148 80.809,144.214 82.235 M84.200 82.800 C 84.541 83.460,84.911 84.000,85.021 84.000 C 85.131 84.000,84.941 83.460,84.600 82.800 C 84.259 82.140,83.889 81.600,83.779 81.600 C 83.669 81.600,83.859 82.140,84.200 82.800 M142.614 85.035 C 142.241 85.604,142.005 86.138,142.089 86.222 C 142.173 86.307,142.558 85.841,142.944 85.188 C 143.806 83.728,143.548 83.609,142.614 85.035 M85.800 85.600 C 86.141 86.260,86.511 86.800,86.621 86.800 C 86.731 86.800,86.541 86.260,86.200 85.600 C 85.859 84.940,85.489 84.400,85.379 84.400 C 85.269 84.400,85.459 84.940,85.800 85.600 M155.400 86.400 C 155.059 87.060,154.869 87.600,154.979 87.600 C 155.089 87.600,155.459 87.060,155.800 86.400 C 156.141 85.740,156.331 85.200,156.221 85.200 C 156.111 85.200,155.741 85.740,155.400 86.400 M381.216 91.105 C 381.207 91.383,381.375 91.923,381.589 92.305 C 381.803 92.687,382.532 94.613,383.208 96.585 C 389.349 114.493,389.419 133.988,383.401 150.200 C 382.114 153.665,378.807 160.553,378.343 160.733 C 378.154 160.807,378.000 161.042,378.000 161.255 C 378.000 161.682,375.359 165.688,373.427 168.190 C 370.177 172.399,363.698 178.832,359.813 181.706 C 355.916 184.590,350.686 187.965,348.200 189.202 C 347.540 189.530,346.910 189.889,346.800 189.999 C 346.340 190.461,343.080 192.000,342.562 192.000 C 342.253 192.000,342.000 192.180,342.000 192.400 C 342.000 192.620,341.728 192.800,341.395 192.800 C 341.062 192.800,340.477 192.965,340.095 193.167 C 338.492 194.015,335.571 195.200,335.084 195.200 C 334.796 195.200,334.389 195.351,334.180 195.536 C 333.834 195.841,330.165 197.047,323.200 199.143 C 321.770 199.573,320.997 199.942,321.481 199.963 C 321.966 199.983,322.776 199.837,323.281 199.637 C 323.787 199.437,325.550 198.878,327.200 198.395 C 357.318 189.573,379.302 169.422,385.672 144.800 C 389.908 128.428,389.228 112.378,383.611 96.168 C 382.426 92.746,381.243 90.247,381.216 91.105 M90.349 93.300 C 90.862 93.954,92.423 93.994,114.349 93.903 L 137.800 93.807 114.437 93.700 C 96.572 93.619,90.924 93.477,90.437 93.097 C 89.873 92.657,89.863 92.681,90.349 93.300 M78.641 96.600 C 79.241 97.700,79.902 98.780,80.110 99.000 C 80.703 99.627,78.941 96.295,78.206 95.400 C 77.845 94.960,78.041 95.500,78.641 96.600 M177.449 97.415 C 177.312 97.773,177.215 98.366,177.234 98.733 C 177.253 99.100,177.427 98.869,177.621 98.220 C 177.998 96.958,177.865 96.333,177.449 97.415 M176.649 100.615 C 176.512 100.973,176.415 101.566,176.434 101.933 C 176.453 102.300,176.627 102.069,176.821 101.420 C 177.198 100.158,177.065 99.533,176.649 100.615 M148.409 101.100 C 148.414 101.265,148.785 101.850,149.233 102.400 L 150.048 103.400 149.414 102.100 C 148.811 100.865,148.389 100.445,148.409 101.100 M77.814 104.235 C 77.441 104.804,77.205 105.338,77.289 105.422 C 77.373 105.507,77.758 105.041,78.144 104.388 C 79.006 102.928,78.748 102.809,77.814 104.235 M150.600 104.800 C 150.941 105.460,151.311 106.000,151.421 106.000 C 151.531 106.000,151.341 105.460,151.000 104.800 C 150.659 104.140,150.289 103.600,150.179 103.600 C 150.069 103.600,150.259 104.140,150.600 104.800 M76.553 106.500 C 75.176 108.836,75.086 109.035,75.787 108.200 C 76.600 107.232,77.300 106.000,77.038 106.000 C 76.933 106.000,76.715 106.225,76.553 106.500 M152.200 107.600 C 152.541 108.260,152.911 108.800,153.021 108.800 C 153.131 108.800,152.941 108.260,152.600 107.600 C 152.259 106.940,151.889 106.400,151.779 106.400 C 151.669 106.400,151.859 106.940,152.200 107.600 M174.901 109.800 C 174.905 110.680,174.987 110.993,175.083 110.495 C 175.179 109.998,175.175 109.278,175.075 108.895 C 174.975 108.513,174.896 108.920,174.901 109.800 M74.253 110.500 L 73.533 111.800 74.358 110.800 C 75.089 109.913,75.414 109.200,75.086 109.200 C 75.024 109.200,74.649 109.785,74.253 110.500 M153.800 110.400 C 154.141 111.060,154.511 111.600,154.621 111.600 C 154.731 111.600,154.541 111.060,154.200 110.400 C 153.859 109.740,153.489 109.200,153.379 109.200 C 153.269 109.200,153.459 109.740,153.800 110.400 M155.160 112.600 C 155.834 113.905,156.388 114.628,156.385 114.200 C 156.383 113.980,156.014 113.350,155.564 112.800 C 155.021 112.136,154.885 112.069,155.160 112.600 M71.053 116.100 L 70.333 117.400 71.158 116.400 C 71.889 115.513,72.214 114.800,71.886 114.800 C 71.824 114.800,71.449 115.385,71.053 116.100 M157.491 116.631 C 158.101 117.747,158.919 119.097,159.309 119.631 C 159.700 120.164,159.520 119.686,158.909 118.569 C 158.299 117.453,157.481 116.103,157.091 115.569 C 156.700 115.036,156.880 115.514,157.491 116.631 M174.140 118.000 C 174.140 119.870,174.209 120.635,174.293 119.700 C 174.377 118.765,174.377 117.235,174.293 116.300 C 174.209 115.365,174.140 116.130,174.140 118.000 M143.615 116.200 C 143.617 116.420,143.986 117.050,144.436 117.600 C 144.979 118.264,145.115 118.331,144.840 117.800 C 144.166 116.495,143.612 115.772,143.615 116.200 M69.386 118.900 L 68.752 120.200 69.567 119.200 C 70.352 118.237,70.608 117.600,70.210 117.600 C 70.106 117.600,69.735 118.185,69.386 118.900 M67.800 121.600 C 67.459 122.260,67.269 122.800,67.379 122.800 C 67.489 122.800,67.859 122.260,68.200 121.600 C 68.541 120.940,68.731 120.400,68.621 120.400 C 68.511 120.400,68.141 120.940,67.800 121.600 M231.200 121.250 C 222.029 123.107,215.621 130.155,215.607 138.400 C 215.592 147.477,226.263 148.263,227.914 139.306 C 229.461 130.911,239.596 132.273,239.600 140.877 C 239.601 142.740,243.220 145.600,245.574 145.600 C 253.300 145.600,253.680 133.900,246.206 126.181 C 243.808 123.705,235.598 120.335,233.200 120.843 C 233.090 120.867,232.190 121.050,231.200 121.250 M337.600 121.344 C 334.871 121.910,331.200 123.249,331.200 123.679 C 331.200 123.856,330.975 124.002,330.700 124.004 C 329.449 124.015,325.071 129.031,323.721 132.000 C 321.842 136.131,321.886 141.543,323.814 143.471 C 327.973 147.630,333.611 145.330,334.770 139.002 C 335.792 133.422,341.343 131.733,344.817 135.947 C 345.467 136.736,346.000 137.138,346.000 136.838 C 346.000 135.910,343.249 133.645,341.788 133.371 C 337.893 132.641,334.928 134.873,334.131 139.137 C 332.565 147.512,322.800 146.945,322.800 138.480 C 322.800 131.464,327.547 125.286,335.200 122.344 C 344.224 118.875,355.940 126.218,357.689 136.441 C 359.284 145.757,348.536 148.712,346.545 139.505 C 346.106 137.473,346.088 137.453,346.045 138.920 C 345.909 143.507,350.780 146.945,354.667 145.007 C 363.637 140.532,355.298 123.075,343.400 121.421 C 342.300 121.268,341.040 121.085,340.600 121.015 C 340.160 120.945,338.810 121.093,337.600 121.344 M239.200 122.523 C 244.550 124.470,248.010 127.957,250.387 133.800 C 252.898 139.969,249.358 146.244,244.185 144.796 C 241.940 144.167,240.000 142.022,240.000 140.169 C 240.000 135.895,236.719 132.784,232.772 133.313 C 229.711 133.724,227.229 136.710,227.209 140.009 C 227.166 146.850,216.976 146.440,216.168 139.564 C 214.857 128.410,228.216 118.525,239.200 122.523 M173.701 123.800 C 173.705 124.680,173.787 124.993,173.883 124.495 C 173.979 123.998,173.975 123.278,173.875 122.895 C 173.775 122.513,173.696 122.920,173.701 123.800 M161.615 123.800 C 161.617 124.020,161.986 124.650,162.436 125.200 C 162.979 125.864,163.115 125.931,162.840 125.400 C 162.166 124.095,161.612 123.372,161.615 123.800 M163.215 126.600 C 163.217 126.820,163.586 127.450,164.036 128.000 C 164.579 128.664,164.715 128.731,164.440 128.200 C 163.766 126.895,163.212 126.172,163.215 126.600 M174.140 130.000 C 174.140 131.870,174.209 132.635,174.293 131.700 C 174.377 130.765,174.377 129.235,174.293 128.300 C 174.209 127.365,174.140 128.130,174.140 130.000 M63.014 129.835 C 62.641 130.404,62.405 130.938,62.489 131.022 C 62.573 131.107,62.958 130.641,63.344 129.988 C 64.206 128.528,63.948 128.409,63.014 129.835 M165.400 130.400 C 165.741 131.060,166.111 131.600,166.221 131.600 C 166.331 131.600,166.141 131.060,165.800 130.400 C 165.459 129.740,165.089 129.200,164.979 129.200 C 164.869 129.200,165.059 129.740,165.400 130.400 M75.853 131.300 L 75.133 132.600 75.958 131.600 C 76.689 130.713,77.014 130.000,76.686 130.000 C 76.624 130.000,76.249 130.585,75.853 131.300 M61.414 132.635 C 61.041 133.204,60.805 133.738,60.889 133.822 C 60.973 133.907,61.358 133.441,61.744 132.788 C 62.606 131.328,62.348 131.209,61.414 132.635 M167.000 133.200 C 167.341 133.860,167.711 134.400,167.821 134.400 C 167.931 134.400,167.741 133.860,167.400 133.200 C 167.059 132.540,166.689 132.000,166.579 132.000 C 166.469 132.000,166.659 132.540,167.000 133.200 M59.908 135.300 C 59.033 136.649,58.248 138.256,58.687 137.800 C 59.248 137.217,60.898 134.400,60.679 134.400 C 60.576 134.400,60.229 134.805,59.908 135.300 M172.000 139.600 C 171.208 139.854,171.167 139.920,171.800 139.920 C 172.240 139.920,173.050 139.776,173.600 139.600 C 174.392 139.346,174.433 139.280,173.800 139.280 C 173.360 139.280,172.550 139.424,172.000 139.600 M21.892 142.968 C 16.947 145.001,13.749 148.568,12.033 153.960 C 11.527 155.550,11.463 160.765,11.941 161.518 C 12.122 161.803,12.187 160.612,12.087 158.871 C 11.488 148.523,21.757 139.785,30.972 142.802 C 41.113 146.123,43.334 146.800,43.508 146.625 C 43.622 146.512,43.464 146.347,43.157 146.259 C 41.397 145.753,31.653 142.655,30.881 142.356 C 29.040 141.643,24.337 141.963,21.892 142.968 M155.905 142.283 C 156.402 142.379,157.122 142.375,157.505 142.275 C 157.887 142.175,157.480 142.096,156.600 142.101 C 155.720 142.105,155.407 142.187,155.905 142.283 M79.700 143.076 C 80.085 143.176,80.715 143.176,81.100 143.076 C 81.485 142.975,81.170 142.893,80.400 142.893 C 79.630 142.893,79.315 142.975,79.700 143.076 M149.905 143.083 C 150.402 143.179,151.122 143.175,151.505 143.075 C 151.887 142.975,151.480 142.896,150.600 142.901 C 149.720 142.905,149.407 142.987,149.905 143.083 M86.700 143.882 C 87.195 143.978,88.005 143.978,88.500 143.882 C 88.995 143.787,88.590 143.709,87.600 143.709 C 86.610 143.709,86.205 143.787,86.700 143.882 M141.900 143.882 C 142.395 143.978,143.205 143.978,143.700 143.882 C 144.195 143.787,143.790 143.709,142.800 143.709 C 141.810 143.709,141.405 143.787,141.900 143.882 M95.107 144.690 C 95.826 144.779,96.906 144.777,97.507 144.686 C 98.108 144.595,97.520 144.522,96.200 144.524 C 94.880 144.526,94.388 144.601,95.107 144.690 M131.700 144.691 C 132.525 144.778,133.875 144.778,134.700 144.691 C 135.525 144.605,134.850 144.534,133.200 144.534 C 131.550 144.534,130.875 144.605,131.700 144.691 M100.700 145.082 C 101.195 145.178,102.005 145.178,102.500 145.082 C 102.995 144.987,102.590 144.909,101.600 144.909 C 100.610 144.909,100.205 144.987,100.700 145.082 M126.700 145.082 C 127.195 145.178,128.005 145.178,128.500 145.082 C 128.995 144.987,128.590 144.909,127.600 144.909 C 126.610 144.909,126.205 144.987,126.700 145.082 M112.707 145.490 C 113.426 145.579,114.506 145.577,115.107 145.486 C 115.708 145.395,115.120 145.322,113.800 145.324 C 112.480 145.326,111.988 145.401,112.707 145.490 M45.214 147.378 C 45.992 147.664,47.252 148.011,48.014 148.148 C 48.941 148.315,48.671 148.137,47.200 147.610 C 45.990 147.177,44.730 146.830,44.400 146.839 C 44.070 146.849,44.436 147.091,45.214 147.378 M272.447 147.350 C 264.355 150.278,268.883 160.794,279.600 163.961 C 280.590 164.254,281.922 164.652,282.560 164.847 C 291.186 167.475,305.600 160.182,305.600 153.188 C 305.600 146.992,299.333 145.092,294.280 149.755 C 290.065 153.643,284.138 153.657,279.716 149.789 C 278.580 148.796,276.897 147.716,275.975 147.391 C 274.044 146.710,274.212 146.712,272.447 147.350 M276.474 147.955 C 276.983 148.151,277.966 148.854,278.658 149.519 C 283.740 154.398,289.552 154.472,295.105 149.728 C 302.114 143.740,309.254 152.118,302.533 158.443 C 293.585 166.864,279.893 166.744,271.300 158.169 C 266.089 152.968,269.905 145.434,276.474 147.955 M51.778 149.247 C 53.085 149.670,54.345 149.944,54.578 149.857 C 54.810 149.770,54.460 149.574,53.800 149.422 C 53.140 149.269,52.187 148.977,51.681 148.772 C 51.176 148.568,50.456 148.418,50.081 148.440 C 49.707 148.462,50.470 148.825,51.778 149.247 M56.200 150.400 C 56.640 150.589,57.360 150.744,57.800 150.744 L 58.600 150.744 57.800 150.400 C 57.360 150.211,56.640 150.056,56.200 150.056 L 55.400 150.056 56.200 150.400 M59.400 151.200 C 59.840 151.389,60.560 151.544,61.000 151.544 L 61.800 151.544 61.000 151.200 C 60.560 151.011,59.840 150.856,59.400 150.856 L 58.600 150.856 59.400 151.200 M173.600 151.200 L 172.600 151.520 173.600 151.532 C 174.150 151.538,174.960 151.389,175.400 151.200 L 176.200 150.856 175.400 150.868 C 174.960 150.874,174.150 151.024,173.600 151.200 M178.643 153.613 C 179.223 155.256,179.883 156.780,180.108 157.000 C 180.386 157.272,180.424 157.143,180.224 156.600 C 178.708 152.463,178.252 151.347,177.944 151.013 C 177.748 150.801,178.062 151.971,178.643 153.613 M63.000 152.000 C 63.440 152.189,64.250 152.338,64.800 152.332 L 65.800 152.320 64.800 152.000 C 64.250 151.824,63.440 151.674,63.000 151.668 L 62.200 151.656 63.000 152.000 M169.200 152.000 L 168.200 152.320 169.200 152.320 C 169.750 152.320,170.650 152.176,171.200 152.000 L 172.200 151.680 171.200 151.680 C 170.650 151.680,169.750 151.824,169.200 152.000 M67.000 152.800 C 67.440 152.989,68.250 153.138,68.800 153.132 L 69.800 153.120 68.800 152.800 C 68.250 152.624,67.440 152.474,67.000 152.468 L 66.200 152.456 67.000 152.800 M164.400 152.800 L 163.400 153.120 164.400 153.120 C 164.950 153.120,165.850 152.976,166.400 152.800 L 167.400 152.480 166.400 152.480 C 165.850 152.480,164.950 152.624,164.400 152.800 M71.000 153.600 C 71.440 153.789,72.340 153.935,73.000 153.925 L 74.200 153.905 73.000 153.600 C 72.340 153.432,71.440 153.286,71.000 153.275 L 70.200 153.256 71.000 153.600 M159.400 153.600 L 158.200 153.905 159.600 153.925 C 160.370 153.935,161.360 153.789,161.800 153.600 C 162.864 153.143,161.197 153.143,159.400 153.600 M76.000 154.400 C 76.550 154.576,77.540 154.717,78.200 154.713 L 79.400 154.705 78.200 154.400 C 77.540 154.232,76.550 154.091,76.000 154.087 L 75.000 154.080 76.000 154.400 M153.400 154.400 L 151.800 154.686 153.400 154.703 C 154.280 154.713,155.450 154.576,156.000 154.400 L 157.000 154.080 156.000 154.097 C 155.450 154.106,154.280 154.242,153.400 154.400 M81.000 155.200 C 81.660 155.368,82.920 155.504,83.800 155.503 L 85.400 155.500 83.600 155.180 C 81.157 154.745,79.270 154.760,81.000 155.200 M146.800 155.200 L 145.000 155.480 146.800 155.493 C 147.790 155.500,149.140 155.368,149.800 155.200 L 151.000 154.895 149.800 154.907 C 149.140 154.914,147.790 155.046,146.800 155.200 M87.400 155.982 C 88.598 156.305,93.482 156.533,93.167 156.251 C 93.075 156.170,91.470 156.003,89.600 155.881 C 87.571 155.748,86.684 155.789,87.400 155.982 M138.600 156.000 L 136.200 156.266 138.600 156.310 C 139.920 156.334,141.720 156.205,142.600 156.023 L 144.200 155.692 142.600 155.713 C 141.720 155.725,139.920 155.854,138.600 156.000 M97.200 156.860 C 100.091 157.203,129.622 157.207,132.200 156.865 C 133.300 156.719,125.380 156.600,114.600 156.600 C 103.820 156.600,95.990 156.717,97.200 156.860 M182.007 161.313 C 181.995 161.832,184.040 165.693,184.228 165.505 C 184.324 165.410,183.865 164.357,183.208 163.166 C 182.552 161.975,182.011 161.141,182.007 161.313 M12.429 162.862 C 12.287 166.056,20.202 173.600,23.695 173.600 C 23.995 173.600,24.411 173.743,24.620 173.918 C 24.829 174.093,25.720 174.465,26.600 174.745 C 27.480 175.024,28.560 175.412,29.000 175.606 C 29.919 176.012,33.524 177.200,33.838 177.200 C 33.953 177.200,33.936 177.020,33.800 176.800 C 33.664 176.580,33.124 176.400,32.600 176.400 C 32.076 176.400,31.536 176.220,31.400 176.000 C 31.264 175.780,30.801 175.600,30.371 175.600 C 29.941 175.600,29.277 175.434,28.895 175.232 C 28.204 174.866,25.116 173.703,22.353 172.767 C 18.583 171.491,14.538 167.611,13.114 163.905 C 12.754 162.967,12.446 162.498,12.429 162.862 M184.959 167.100 C 185.689 168.484,186.770 169.899,186.787 169.491 C 186.802 169.141,184.777 166.000,184.537 166.000 C 184.450 166.000,184.640 166.495,184.959 167.100 M189.452 173.800 C 190.069 174.680,191.277 176.262,192.137 177.316 C 192.997 178.370,193.634 179.279,193.551 179.337 C 193.468 179.395,192.950 179.646,192.400 179.894 C 191.805 180.163,191.653 180.357,192.024 180.373 C 194.175 180.466,194.222 179.381,192.178 176.802 C 189.332 173.213,188.059 171.810,189.452 173.800 M36.564 178.043 C 37.863 178.463,38.995 178.738,39.079 178.654 C 39.282 178.452,35.394 177.189,34.725 177.240 C 34.436 177.262,35.264 177.623,36.564 178.043 M40.400 179.200 C 41.768 179.638,42.819 179.638,41.800 179.200 C 41.360 179.011,40.640 178.862,40.200 178.868 C 39.557 178.877,39.596 178.943,40.400 179.200 M43.400 180.000 C 44.596 180.514,45.595 180.514,44.800 180.000 C 44.470 179.787,43.840 179.622,43.400 179.634 L 42.600 179.656 43.400 180.000 M46.200 180.800 C 47.396 181.314,48.395 181.314,47.600 180.800 C 47.270 180.587,46.640 180.422,46.200 180.434 L 45.400 180.456 46.200 180.800 M188.600 180.819 C 188.042 181.071,188.285 181.107,189.400 180.938 C 190.280 180.804,191.075 180.628,191.167 180.547 C 191.510 180.244,189.368 180.471,188.600 180.819 M49.400 181.600 C 49.840 181.789,50.560 181.944,51.000 181.944 L 51.800 181.944 51.000 181.600 C 50.560 181.411,49.840 181.256,49.400 181.256 L 48.600 181.256 49.400 181.600 M184.600 181.600 L 183.800 181.944 184.600 181.944 C 185.040 181.944,185.760 181.789,186.200 181.600 L 187.000 181.256 186.200 181.256 C 185.760 181.256,185.040 181.411,184.600 181.600 M52.800 182.400 C 54.342 182.894,55.164 182.894,54.400 182.400 C 54.070 182.187,53.350 182.027,52.800 182.046 L 51.800 182.080 52.800 182.400 M180.600 182.400 L 179.800 182.744 180.600 182.732 C 181.040 182.726,181.850 182.576,182.400 182.400 L 183.400 182.080 182.400 182.068 C 181.850 182.062,181.040 182.211,180.600 182.400 M56.400 183.200 C 56.950 183.376,57.760 183.520,58.200 183.520 C 58.833 183.520,58.792 183.454,58.000 183.200 C 57.450 183.024,56.640 182.880,56.200 182.880 C 55.567 182.880,55.608 182.946,56.400 183.200 M176.000 183.200 L 175.000 183.520 176.000 183.513 C 176.550 183.509,177.540 183.368,178.200 183.200 L 179.400 182.895 178.200 182.887 C 177.540 182.883,176.550 183.024,176.000 183.200 M59.800 184.212 C 66.780 189.325,61.346 197.747,53.107 194.586 C 52.571 194.380,52.210 194.792,51.427 196.503 C 45.661 209.109,44.899 226.403,49.494 240.400 L 50.610 243.800 52.405 243.687 C 65.740 242.851,83.934 227.721,98.596 205.278 C 101.799 200.375,102.073 200.848,95.746 200.367 C 78.420 199.050,76.642 198.747,74.759 196.789 C 72.379 194.314,72.506 191.572,75.136 188.600 C 76.032 187.588,75.964 187.616,74.699 188.778 C 73.875 189.537,73.200 190.471,73.200 190.855 C 73.200 191.953,72.646 192.057,69.317 191.580 C 63.720 190.779,63.600 190.747,63.598 190.056 C 63.589 187.614,61.001 183.571,59.472 183.613 C 59.212 183.620,59.360 183.889,59.800 184.212 M171.600 184.000 L 170.600 184.320 171.600 184.320 C 172.150 184.320,173.050 184.176,173.600 184.000 L 174.600 183.680 173.600 183.680 C 173.050 183.680,172.150 183.824,171.600 184.000 M166.800 184.800 L 165.800 185.120 166.800 185.120 C 167.350 185.120,168.250 184.976,168.800 184.800 L 169.800 184.480 168.800 184.480 C 168.250 184.480,167.350 184.624,166.800 184.800 M161.200 185.600 L 159.800 185.895 161.200 185.900 C 161.970 185.903,163.140 185.768,163.800 185.600 L 165.000 185.295 163.800 185.300 C 163.140 185.303,161.970 185.438,161.200 185.600 M155.000 186.400 L 153.400 186.686 155.000 186.696 C 155.880 186.701,157.140 186.568,157.800 186.400 L 159.000 186.095 157.800 186.104 C 157.140 186.109,155.880 186.242,155.000 186.400 M76.942 187.106 C 76.690 187.268,78.310 187.419,80.542 187.443 C 83.663 187.477,84.184 187.414,82.800 187.173 C 80.466 186.766,77.524 186.733,76.942 187.106 M148.000 187.200 L 146.200 187.480 148.200 187.493 C 149.300 187.500,150.740 187.368,151.400 187.200 L 152.600 186.895 151.200 186.907 C 150.430 186.914,148.990 187.046,148.000 187.200 M88.000 188.008 C 89.794 188.340,95.084 188.532,94.767 188.254 C 94.675 188.173,92.710 188.010,90.400 187.891 C 87.594 187.747,86.798 187.786,88.000 188.008 M138.200 188.000 L 135.400 188.259 138.200 188.300 C 139.740 188.322,141.810 188.197,142.800 188.020 L 144.600 187.700 142.800 187.721 C 141.810 187.732,139.740 187.858,138.200 188.000 M98.600 188.857 C 101.696 189.188,128.195 189.185,131.600 188.853 C 133.030 188.714,125.650 188.600,115.200 188.600 C 104.750 188.600,97.280 188.715,98.600 188.857 M203.000 189.864 C 202.560 189.957,200.760 190.382,199.000 190.806 C 197.240 191.230,194.381 191.859,192.647 192.203 C 187.824 193.160,187.754 193.244,184.447 202.000 C 180.537 212.352,178.868 229.998,180.795 240.600 C 182.741 251.311,184.198 255.360,186.163 255.526 C 190.098 255.857,200.238 252.426,206.899 248.508 C 212.357 245.298,223.041 235.270,229.601 227.200 C 230.584 225.990,231.485 224.910,231.602 224.800 C 233.082 223.408,242.000 210.501,242.000 209.750 C 242.000 209.498,241.055 208.993,239.900 208.628 C 237.403 207.838,233.036 206.232,230.800 205.282 C 222.242 201.643,213.626 196.636,206.069 190.911 C 205.118 190.190,204.218 189.621,204.069 189.646 C 203.921 189.672,203.440 189.770,203.000 189.864 M234.000 193.770 C 234.000 194.408,250.930 200.039,252.636 199.968 C 253.388 199.937,252.580 199.617,249.800 198.842 C 249.140 198.659,247.790 198.283,246.800 198.008 C 245.810 197.734,244.640 197.361,244.200 197.181 C 243.760 197.000,242.230 196.470,240.800 196.003 C 239.370 195.536,237.508 194.804,236.662 194.377 C 235.231 193.654,234.000 193.373,234.000 193.770 M362.402 194.857 C 359.506 197.266,346.708 204.056,341.400 206.000 C 340.960 206.161,340.150 206.494,339.600 206.740 C 338.318 207.314,330.956 209.708,327.671 210.620 L 325.142 211.322 325.399 213.361 C 327.433 229.475,337.198 245.661,350.102 254.310 L 352.805 256.121 356.702 255.869 C 367.079 255.200,379.149 250.316,381.490 245.841 C 382.913 243.119,382.153 238.850,379.595 235.200 C 374.528 227.972,367.982 212.241,366.028 202.600 C 365.805 201.500,365.438 199.755,365.211 198.723 C 364.985 197.690,364.800 196.205,364.800 195.423 C 364.800 193.739,363.979 193.545,362.402 194.857 M254.000 200.349 C 255.063 200.924,266.659 202.830,273.677 203.584 C 278.675 204.120,295.599 204.123,300.000 203.588 C 308.422 202.563,310.313 202.314,312.000 202.003 C 315.728 201.317,318.633 200.699,319.600 200.387 C 321.432 199.794,319.348 199.988,315.544 200.764 C 297.444 204.455,278.330 204.524,259.497 200.964 C 254.051 199.935,253.023 199.820,254.000 200.349 " stroke="none" fill="#64daa3" fill-rule="evenodd"></path></g></svg>