<svg id="svg" version="1.1" xmlns="http://www.w3.org/2000/svg" xmlns:xlink="http://www.w3.org/1999/xlink" width="400" height="400" viewBox="0, 0, 400,400"><g id="svgg"><path id="path0" d="M184.500 0.275 C 182.905 0.363,181.600 0.607,181.600 0.818 C 181.600 1.028,180.700 1.200,179.600 1.200 C 178.500 1.200,177.600 1.380,177.600 1.600 C 177.600 1.820,176.790 2.000,175.800 2.000 C 174.810 2.000,174.000 2.180,174.000 2.400 C 174.000 2.620,173.381 2.800,172.624 2.800 C 171.867 2.800,171.136 2.980,171.000 3.200 C 170.864 3.420,170.223 3.600,169.576 3.600 C 168.929 3.600,168.400 3.780,168.400 4.000 C 168.400 4.220,167.860 4.400,167.200 4.400 C 166.540 4.400,166.000 4.580,166.000 4.800 C 166.000 5.020,165.460 5.200,164.800 5.200 C 164.140 5.200,163.600 5.380,163.600 5.600 C 163.600 5.820,163.060 6.000,162.400 6.000 C 161.740 6.000,161.200 6.180,161.200 6.400 C 161.200 6.620,160.840 6.800,160.400 6.800 C 159.960 6.800,159.600 6.980,159.600 7.200 C 159.600 7.420,159.150 7.600,158.600 7.600 C 158.050 7.600,157.600 7.780,157.600 8.000 C 157.600 8.220,157.312 8.400,156.960 8.400 C 156.054 8.400,147.025 12.519,146.400 13.218 C 146.290 13.341,145.550 13.744,144.755 14.113 C 143.960 14.483,143.083 15.059,142.806 15.393 C 142.529 15.727,142.054 16.000,141.751 16.000 C 141.448 16.000,141.200 16.180,141.200 16.400 C 141.200 16.620,140.880 16.800,140.488 16.800 C 140.097 16.800,139.517 17.160,139.200 17.600 C 138.883 18.040,138.391 18.400,138.108 18.400 C 137.825 18.400,137.028 18.940,136.337 19.600 C 135.646 20.260,134.926 20.800,134.737 20.800 C 134.548 20.800,133.828 21.340,133.137 22.000 C 132.446 22.660,131.704 23.200,131.488 23.200 C 131.271 23.200,130.803 23.516,130.447 23.902 C 130.091 24.288,128.901 25.323,127.802 26.202 C 125.190 28.292,118.069 35.412,116.803 37.200 C 116.258 37.970,115.315 39.140,114.707 39.800 C 112.902 41.760,111.414 43.665,109.864 46.000 C 109.060 47.210,108.222 48.417,108.001 48.683 C 107.781 48.949,107.600 49.361,107.600 49.600 C 107.600 49.838,107.240 50.420,106.800 50.892 C 106.360 51.364,106.000 51.987,106.000 52.275 C 106.000 52.564,105.820 52.800,105.600 52.800 C 105.380 52.800,105.200 53.160,105.200 53.600 C 105.200 54.040,105.020 54.400,104.800 54.400 C 104.580 54.400,104.400 54.760,104.400 55.200 C 104.400 55.640,104.253 56.000,104.074 56.000 C 103.665 56.000,102.000 59.081,102.000 59.838 C 102.000 60.147,101.820 60.400,101.600 60.400 C 101.380 60.400,101.200 60.760,101.200 61.200 C 101.200 61.640,101.020 62.000,100.800 62.000 C 100.580 62.000,100.400 62.360,100.400 62.800 C 100.400 63.240,100.220 63.600,100.000 63.600 C 99.780 63.600,99.600 63.960,99.600 64.400 C 99.600 64.840,99.420 65.200,99.200 65.200 C 98.980 65.200,98.800 65.639,98.800 66.176 C 98.800 66.713,98.620 67.264,98.400 67.400 C 98.180 67.536,98.000 67.997,98.000 68.424 C 98.000 68.851,97.820 69.200,97.600 69.200 C 97.380 69.200,97.200 69.740,97.200 70.400 C 97.200 71.060,97.020 71.600,96.800 71.600 C 96.580 71.600,96.400 72.039,96.400 72.576 C 96.400 73.113,96.220 73.664,96.000 73.800 C 95.780 73.936,95.600 74.476,95.600 75.000 C 95.600 75.524,95.420 76.064,95.200 76.200 C 94.980 76.336,94.800 76.876,94.800 77.400 C 94.800 77.924,94.620 78.464,94.400 78.600 C 94.180 78.736,94.000 79.456,94.000 80.200 C 94.000 80.944,93.839 81.652,93.642 81.774 C 93.445 81.895,93.189 82.671,93.072 83.497 C 92.956 84.324,92.559 86.620,92.191 88.600 C 91.823 90.580,91.431 93.685,91.320 95.500 C 91.209 97.315,90.956 98.800,90.759 98.800 C 90.561 98.800,90.400 101.924,90.400 105.776 C 90.400 109.996,90.242 112.850,90.000 113.000 C 89.446 113.343,89.446 287.600,90.000 287.600 C 90.248 287.600,90.400 289.733,90.400 293.200 C 90.400 296.286,90.563 298.800,90.763 298.800 C 90.963 298.800,91.209 299.745,91.310 300.900 C 91.537 303.487,92.432 306.979,93.327 308.774 C 93.697 309.516,94.000 310.365,94.000 310.661 C 94.000 310.958,94.159 311.200,94.353 311.200 C 94.548 311.200,94.807 311.515,94.929 311.900 C 95.587 313.977,101.848 320.844,103.585 321.395 C 104.033 321.538,104.400 321.822,104.400 322.027 C 104.400 322.232,104.760 322.400,105.200 322.400 C 105.640 322.400,106.000 322.580,106.000 322.800 C 106.000 323.020,106.360 323.200,106.800 323.200 C 107.240 323.200,107.600 323.340,107.600 323.511 C 107.600 323.920,111.935 325.200,113.320 325.200 C 113.914 325.200,114.400 325.380,114.400 325.600 C 114.400 325.829,115.600 326.000,117.200 326.000 C 118.800 326.000,120.000 326.171,120.000 326.400 C 120.000 326.661,126.656 326.800,139.167 326.800 L 158.335 326.800 158.503 346.500 C 158.624 360.674,158.811 366.649,159.170 367.800 C 159.444 368.680,159.850 370.120,160.073 371.000 C 160.296 371.880,160.640 372.913,160.839 373.295 C 161.038 373.677,161.200 374.262,161.200 374.595 C 161.200 374.928,161.380 375.200,161.600 375.200 C 161.820 375.200,162.000 375.412,162.000 375.672 C 162.000 376.427,163.710 380.000,164.071 380.000 C 164.252 380.000,164.400 380.360,164.400 380.800 C 164.400 381.240,164.550 381.600,164.732 381.600 C 164.915 381.600,165.319 382.095,165.630 382.700 C 165.940 383.305,166.474 384.070,166.816 384.400 C 167.158 384.730,167.873 385.630,168.405 386.400 C 169.621 388.159,171.836 390.231,173.400 391.073 C 174.060 391.428,174.891 392.052,175.247 392.459 C 175.603 392.867,176.058 393.200,176.259 393.200 C 176.459 393.200,176.883 393.560,177.200 394.000 C 177.517 394.440,178.097 394.800,178.488 394.800 C 178.880 394.800,179.200 394.980,179.200 395.200 C 179.200 395.420,179.560 395.600,180.000 395.600 C 180.440 395.600,180.800 395.780,180.800 396.000 C 180.800 396.220,181.160 396.400,181.600 396.400 C 182.040 396.400,182.400 396.580,182.400 396.800 C 182.400 397.020,182.760 397.200,183.200 397.200 C 183.640 397.200,184.000 397.380,184.000 397.600 C 184.000 397.820,184.540 398.000,185.200 398.000 C 185.860 398.000,186.400 398.180,186.400 398.400 C 186.400 398.620,186.925 398.800,187.567 398.800 C 188.208 398.800,188.808 399.025,188.900 399.300 C 189.142 400.026,210.058 400.026,210.300 399.300 C 210.392 399.025,210.992 398.800,211.633 398.800 C 212.275 398.800,212.800 398.620,212.800 398.400 C 212.800 398.180,213.340 398.000,214.000 398.000 C 214.660 398.000,215.200 397.820,215.200 397.600 C 215.200 397.380,215.560 397.200,216.000 397.200 C 216.440 397.200,216.800 397.020,216.800 396.800 C 216.800 396.580,217.160 396.400,217.600 396.400 C 218.040 396.400,218.400 396.220,218.400 396.000 C 218.400 395.780,218.760 395.600,219.200 395.600 C 219.640 395.600,220.000 395.420,220.000 395.200 C 220.000 394.980,220.360 394.800,220.800 394.800 C 221.240 394.800,221.600 394.650,221.600 394.468 C 221.600 394.285,222.095 393.881,222.700 393.570 C 223.305 393.260,224.091 392.689,224.447 392.303 C 224.803 391.916,225.269 391.600,225.482 391.600 C 225.989 391.600,231.600 386.185,231.600 385.695 C 231.600 385.488,232.140 384.754,232.800 384.063 C 233.460 383.372,234.000 382.618,234.000 382.387 C 234.000 382.156,234.360 381.580,234.800 381.108 C 235.240 380.636,235.600 380.013,235.600 379.725 C 235.600 379.436,235.780 379.200,236.000 379.200 C 236.220 379.200,236.400 378.840,236.400 378.400 C 236.400 377.960,236.580 377.600,236.800 377.600 C 237.020 377.600,237.200 377.328,237.200 376.995 C 237.200 376.662,237.380 376.032,237.600 375.595 C 237.820 375.158,238.180 374.442,238.400 374.005 C 238.620 373.568,238.800 372.859,238.800 372.429 C 238.800 371.999,238.980 371.536,239.200 371.400 C 239.420 371.264,239.600 370.544,239.600 369.800 C 239.600 369.056,239.780 368.336,240.000 368.200 C 240.220 368.064,240.400 366.984,240.400 365.800 C 240.400 364.616,240.580 363.536,240.800 363.400 C 241.057 363.241,241.200 356.663,241.200 344.976 L 241.200 326.800 260.200 326.800 C 272.600 326.800,279.200 326.661,279.200 326.400 C 279.200 326.171,280.400 326.000,282.000 326.000 C 283.540 326.000,284.800 325.845,284.800 325.656 C 284.800 325.467,285.768 325.212,286.951 325.090 C 288.134 324.968,289.439 324.684,289.851 324.460 C 290.263 324.236,291.185 323.817,291.900 323.529 C 292.615 323.240,293.200 322.869,293.200 322.702 C 293.200 322.536,293.560 322.400,294.000 322.400 C 294.440 322.400,294.800 322.220,294.800 322.000 C 294.800 321.780,295.088 321.600,295.440 321.600 C 295.791 321.600,296.583 321.060,297.200 320.400 C 297.817 319.740,298.464 319.200,298.639 319.200 C 299.087 319.200,301.200 317.126,301.200 316.686 C 301.200 316.485,301.740 315.817,302.400 315.200 C 303.060 314.583,303.600 313.791,303.600 313.440 C 303.600 313.088,303.780 312.800,304.000 312.800 C 304.220 312.800,304.400 312.440,304.400 312.000 C 304.400 311.560,304.580 311.200,304.800 311.200 C 305.020 311.200,305.200 310.840,305.200 310.400 C 305.200 309.960,305.335 309.599,305.500 309.597 C 305.861 309.593,306.800 307.655,306.800 306.915 C 306.800 306.626,306.956 306.077,307.146 305.695 C 308.085 303.812,308.455 301.787,308.678 297.300 C 308.812 294.605,309.074 292.400,309.261 292.400 C 309.447 292.400,309.600 250.820,309.600 200.000 C 309.600 138.667,309.466 107.600,309.200 107.600 C 308.959 107.600,308.789 105.814,308.772 103.100 C 308.738 97.755,307.897 89.778,307.202 88.200 C 307.008 87.760,306.742 86.680,306.609 85.800 C 306.477 84.920,306.267 83.524,306.142 82.697 C 306.018 81.871,305.755 81.095,305.558 80.974 C 305.361 80.852,305.200 80.234,305.200 79.600 C 305.200 78.966,305.020 78.336,304.800 78.200 C 304.580 78.064,304.400 77.423,304.400 76.776 C 304.400 76.129,304.220 75.600,304.000 75.600 C 303.780 75.600,303.600 75.060,303.600 74.400 C 303.600 73.740,303.420 73.200,303.200 73.200 C 302.980 73.200,302.800 72.660,302.800 72.000 C 302.800 71.340,302.620 70.800,302.400 70.800 C 302.180 70.800,302.000 70.451,302.000 70.024 C 302.000 69.597,301.820 69.136,301.600 69.000 C 301.380 68.864,301.200 68.313,301.200 67.776 C 301.200 67.239,301.020 66.800,300.800 66.800 C 300.580 66.800,300.400 66.440,300.400 66.000 C 300.400 65.560,300.220 65.200,300.000 65.200 C 299.780 65.200,299.600 64.865,299.600 64.456 C 299.600 63.654,297.195 58.687,296.700 58.467 C 296.535 58.393,296.400 57.988,296.400 57.567 C 296.400 57.145,296.220 56.800,296.000 56.800 C 295.780 56.800,295.600 56.480,295.600 56.088 C 295.600 55.697,295.240 55.117,294.800 54.800 C 294.360 54.483,294.000 53.903,294.000 53.512 C 294.000 53.120,293.820 52.800,293.600 52.800 C 293.380 52.800,293.200 52.480,293.200 52.088 C 293.200 51.697,292.840 51.117,292.400 50.800 C 291.960 50.483,291.600 49.967,291.600 49.654 C 291.600 48.967,289.524 45.602,289.100 45.601 C 288.935 45.600,288.800 45.409,288.800 45.177 C 288.800 44.665,286.622 41.821,285.100 40.345 C 284.495 39.759,284.000 39.103,284.000 38.888 C 284.000 38.330,272.481 26.716,270.800 25.578 C 270.030 25.057,268.923 24.129,268.340 23.515 C 267.756 22.902,267.063 22.400,266.800 22.400 C 266.537 22.400,265.817 21.860,265.200 21.200 C 264.583 20.540,263.831 20.000,263.528 20.000 C 263.225 20.000,262.717 19.640,262.400 19.200 C 262.083 18.760,261.543 18.400,261.200 18.400 C 260.857 18.400,260.317 18.040,260.000 17.600 C 259.683 17.160,259.227 16.800,258.987 16.800 C 258.747 16.800,258.202 16.475,257.775 16.078 C 257.349 15.680,256.415 15.097,255.700 14.780 C 254.985 14.464,254.400 14.069,254.400 13.902 C 254.400 13.736,254.040 13.600,253.600 13.600 C 253.160 13.600,252.800 13.438,252.800 13.239 C 252.800 12.727,244.830 8.917,243.068 8.586 C 242.260 8.435,241.600 8.151,241.600 7.955 C 241.600 7.760,241.240 7.600,240.800 7.600 C 240.360 7.600,240.000 7.420,240.000 7.200 C 240.000 6.980,239.550 6.800,239.000 6.800 C 238.450 6.800,238.000 6.620,238.000 6.400 C 238.000 6.180,237.460 6.000,236.800 6.000 C 236.140 6.000,235.600 5.820,235.600 5.600 C 235.600 5.380,235.060 5.200,234.400 5.200 C 233.740 5.200,233.200 5.020,233.200 4.800 C 233.200 4.580,232.660 4.400,232.000 4.400 C 231.340 4.400,230.800 4.220,230.800 4.000 C 230.800 3.780,230.260 3.600,229.600 3.600 C 228.940 3.600,228.400 3.420,228.400 3.200 C 228.400 2.980,227.680 2.800,226.800 2.800 C 225.920 2.800,225.200 2.620,225.200 2.400 C 225.200 2.180,224.491 2.000,223.624 2.000 C 222.757 2.000,221.936 1.820,221.800 1.600 C 221.664 1.380,220.678 1.200,219.610 1.200 C 218.427 1.200,217.602 1.007,217.503 0.708 C 217.339 0.217,191.638 -0.121,184.500 0.275 M212.200 18.421 C 251.364 26.004,279.680 51.332,287.975 86.200 C 288.236 87.300,288.611 88.830,288.807 89.600 C 289.003 90.370,289.346 92.170,289.568 93.600 C 289.791 95.030,290.204 97.550,290.487 99.200 C 291.284 103.858,291.236 293.111,290.437 296.800 C 288.963 303.601,286.673 306.410,281.505 307.756 C 278.026 308.662,121.120 308.780,117.956 307.879 C 111.869 306.145,109.315 302.101,108.378 292.712 C 107.613 285.046,108.107 104.308,108.908 99.200 C 109.796 93.526,110.741 88.655,111.467 86.000 C 111.798 84.790,112.211 83.260,112.385 82.600 C 113.377 78.828,115.488 73.523,118.194 68.000 C 128.637 46.696,148.481 29.859,172.409 22.002 C 178.437 20.023,186.608 18.284,192.000 17.833 C 195.469 17.543,209.823 17.961,212.200 18.421 M139.794 202.130 C 134.590 204.156,134.200 205.403,134.200 220.000 C 134.200 233.595,134.221 233.756,136.310 236.073 C 140.673 240.911,147.755 239.929,150.663 234.083 C 151.784 231.828,151.784 208.972,150.663 206.717 C 148.612 202.594,143.810 200.567,139.794 202.130 M254.594 202.130 C 249.360 204.168,249.000 205.344,249.000 220.431 L 249.000 233.063 250.202 235.031 C 253.447 240.346,261.159 240.543,264.642 235.400 C 266.191 233.113,266.400 231.332,266.400 220.400 C 266.400 209.468,266.191 207.687,264.642 205.400 C 262.467 202.189,258.096 200.767,254.594 202.130 M173.815 236.823 C 167.860 239.793,166.999 248.876,171.732 258.800 C 182.980 282.386,220.062 282.760,231.152 259.400 C 232.678 256.185,232.761 255.955,233.593 252.600 C 235.677 244.206,234.080 238.697,228.942 236.550 C 226.525 235.540,175.884 235.790,173.815 236.823 M222.725 343.000 C 222.812 354.647,222.705 360.659,222.376 362.600 C 218.326 386.531,186.453 389.351,177.906 366.534 C 177.060 364.275,177.027 363.584,176.891 345.097 L 176.751 325.993 199.675 326.097 L 222.600 326.200 222.725 343.000 " stroke="none" fill="#141414" fill-rule="evenodd"></path><path id="path1" d="M188.800 18.823 C 187.810 19.025,185.830 19.394,184.400 19.644 C 180.301 20.359,173.062 22.223,170.600 23.198 C 166.571 24.792,165.418 25.200,164.947 25.200 C 164.646 25.200,164.400 25.380,164.400 25.600 C 164.400 25.820,164.175 25.999,163.900 25.997 C 163.267 25.993,156.646 29.288,156.467 29.696 C 156.393 29.863,155.988 30.000,155.567 30.000 C 155.145 30.000,154.800 30.180,154.800 30.400 C 154.800 30.620,154.607 30.800,154.372 30.800 C 154.137 30.800,153.189 31.295,152.265 31.900 C 151.342 32.505,150.293 33.180,149.934 33.400 C 144.035 37.018,133.629 46.317,129.180 51.947 C 128.421 52.908,127.575 53.930,127.300 54.218 C 127.025 54.507,126.800 54.936,126.800 55.171 C 126.800 55.407,126.662 55.600,126.494 55.600 C 126.326 55.600,125.744 56.320,125.200 57.200 C 124.656 58.080,124.074 58.800,123.906 58.800 C 123.738 58.800,123.600 58.965,123.600 59.167 C 123.600 59.369,122.768 60.942,121.751 62.662 C 120.733 64.383,119.187 67.322,118.315 69.195 C 117.442 71.068,116.384 73.292,115.964 74.138 C 115.544 74.984,115.200 75.983,115.200 76.358 C 115.200 76.733,115.051 77.211,114.870 77.420 C 114.688 77.629,114.310 78.610,114.031 79.600 C 113.751 80.590,113.360 81.713,113.161 82.095 C 112.962 82.477,112.800 83.141,112.800 83.571 C 112.800 84.001,112.620 84.464,112.400 84.600 C 112.180 84.736,112.000 85.456,112.000 86.200 C 112.000 86.944,111.820 87.664,111.600 87.800 C 111.380 87.936,111.200 88.746,111.200 89.600 C 111.200 90.454,111.020 91.264,110.800 91.400 C 110.580 91.536,110.400 92.501,110.400 93.544 C 110.400 94.587,110.234 95.611,110.031 95.820 C 109.059 96.822,108.234 294.394,109.198 295.358 C 109.419 295.579,109.600 296.433,109.600 297.256 C 109.600 298.079,109.780 298.864,110.000 299.000 C 110.220 299.136,110.400 299.599,110.400 300.029 C 110.400 300.898,111.040 302.150,112.100 303.355 C 112.485 303.793,112.800 304.273,112.800 304.422 C 112.800 304.906,115.960 306.800,116.768 306.800 C 117.200 306.800,117.648 306.954,117.764 307.141 C 118.442 308.239,127.283 308.345,186.800 307.966 L 222.599 307.737 222.861 305.969 C 224.374 295.745,230.560 291.088,243.578 290.372 C 254.925 289.749,256.759 288.914,260.212 282.800 C 264.725 274.808,266.776 261.662,267.576 235.586 C 267.805 228.135,268.116 223.334,268.420 222.586 C 271.833 214.174,276.925 210.600,285.500 210.600 L 290.400 210.600 290.400 155.724 C 290.400 119.571,290.264 100.763,290.000 100.600 C 289.780 100.464,289.600 99.204,289.600 97.800 C 289.600 96.396,289.420 95.136,289.200 95.000 C 288.980 94.864,288.800 93.874,288.800 92.800 C 288.800 91.726,288.639 90.748,288.442 90.626 C 288.245 90.505,287.982 89.729,287.858 88.903 C 287.328 85.393,287.092 84.380,286.756 84.173 C 286.560 84.052,286.400 83.434,286.400 82.800 C 286.400 82.166,286.220 81.536,286.000 81.400 C 285.780 81.264,285.600 80.801,285.600 80.371 C 285.600 79.941,285.434 79.277,285.231 78.895 C 285.028 78.513,284.276 76.670,283.560 74.800 C 282.843 72.930,281.280 69.510,280.086 67.200 C 278.891 64.890,277.708 62.596,277.457 62.103 C 277.206 61.610,276.865 61.205,276.700 61.203 C 276.535 61.201,276.400 61.007,276.400 60.772 C 276.400 60.370,274.142 56.835,273.607 56.400 C 273.472 56.290,272.923 55.570,272.386 54.800 C 269.716 50.966,261.613 42.407,258.000 39.604 C 257.010 38.835,256.020 38.058,255.800 37.876 C 254.675 36.943,248.066 32.365,247.200 31.918 C 246.650 31.634,246.110 31.311,246.000 31.201 C 245.890 31.090,244.990 30.571,244.000 30.046 C 243.010 29.522,241.237 28.577,240.059 27.946 C 238.882 27.316,237.667 26.800,237.359 26.800 C 237.052 26.800,236.800 26.620,236.800 26.400 C 236.800 26.180,236.528 26.000,236.195 26.000 C 235.862 26.000,235.277 25.841,234.895 25.647 C 234.124 25.255,231.759 24.278,229.100 23.253 C 227.492 22.634,222.612 21.217,220.581 20.780 C 217.712 20.163,215.303 19.661,212.800 19.159 C 210.006 18.598,191.193 18.335,188.800 18.823 M162.504 34.780 C 166.572 37.360,167.944 42.833,165.488 46.680 C 164.610 48.055,160.242 51.600,159.426 51.600 C 155.950 51.600,136.000 75.651,136.000 79.842 C 136.000 79.933,135.660 80.772,135.244 81.704 C 132.339 88.222,130.423 95.881,130.407 101.036 C 130.376 111.481,119.715 115.742,113.985 107.600 C 112.737 105.826,112.611 96.488,113.760 91.000 C 115.220 84.030,116.461 79.608,117.800 76.600 C 118.094 75.940,118.651 74.590,119.037 73.600 C 123.311 62.659,134.071 48.563,143.800 41.163 C 153.738 33.604,158.232 32.071,162.504 34.780 M147.058 202.032 C 148.955 203.098,150.688 204.957,151.422 206.715 C 152.281 208.769,152.266 232.098,151.405 234.051 C 147.755 242.331,136.415 241.404,133.706 232.604 C 133.013 230.353,133.020 210.442,133.715 208.120 C 135.449 202.324,142.141 199.271,147.058 202.032 M261.814 202.008 C 266.534 204.659,266.800 205.653,266.800 220.652 C 266.800 228.554,266.653 233.244,266.400 233.400 C 266.180 233.536,266.000 233.905,266.000 234.219 C 266.000 237.132,259.648 240.462,255.756 239.590 C 249.259 238.134,248.014 235.060,248.006 220.446 C 247.998 206.343,248.437 204.926,253.802 201.724 C 255.177 200.903,260.161 201.080,261.814 202.008 M229.600 236.011 C 234.265 238.823,235.017 240.298,234.947 246.504 C 234.918 249.092,234.713 251.702,234.493 252.304 C 234.273 252.907,233.855 254.210,233.564 255.200 C 232.891 257.494,230.295 262.671,229.109 264.085 C 228.609 264.681,227.611 265.889,226.892 266.768 C 226.172 267.647,224.552 269.157,223.292 270.123 C 221.329 271.627,220.008 272.391,215.105 274.851 C 214.723 275.043,214.059 275.200,213.629 275.200 C 213.199 275.200,212.736 275.380,212.600 275.600 C 212.464 275.820,211.859 276.000,211.256 276.000 C 210.653 276.000,209.989 276.160,209.780 276.357 C 208.540 277.520,194.660 277.520,193.420 276.357 C 193.211 276.160,192.547 276.000,191.944 276.000 C 191.341 276.000,190.736 275.820,190.600 275.600 C 190.464 275.380,190.001 275.200,189.571 275.200 C 189.141 275.200,188.477 275.041,188.095 274.847 C 187.713 274.652,186.860 274.254,186.200 273.962 C 181.463 271.863,173.240 264.630,173.207 262.533 C 173.203 262.277,173.065 262.007,172.900 261.933 C 172.468 261.741,170.800 258.428,170.800 257.762 C 170.800 257.453,170.659 257.200,170.487 257.200 C 170.315 257.200,169.946 256.345,169.665 255.300 C 169.385 254.255,168.966 252.752,168.734 251.959 C 166.318 243.725,169.760 236.125,176.200 235.473 C 181.295 234.957,228.642 235.434,229.600 236.011 " stroke="none" fill="#93e3d3" fill-rule="evenodd"></path><path id="path2" d="M176.891 345.097 C 177.027 363.584,177.060 364.275,177.906 366.534 C 186.453 389.351,218.326 386.531,222.376 362.600 C 222.705 360.659,222.812 354.647,222.725 343.000 L 222.600 326.200 199.675 326.097 L 176.751 325.993 176.891 345.097 " stroke="none" fill="#f7d153" fill-rule="evenodd"></path><path id="path3" d="M153.430 34.841 C 139.750 41.908,124.862 58.685,119.037 73.600 C 118.651 74.590,118.094 75.940,117.800 76.600 C 116.971 78.463,115.732 82.338,115.050 85.200 C 111.951 98.211,112.137 106.653,115.585 109.509 C 122.162 114.955,130.379 110.258,130.407 101.036 C 130.423 95.881,132.339 88.222,135.244 81.704 C 135.660 80.772,136.000 79.933,136.000 79.842 C 136.000 75.651,155.950 51.600,159.426 51.600 C 159.546 51.600,160.717 50.871,162.030 49.980 C 172.084 43.152,164.202 29.277,153.430 34.841 " stroke="none" fill="#fbf2d1" fill-rule="evenodd"></path><path id="path4" d="M192.000 17.833 C 173.788 19.357,153.879 28.037,139.225 40.843 C 128.430 50.277,121.147 60.536,115.048 74.900 C 114.346 76.552,112.797 81.032,112.385 82.600 C 112.211 83.260,111.798 84.790,111.467 86.000 C 110.741 88.655,109.796 93.526,108.908 99.200 C 108.107 104.308,107.613 285.046,108.378 292.712 C 109.315 302.101,111.869 306.145,117.956 307.879 C 121.120 308.780,278.026 308.662,281.505 307.756 C 286.673 306.410,288.963 303.601,290.437 296.800 C 291.236 293.111,291.284 103.858,290.487 99.200 C 290.204 97.550,289.791 95.030,289.568 93.600 C 289.346 92.170,289.003 90.370,288.807 89.600 C 288.611 88.830,288.236 87.300,287.975 86.200 C 282.549 63.391,266.671 42.505,245.400 30.198 C 239.986 27.065,229.935 22.602,229.049 22.937 C 228.802 23.031,228.960 23.234,229.400 23.390 C 229.840 23.545,230.650 23.860,231.200 24.090 C 231.750 24.319,232.650 24.684,233.200 24.900 C 233.750 25.116,234.513 25.452,234.895 25.647 C 235.277 25.841,235.862 26.000,236.195 26.000 C 236.528 26.000,236.800 26.180,236.800 26.400 C 236.800 26.620,237.052 26.800,237.359 26.800 C 237.667 26.800,238.882 27.316,240.059 27.946 C 241.237 28.577,243.010 29.522,244.000 30.046 C 244.990 30.571,245.890 31.090,246.000 31.201 C 246.110 31.311,246.650 31.634,247.200 31.918 C 248.066 32.365,254.675 36.943,255.800 37.876 C 256.020 38.058,257.010 38.835,258.000 39.604 C 261.613 42.407,269.716 50.966,272.386 54.800 C 272.923 55.570,273.472 56.290,273.607 56.400 C 274.142 56.835,276.400 60.370,276.400 60.772 C 276.400 61.007,276.535 61.201,276.700 61.203 C 276.865 61.205,277.206 61.610,277.457 62.103 C 277.708 62.596,278.891 64.890,280.086 67.200 C 281.280 69.510,282.843 72.930,283.560 74.800 C 284.276 76.670,285.028 78.513,285.231 78.895 C 285.434 79.277,285.600 79.941,285.600 80.371 C 285.600 80.801,285.780 81.264,286.000 81.400 C 286.220 81.536,286.400 82.166,286.400 82.800 C 286.400 83.434,286.560 84.052,286.756 84.173 C 287.092 84.380,287.328 85.393,287.858 88.903 C 287.982 89.729,288.245 90.505,288.442 90.626 C 288.639 90.748,288.800 91.726,288.800 92.800 C 288.800 93.874,288.980 94.864,289.200 95.000 C 289.420 95.136,289.600 96.396,289.600 97.800 C 289.600 99.204,289.780 100.464,290.000 100.600 C 290.264 100.763,290.400 119.571,290.400 155.724 L 290.400 210.600 285.500 210.600 C 276.925 210.600,271.833 214.174,268.420 222.586 C 268.116 223.334,267.805 228.135,267.576 235.586 C 266.776 261.662,264.725 274.808,260.212 282.800 C 256.759 288.914,254.925 289.749,243.578 290.372 C 230.560 291.088,224.374 295.745,222.861 305.969 L 222.599 307.737 186.800 307.966 C 127.283 308.345,118.442 308.239,117.764 307.141 C 117.648 306.954,117.200 306.800,116.768 306.800 C 115.960 306.800,112.800 304.906,112.800 304.422 C 112.800 304.273,112.485 303.793,112.100 303.355 C 111.040 302.150,110.400 300.898,110.400 300.029 C 110.400 299.599,110.220 299.136,110.000 299.000 C 109.780 298.864,109.600 298.079,109.600 297.256 C 109.600 296.433,109.419 295.579,109.198 295.358 C 108.234 294.394,109.059 96.822,110.031 95.820 C 110.234 95.611,110.400 94.587,110.400 93.544 C 110.400 92.501,110.580 91.536,110.800 91.400 C 111.020 91.264,111.200 90.454,111.200 89.600 C 111.200 88.746,111.380 87.936,111.600 87.800 C 111.820 87.664,112.000 86.944,112.000 86.200 C 112.000 85.456,112.180 84.736,112.400 84.600 C 112.620 84.464,112.800 84.001,112.800 83.571 C 112.800 83.141,112.962 82.477,113.161 82.095 C 113.360 81.713,113.751 80.590,114.031 79.600 C 114.310 78.610,114.688 77.629,114.870 77.420 C 115.051 77.211,115.200 76.733,115.200 76.358 C 115.200 75.983,115.544 74.984,115.964 74.138 C 116.384 73.292,117.442 71.068,118.315 69.195 C 119.187 67.322,120.733 64.383,121.751 62.662 C 122.768 60.942,123.600 59.369,123.600 59.167 C 123.600 58.965,123.738 58.800,123.906 58.800 C 124.074 58.800,124.656 58.080,125.200 57.200 C 125.744 56.320,126.326 55.600,126.494 55.600 C 126.662 55.600,126.800 55.407,126.800 55.171 C 126.800 54.936,127.025 54.507,127.300 54.218 C 127.575 53.930,128.421 52.908,129.180 51.947 C 133.629 46.317,144.035 37.018,149.934 33.400 C 150.293 33.180,151.342 32.505,152.265 31.900 C 153.189 31.295,154.137 30.800,154.372 30.800 C 154.607 30.800,154.800 30.620,154.800 30.400 C 154.800 30.180,155.145 30.000,155.567 30.000 C 155.988 30.000,156.393 29.863,156.467 29.696 C 156.646 29.288,163.267 25.993,163.900 25.997 C 164.175 25.999,164.400 25.820,164.400 25.600 C 164.400 25.380,164.646 25.200,164.947 25.200 C 165.418 25.200,166.571 24.792,170.600 23.198 C 173.115 22.202,180.304 20.359,184.600 19.608 C 186.140 19.338,188.264 18.957,189.320 18.759 C 191.972 18.263,207.739 18.307,210.633 18.818 C 217.394 20.013,218.661 20.290,223.400 21.614 C 227.707 22.817,229.054 23.012,227.221 22.168 C 225.871 21.546,216.950 19.316,212.200 18.413 C 209.812 17.958,195.433 17.546,192.000 17.833 M138.227 202.135 C 136.384 203.148,134.425 205.746,133.715 208.120 C 133.020 210.442,133.013 230.353,133.706 232.604 C 136.415 241.404,147.755 242.331,151.405 234.051 C 152.266 232.098,152.281 208.769,151.422 206.715 C 149.403 201.881,142.836 199.602,138.227 202.135 M253.802 201.724 C 248.437 204.926,247.998 206.343,248.006 220.446 C 248.014 235.060,249.259 238.134,255.756 239.590 C 259.648 240.462,266.000 237.132,266.000 234.219 C 266.000 233.905,266.180 233.536,266.400 233.400 C 267.295 232.847,266.900 208.358,265.965 206.422 C 263.851 202.048,257.421 199.563,253.802 201.724 M146.200 202.352 C 151.054 204.578,151.400 205.780,151.400 220.400 C 151.400 233.767,151.343 234.132,148.863 236.640 C 144.562 240.988,136.107 239.027,134.510 233.310 C 133.635 230.178,134.163 207.864,135.154 206.136 C 137.405 202.207,142.260 200.544,146.200 202.352 M261.000 202.387 C 265.859 204.723,266.400 206.528,266.400 220.400 C 266.400 231.332,266.191 233.113,264.642 235.400 C 261.159 240.543,253.447 240.346,250.202 235.031 L 249.000 233.063 249.000 220.431 C 249.000 207.854,249.004 207.793,249.954 206.136 C 252.216 202.187,257.122 200.522,261.000 202.387 M176.200 235.473 C 169.760 236.125,166.318 243.725,168.734 251.959 C 168.966 252.752,169.385 254.255,169.665 255.300 C 169.946 256.345,170.315 257.200,170.487 257.200 C 170.659 257.200,170.800 257.453,170.800 257.762 C 170.800 258.428,172.468 261.741,172.900 261.933 C 173.065 262.007,173.203 262.277,173.207 262.533 C 173.240 264.630,181.463 271.863,186.200 273.962 C 186.860 274.254,187.713 274.652,188.095 274.847 C 188.477 275.041,189.141 275.200,189.571 275.200 C 190.001 275.200,190.464 275.380,190.600 275.600 C 190.736 275.820,191.341 276.000,191.944 276.000 C 192.547 276.000,193.211 276.160,193.420 276.357 C 194.660 277.520,208.540 277.520,209.780 276.357 C 209.989 276.160,210.653 276.000,211.256 276.000 C 211.859 276.000,212.464 275.820,212.600 275.600 C 212.736 275.380,213.199 275.200,213.629 275.200 C 214.059 275.200,214.723 275.043,215.105 274.851 C 220.008 272.391,221.329 271.627,223.292 270.123 C 224.552 269.157,226.172 267.647,226.892 266.768 C 227.611 265.889,228.609 264.681,229.109 264.085 C 230.295 262.671,232.891 257.494,233.564 255.200 C 233.855 254.210,234.273 252.907,234.493 252.304 C 234.713 251.702,234.918 249.092,234.947 246.504 C 235.017 240.298,234.265 238.823,229.600 236.011 C 228.642 235.434,181.295 234.957,176.200 235.473 M228.942 236.550 C 234.080 238.697,235.677 244.206,233.593 252.600 C 232.761 255.955,232.678 256.185,231.152 259.400 C 220.062 282.760,182.980 282.386,171.732 258.800 C 166.999 248.876,167.860 239.793,173.815 236.823 C 175.884 235.790,226.525 235.540,228.942 236.550 " stroke="none" fill="#6bd2c2" fill-rule="evenodd"></path></g></svg>