<svg id="svg" version="1.1" xmlns="http://www.w3.org/2000/svg" xmlns:xlink="http://www.w3.org/1999/xlink" width="400" height="400" viewBox="0, 0, 400,400"><g id="svgg"><path id="path0" d="M145.700 0.266 C 144.765 0.365,144.000 0.616,144.000 0.823 C 144.000 1.030,143.561 1.200,143.024 1.200 C 142.487 1.200,141.936 1.380,141.800 1.600 C 141.664 1.820,141.113 2.000,140.576 2.000 C 140.039 2.000,139.600 2.180,139.600 2.400 C 139.600 2.620,139.060 2.800,138.400 2.800 C 137.740 2.800,137.200 2.980,137.200 3.200 C 137.200 3.420,136.964 3.600,136.675 3.600 C 136.387 3.600,135.764 3.960,135.292 4.400 C 134.820 4.840,134.156 5.200,133.817 5.200 C 133.478 5.200,133.200 5.380,133.200 5.600 C 133.200 5.820,132.912 6.000,132.560 6.000 C 132.209 6.000,131.417 6.540,130.800 7.200 C 130.183 7.860,129.470 8.400,129.215 8.400 C 128.567 8.400,122.400 14.632,122.400 15.287 C 122.400 15.582,122.040 16.083,121.600 16.400 C 121.160 16.717,120.800 17.257,120.800 17.600 C 120.800 17.943,120.440 18.483,120.000 18.800 C 119.560 19.117,119.200 19.697,119.200 20.088 C 119.200 20.480,119.020 20.800,118.800 20.800 C 118.580 20.800,118.400 21.160,118.400 21.600 C 118.400 22.040,118.220 22.400,118.000 22.400 C 117.780 22.400,117.600 22.760,117.600 23.200 C 117.600 23.640,117.420 24.000,117.200 24.000 C 116.980 24.000,116.800 24.360,116.800 24.800 C 116.800 25.240,116.620 25.600,116.400 25.600 C 116.180 25.600,116.000 26.050,116.000 26.600 C 116.000 27.150,115.820 27.600,115.600 27.600 C 115.380 27.600,115.200 28.140,115.200 28.800 C 115.200 29.460,115.020 30.000,114.800 30.000 C 114.580 30.000,114.400 30.349,114.400 30.776 C 114.400 31.203,114.220 31.664,114.000 31.800 C 113.780 31.936,113.600 32.476,113.600 33.000 C 113.600 33.524,113.420 34.064,113.200 34.200 C 112.980 34.336,112.800 34.887,112.800 35.424 C 112.800 35.961,112.620 36.400,112.400 36.400 C 112.180 36.400,112.000 36.940,112.000 37.600 C 112.000 38.260,111.820 38.800,111.600 38.800 C 111.380 38.800,111.200 39.325,111.200 39.967 C 111.200 40.608,111.065 41.193,110.900 41.267 C 110.477 41.455,108.400 47.640,108.400 48.712 C 108.400 49.200,108.220 49.600,108.000 49.600 C 107.780 49.600,107.600 50.140,107.600 50.800 C 107.600 51.460,107.420 52.000,107.200 52.000 C 106.980 52.000,106.800 52.540,106.800 53.200 C 106.800 53.860,106.620 54.400,106.400 54.400 C 106.180 54.400,106.000 54.940,106.000 55.600 C 106.000 56.260,105.820 56.800,105.600 56.800 C 105.380 56.800,105.200 57.419,105.200 58.176 C 105.200 58.933,105.020 59.664,104.800 59.800 C 104.580 59.936,104.400 61.387,104.400 63.024 C 104.400 64.741,104.231 66.000,104.000 66.000 C 103.419 66.000,103.483 71.494,104.066 71.689 C 104.421 71.807,104.421 72.163,104.066 73.182 C 103.459 74.923,103.396 120.227,104.000 120.600 C 104.220 120.736,104.400 121.827,104.400 123.024 C 104.400 124.221,104.580 125.200,104.800 125.200 C 105.020 125.200,105.200 125.740,105.200 126.400 C 105.200 127.060,105.380 127.600,105.600 127.600 C 105.820 127.600,106.000 127.960,106.000 128.400 C 106.000 128.840,106.180 129.200,106.400 129.200 C 106.620 129.200,106.800 129.560,106.800 130.000 C 106.800 130.440,106.980 130.800,107.200 130.800 C 107.420 130.800,107.600 131.069,107.600 131.397 C 107.600 132.456,112.840 138.000,113.841 138.000 C 114.148 138.000,114.400 138.180,114.400 138.400 C 114.400 138.620,114.760 138.800,115.200 138.800 C 115.640 138.800,116.001 138.935,116.003 139.100 C 116.008 139.531,118.010 140.400,119.000 140.400 C 119.462 140.400,120.062 140.622,120.334 140.894 C 121.030 141.590,132.970 141.590,133.666 140.894 C 133.938 140.622,134.563 140.400,135.056 140.400 C 135.549 140.400,136.064 140.220,136.200 140.000 C 136.336 139.780,136.797 139.600,137.224 139.600 C 137.651 139.600,138.000 139.420,138.000 139.200 C 138.000 138.980,138.177 138.800,138.393 138.800 C 139.108 138.800,142.313 136.217,142.858 135.200 C 143.153 134.650,143.711 133.909,144.097 133.553 C 144.484 133.197,144.800 132.612,144.800 132.253 C 144.800 131.894,144.980 131.600,145.200 131.600 C 145.420 131.600,145.600 131.240,145.600 130.800 C 145.600 130.360,145.735 129.999,145.900 129.997 C 146.347 129.992,147.200 127.974,147.200 126.920 C 147.200 126.414,147.380 126.000,147.600 126.000 C 147.820 126.000,148.000 125.460,148.000 124.800 C 148.000 124.140,148.180 123.600,148.400 123.600 C 148.631 123.600,148.800 122.333,148.800 120.600 C 148.800 117.643,149.944 116.291,151.000 118.000 C 151.136 118.220,151.777 118.400,152.424 118.400 C 153.071 118.400,153.600 118.580,153.600 118.800 C 153.600 119.020,154.129 119.200,154.776 119.200 C 155.423 119.200,156.064 119.380,156.200 119.600 C 156.336 119.820,157.146 120.000,158.000 120.000 C 158.854 120.000,159.664 120.180,159.800 120.400 C 159.936 120.620,160.847 120.800,161.824 120.800 C 162.801 120.800,163.600 120.980,163.600 121.200 C 163.600 121.429,164.800 121.600,166.400 121.600 C 168.000 121.600,169.200 121.771,169.200 122.000 C 169.200 122.254,172.259 122.400,177.576 122.400 C 182.729 122.400,186.048 122.246,186.200 122.000 C 186.336 121.780,187.056 121.600,187.800 121.600 C 188.544 121.600,189.264 121.420,189.400 121.200 C 189.536 120.980,190.267 120.800,191.024 120.800 C 191.781 120.800,192.400 120.620,192.400 120.400 C 192.400 120.180,192.839 120.000,193.376 120.000 C 193.913 120.000,194.464 119.820,194.600 119.600 C 194.736 119.380,195.197 119.200,195.624 119.200 C 196.051 119.200,196.400 119.020,196.400 118.800 C 196.400 118.580,196.634 118.400,196.920 118.400 C 197.656 118.400,199.593 117.459,199.597 117.100 C 199.599 116.935,199.960 116.800,200.400 116.800 C 200.840 116.800,201.200 116.650,201.200 116.468 C 201.200 116.285,201.695 115.881,202.300 115.570 C 202.905 115.260,203.691 114.689,204.047 114.303 C 204.403 113.916,204.806 113.600,204.942 113.600 C 205.263 113.600,206.671 112.448,207.752 111.300 C 208.218 110.804,209.545 109.421,210.700 108.226 C 211.855 107.030,212.800 105.860,212.800 105.626 C 212.800 105.392,212.980 105.200,213.200 105.200 C 213.420 105.200,213.600 104.930,213.600 104.600 C 213.600 104.270,213.780 104.000,214.000 104.000 C 214.220 104.000,214.400 103.730,214.400 103.400 C 214.400 103.070,214.580 102.800,214.800 102.800 C 215.020 102.800,215.204 102.575,215.209 102.300 C 215.214 102.025,215.570 101.350,216.000 100.800 C 216.430 100.250,216.787 99.170,216.794 98.400 C 216.800 97.630,217.060 96.511,217.371 95.914 C 217.683 95.317,218.324 93.697,218.795 92.314 C 219.267 90.931,219.809 89.440,220.000 89.000 C 220.191 88.560,220.731 87.030,221.200 85.600 C 221.669 84.170,222.203 82.640,222.386 82.200 C 222.569 81.760,222.905 80.860,223.131 80.200 C 224.281 76.850,226.108 71.668,226.495 70.656 C 227.028 69.266,227.878 69.309,237.800 71.218 C 239.120 71.472,241.010 71.824,242.000 72.000 C 244.310 72.410,247.760 73.099,249.800 73.557 C 250.680 73.755,253.920 74.470,257.000 75.146 C 264.933 76.888,269.874 78.085,278.800 80.423 C 289.283 83.169,292.377 83.990,293.800 84.405 C 294.460 84.597,295.720 84.955,296.600 85.200 C 297.480 85.445,298.785 85.815,299.500 86.023 C 300.215 86.230,301.475 86.590,302.300 86.823 C 303.125 87.055,304.340 87.405,305.000 87.600 C 306.476 88.036,308.546 88.629,310.400 89.144 C 311.170 89.359,312.970 89.892,314.400 90.328 C 315.830 90.765,320.870 92.299,325.600 93.737 C 330.330 95.175,336.630 97.101,339.600 98.018 C 342.570 98.935,345.540 99.825,346.200 99.996 C 347.487 100.330,348.522 100.677,349.800 101.201 C 350.240 101.381,352.400 102.110,354.600 102.820 C 356.800 103.530,360.040 104.609,361.800 105.217 C 363.560 105.825,366.260 106.725,367.800 107.217 C 376.714 110.064,382.109 115.440,384.844 124.200 C 385.513 126.345,385.476 132.873,384.779 135.600 C 381.224 149.503,366.302 156.703,352.535 151.158 C 350.702 150.419,349.925 150.123,347.600 149.279 C 341.024 146.890,320.963 139.077,319.039 138.156 C 318.400 137.850,317.716 137.600,317.519 137.600 C 317.322 137.600,316.416 137.240,315.506 136.800 C 314.595 136.360,313.702 136.000,313.521 136.000 C 313.191 136.000,310.010 134.657,308.705 133.967 C 308.323 133.765,307.833 133.600,307.615 133.600 C 307.398 133.600,306.041 133.060,304.600 132.400 C 303.159 131.740,301.900 131.200,301.802 131.200 C 301.704 131.200,300.673 130.768,299.512 130.239 C 298.350 129.711,291.640 126.812,284.600 123.798 C 269.123 117.170,269.869 117.500,260.800 113.291 C 259.590 112.730,253.342 109.706,246.916 106.571 C 231.351 98.980,231.541 99.024,228.137 102.233 C 227.340 102.985,226.533 103.600,226.344 103.600 C 225.810 103.600,225.939 108.304,226.500 109.283 C 227.292 110.665,228.708 112.000,229.382 112.000 C 229.722 112.000,230.000 112.180,230.000 112.400 C 230.000 112.620,230.360 112.800,230.800 112.800 C 231.240 112.800,231.600 112.980,231.600 113.200 C 231.600 113.420,231.960 113.600,232.400 113.600 C 232.840 113.600,233.200 113.780,233.200 114.000 C 233.200 114.220,233.560 114.400,234.000 114.400 C 234.440 114.400,234.800 114.580,234.800 114.800 C 234.800 115.020,235.160 115.200,235.600 115.200 C 236.040 115.200,236.400 115.380,236.400 115.600 C 236.400 115.820,236.760 116.000,237.200 116.000 C 237.640 116.000,238.000 116.180,238.000 116.400 C 238.000 116.620,238.360 116.800,238.800 116.800 C 239.240 116.800,239.600 116.980,239.600 117.200 C 239.600 117.420,239.960 117.600,240.400 117.600 C 240.840 117.600,241.201 117.735,241.201 117.900 C 241.202 118.065,242.192 118.650,243.400 119.200 C 244.608 119.750,245.598 120.335,245.599 120.500 C 245.599 120.665,245.830 120.800,246.110 120.800 C 246.391 120.800,247.696 121.334,249.010 121.987 C 250.325 122.641,251.715 123.181,252.100 123.187 C 252.485 123.194,252.800 123.380,252.800 123.600 C 252.800 123.820,253.160 124.000,253.600 124.000 C 254.040 124.000,254.400 124.164,254.400 124.365 C 254.400 124.566,255.120 124.851,256.000 125.000 C 256.880 125.149,257.600 125.434,257.600 125.635 C 257.600 125.836,257.960 126.000,258.400 126.000 C 258.840 126.000,259.200 126.180,259.200 126.400 C 259.200 126.620,259.560 126.800,260.000 126.800 C 260.440 126.800,260.800 126.980,260.800 127.200 C 260.800 127.420,261.149 127.600,261.576 127.600 C 262.003 127.600,262.464 127.780,262.600 128.000 C 262.736 128.220,263.197 128.400,263.624 128.400 C 264.051 128.400,264.400 128.580,264.400 128.800 C 264.400 129.020,264.760 129.200,265.200 129.200 C 265.640 129.200,266.000 129.380,266.000 129.600 C 266.000 129.820,266.360 130.000,266.800 130.000 C 267.240 130.000,267.600 130.180,267.600 130.400 C 267.600 130.620,268.140 130.800,268.800 130.800 C 269.460 130.800,270.000 130.980,270.000 131.200 C 270.000 131.420,270.360 131.600,270.800 131.600 C 271.240 131.600,271.600 131.780,271.600 132.000 C 271.600 132.220,271.960 132.400,272.400 132.400 C 272.840 132.400,273.200 132.580,273.200 132.800 C 273.200 133.020,273.542 133.200,273.959 133.200 C 274.377 133.200,275.745 133.740,277.000 134.400 C 278.255 135.060,279.623 135.600,280.041 135.600 C 280.458 135.600,280.800 135.780,280.800 136.000 C 280.800 136.220,281.160 136.400,281.600 136.400 C 282.040 136.400,282.400 136.580,282.400 136.800 C 282.400 137.020,282.749 137.200,283.176 137.200 C 283.603 137.200,284.064 137.380,284.200 137.600 C 284.336 137.820,284.887 138.000,285.424 138.000 C 285.961 138.000,286.400 138.180,286.400 138.400 C 286.400 138.620,286.760 138.800,287.200 138.800 C 287.640 138.800,288.000 138.947,288.000 139.128 C 288.000 139.308,288.900 139.700,290.000 140.000 C 291.100 140.300,292.000 140.684,292.000 140.854 C 292.000 141.024,292.630 141.282,293.400 141.426 C 294.170 141.571,294.800 141.849,294.800 142.045 C 294.800 142.240,295.239 142.400,295.776 142.400 C 296.313 142.400,296.864 142.580,297.000 142.800 C 297.136 143.020,297.597 143.200,298.024 143.200 C 298.451 143.200,298.800 143.380,298.800 143.600 C 298.800 143.820,299.160 144.000,299.600 144.000 C 300.040 144.000,300.400 144.180,300.400 144.400 C 300.400 144.620,300.940 144.800,301.600 144.800 C 302.260 144.800,302.800 144.980,302.800 145.200 C 302.800 145.420,303.160 145.600,303.600 145.600 C 304.040 145.600,304.400 145.780,304.400 146.000 C 304.400 146.220,304.940 146.400,305.600 146.400 C 306.260 146.400,306.800 146.580,306.800 146.800 C 306.800 147.020,307.160 147.200,307.600 147.200 C 308.040 147.200,308.400 147.380,308.400 147.600 C 308.400 147.820,308.850 148.000,309.400 148.000 C 309.950 148.000,310.400 148.180,310.400 148.400 C 310.400 148.620,310.749 148.800,311.176 148.800 C 311.603 148.800,312.064 148.980,312.200 149.200 C 312.336 149.420,312.887 149.600,313.424 149.600 C 313.961 149.600,314.400 149.780,314.400 150.000 C 314.400 150.220,314.749 150.400,315.176 150.400 C 315.603 150.400,316.064 150.580,316.200 150.800 C 316.336 151.020,316.887 151.200,317.424 151.200 C 317.961 151.200,318.400 151.380,318.400 151.600 C 318.400 151.820,318.760 152.000,319.200 152.000 C 319.640 152.000,320.000 152.180,320.000 152.400 C 320.000 152.620,320.540 152.800,321.200 152.800 C 321.860 152.800,322.400 152.980,322.400 153.200 C 322.400 153.420,322.672 153.600,323.005 153.600 C 323.338 153.600,323.923 153.759,324.305 153.953 C 324.687 154.148,325.450 154.484,326.000 154.700 C 327.515 155.295,328.844 155.850,330.486 156.571 C 332.393 157.409,336.740 158.800,337.452 158.800 C 337.753 158.800,338.000 158.980,338.000 159.200 C 338.000 159.420,338.540 159.600,339.200 159.600 C 339.860 159.600,340.400 159.780,340.400 160.000 C 340.400 160.220,340.762 160.400,341.205 160.400 C 341.648 160.400,342.368 160.580,342.805 160.800 C 343.242 161.020,343.958 161.380,344.395 161.600 C 344.832 161.820,345.462 162.000,345.795 162.000 C 346.128 162.000,346.400 162.180,346.400 162.400 C 346.400 162.620,346.940 162.800,347.600 162.800 C 348.260 162.800,348.800 162.980,348.800 163.200 C 348.800 163.420,349.340 163.600,350.000 163.600 C 350.660 163.600,351.200 163.780,351.200 164.000 C 351.200 164.220,351.740 164.400,352.400 164.400 C 353.060 164.400,353.600 164.580,353.600 164.800 C 353.600 165.020,354.500 165.200,355.600 165.200 C 356.700 165.200,357.600 165.380,357.600 165.600 C 357.600 165.851,360.125 166.000,364.376 166.000 C 368.463 166.000,371.251 165.841,371.400 165.600 C 371.536 165.380,372.267 165.200,373.024 165.200 C 373.781 165.200,374.400 165.020,374.400 164.800 C 374.400 164.580,374.839 164.400,375.376 164.400 C 375.913 164.400,376.464 164.220,376.600 164.000 C 376.736 163.780,377.197 163.600,377.624 163.600 C 378.051 163.600,378.400 163.420,378.400 163.200 C 378.400 162.980,378.760 162.800,379.200 162.800 C 379.640 162.800,380.000 162.620,380.000 162.400 C 380.000 162.180,380.248 162.000,380.552 162.000 C 380.855 162.000,381.845 161.280,382.752 160.400 C 383.659 159.520,384.655 158.800,384.966 158.800 C 385.277 158.800,386.221 157.975,387.065 156.966 C 387.909 155.957,389.120 154.562,389.755 153.866 C 390.390 153.170,391.083 152.105,391.294 151.500 C 391.505 150.895,391.841 150.400,392.039 150.400 C 392.238 150.400,392.400 150.122,392.400 149.783 C 392.400 149.444,392.760 148.780,393.200 148.308 C 393.640 147.836,394.000 147.033,394.000 146.525 C 394.000 146.016,394.180 145.600,394.400 145.600 C 394.620 145.600,394.800 145.240,394.800 144.800 C 394.800 144.360,394.980 144.000,395.200 144.000 C 395.420 144.000,395.600 143.640,395.600 143.200 C 395.600 142.760,395.780 142.400,396.000 142.400 C 396.220 142.400,396.400 141.590,396.400 140.600 C 396.400 139.610,396.580 138.800,396.800 138.800 C 397.020 138.800,397.200 138.080,397.200 137.200 C 397.200 136.320,397.380 135.600,397.600 135.600 C 397.847 135.600,398.000 133.533,398.000 130.200 C 398.000 126.867,397.847 124.800,397.600 124.800 C 397.378 124.800,397.200 123.733,397.200 122.400 C 397.200 121.067,397.022 120.000,396.800 120.000 C 396.580 120.000,396.400 119.640,396.400 119.200 C 396.400 118.760,396.220 118.400,396.000 118.400 C 395.780 118.400,395.600 117.860,395.600 117.200 C 395.600 116.540,395.420 116.000,395.200 116.000 C 394.980 116.000,394.800 115.500,394.800 114.888 C 394.800 114.235,394.470 113.539,394.000 113.200 C 393.560 112.883,393.200 112.303,393.200 111.912 C 393.200 111.520,393.020 111.200,392.800 111.200 C 392.580 111.200,392.400 110.930,392.400 110.600 C 392.400 110.270,392.264 110.000,392.098 110.000 C 391.931 110.000,391.567 109.485,391.289 108.856 C 390.737 107.610,385.505 102.000,384.895 102.000 C 384.688 102.000,383.984 101.505,383.330 100.900 C 381.875 99.554,380.609 98.800,379.805 98.800 C 379.472 98.800,379.200 98.620,379.200 98.400 C 379.200 98.180,378.840 98.000,378.400 98.000 C 377.960 98.000,377.600 97.820,377.600 97.600 C 377.600 97.380,377.240 97.200,376.800 97.200 C 376.360 97.200,376.000 97.020,376.000 96.800 C 376.000 96.580,375.640 96.400,375.200 96.400 C 374.760 96.400,374.400 96.220,374.400 96.000 C 374.400 95.780,373.961 95.600,373.424 95.600 C 372.887 95.600,372.336 95.420,372.200 95.200 C 372.064 94.980,371.524 94.800,371.000 94.800 C 370.476 94.800,369.936 94.620,369.800 94.400 C 369.664 94.180,369.124 94.000,368.600 94.000 C 368.076 94.000,367.536 93.820,367.400 93.600 C 367.264 93.380,366.724 93.200,366.200 93.200 C 365.676 93.200,365.136 93.020,365.000 92.800 C 364.864 92.580,364.424 92.400,364.022 92.400 C 363.178 92.400,359.328 91.298,358.305 90.763 C 357.923 90.563,357.248 90.400,356.805 90.400 C 356.362 90.400,356.000 90.220,356.000 90.000 C 356.000 89.780,355.460 89.600,354.800 89.600 C 354.140 89.600,353.600 89.420,353.600 89.200 C 353.600 88.980,353.060 88.800,352.400 88.800 C 351.740 88.800,351.200 88.620,351.200 88.400 C 351.200 88.180,350.671 88.000,350.024 88.000 C 349.377 88.000,348.736 87.820,348.600 87.600 C 348.464 87.380,347.733 87.200,346.976 87.200 C 346.219 87.200,345.600 87.020,345.600 86.800 C 345.600 86.580,345.060 86.400,344.400 86.400 C 343.740 86.400,343.200 86.220,343.200 86.000 C 343.200 85.780,342.660 85.600,342.000 85.600 C 341.340 85.600,340.800 85.420,340.800 85.200 C 340.800 84.980,340.271 84.800,339.624 84.800 C 338.977 84.800,338.336 84.620,338.200 84.400 C 338.064 84.180,337.423 84.000,336.776 84.000 C 336.129 84.000,335.600 83.820,335.600 83.600 C 335.600 83.380,335.060 83.200,334.400 83.200 C 333.740 83.200,333.200 83.020,333.200 82.800 C 333.200 82.580,332.660 82.400,332.000 82.400 C 331.340 82.400,330.800 82.220,330.800 82.000 C 330.800 81.780,330.181 81.600,329.424 81.600 C 328.667 81.600,327.936 81.420,327.800 81.200 C 327.664 80.980,327.023 80.800,326.376 80.800 C 325.729 80.800,325.200 80.620,325.200 80.400 C 325.200 80.180,324.838 80.000,324.395 80.000 C 323.952 80.000,323.277 79.842,322.895 79.649 C 321.728 79.060,319.392 78.400,318.472 78.400 C 317.992 78.400,317.600 78.220,317.600 78.000 C 317.600 77.780,317.060 77.600,316.400 77.600 C 315.740 77.600,315.200 77.420,315.200 77.200 C 315.200 76.980,314.808 76.800,314.328 76.800 C 313.849 76.800,312.904 76.631,312.228 76.425 C 308.165 75.186,306.581 74.800,305.554 74.800 C 304.919 74.800,304.400 74.620,304.400 74.400 C 304.400 74.180,303.781 74.000,303.024 74.000 C 302.267 74.000,301.536 73.820,301.400 73.600 C 301.264 73.380,300.623 73.200,299.976 73.200 C 299.329 73.200,298.800 73.020,298.800 72.800 C 298.800 72.580,298.080 72.400,297.200 72.400 C 296.320 72.400,295.600 72.220,295.600 72.000 C 295.600 71.780,295.060 71.600,294.400 71.600 C 293.740 71.600,293.200 71.420,293.200 71.200 C 293.200 70.980,292.570 70.800,291.800 70.800 C 291.030 70.800,290.400 70.620,290.400 70.400 C 290.400 70.180,289.680 70.000,288.800 70.000 C 287.920 70.000,287.200 69.820,287.200 69.600 C 287.200 69.380,286.581 69.200,285.824 69.200 C 285.067 69.200,284.336 69.020,284.200 68.800 C 284.064 68.580,283.434 68.400,282.800 68.400 C 282.166 68.400,281.536 68.220,281.400 68.000 C 281.264 67.780,280.544 67.600,279.800 67.600 C 279.056 67.600,278.336 67.420,278.200 67.200 C 278.064 66.980,277.333 66.800,276.576 66.800 C 275.819 66.800,275.200 66.620,275.200 66.400 C 275.200 66.180,274.581 66.000,273.824 66.000 C 273.067 66.000,272.336 65.820,272.200 65.600 C 272.064 65.380,271.344 65.200,270.600 65.200 C 269.856 65.200,269.136 65.020,269.000 64.800 C 268.864 64.580,268.144 64.400,267.400 64.400 C 266.656 64.400,265.936 64.220,265.800 64.000 C 265.664 63.780,264.753 63.600,263.776 63.600 C 262.799 63.600,262.000 63.420,262.000 63.200 C 262.000 62.980,261.291 62.800,260.424 62.800 C 259.557 62.800,258.736 62.620,258.600 62.400 C 258.464 62.180,257.654 62.000,256.800 62.000 C 255.946 62.000,255.148 61.839,255.026 61.642 C 254.905 61.445,254.129 61.182,253.303 61.058 C 252.476 60.933,251.080 60.723,250.200 60.591 C 249.320 60.458,248.240 60.192,247.800 59.998 C 246.956 59.626,245.805 59.448,239.500 58.715 C 237.355 58.466,235.600 58.113,235.600 57.931 C 235.600 57.749,234.520 57.600,233.200 57.600 L 230.800 57.600 230.800 52.624 C 230.800 49.737,230.632 47.543,230.400 47.400 C 230.180 47.264,230.000 46.263,230.000 45.176 C 230.000 44.089,229.820 43.200,229.600 43.200 C 229.380 43.200,229.200 42.570,229.200 41.800 C 229.200 41.030,229.020 40.400,228.800 40.400 C 228.580 40.400,228.400 39.860,228.400 39.200 C 228.400 38.540,228.220 38.000,228.000 38.000 C 227.780 38.000,227.600 37.460,227.600 36.800 C 227.600 36.140,227.420 35.600,227.200 35.600 C 226.980 35.600,226.800 35.240,226.800 34.800 C 226.800 34.360,226.620 34.000,226.400 34.000 C 226.180 34.000,226.000 33.640,226.000 33.200 C 226.000 32.760,225.823 32.400,225.608 32.400 C 225.392 32.400,225.106 31.963,224.972 31.429 C 224.838 30.896,224.384 30.148,223.964 29.767 C 223.544 29.387,223.200 28.909,223.200 28.706 C 223.200 27.906,217.450 21.600,216.720 21.600 C 216.510 21.600,215.646 20.880,214.800 20.000 C 213.954 19.120,213.018 18.400,212.720 18.400 C 212.421 18.400,211.917 18.040,211.600 17.600 C 211.283 17.160,210.791 16.800,210.508 16.800 C 210.225 16.800,209.434 16.266,208.751 15.614 C 208.068 14.961,206.990 14.197,206.355 13.916 C 205.720 13.635,205.200 13.269,205.200 13.102 C 205.200 12.936,204.840 12.800,204.400 12.800 C 203.960 12.800,203.600 12.638,203.600 12.440 C 203.600 11.955,196.246 8.400,195.242 8.400 C 194.805 8.400,194.336 8.220,194.200 8.000 C 194.064 7.780,193.603 7.600,193.176 7.600 C 192.749 7.600,192.400 7.464,192.400 7.298 C 192.400 7.131,191.815 6.760,191.100 6.471 C 190.385 6.183,189.487 5.779,189.105 5.574 C 188.723 5.368,187.958 5.200,187.405 5.200 C 186.852 5.200,186.400 5.020,186.400 4.800 C 186.400 4.580,185.860 4.400,185.200 4.400 C 184.540 4.400,184.000 4.220,184.000 4.000 C 184.000 3.780,183.460 3.600,182.800 3.600 C 182.140 3.600,181.600 3.420,181.600 3.200 C 181.600 2.980,181.060 2.800,180.400 2.800 C 179.740 2.800,179.200 2.620,179.200 2.400 C 179.200 2.180,178.300 2.000,177.200 2.000 C 176.100 2.000,175.200 1.820,175.200 1.600 C 175.200 1.380,174.426 1.200,173.480 1.200 C 172.534 1.200,171.553 0.993,171.299 0.739 C 170.833 0.273,149.379 -0.124,145.700 0.266 M160.858 11.990 C 170.647 12.913,178.923 14.940,187.420 18.497 L 190.600 19.829 190.705 48.214 C 190.784 69.618,190.691 76.895,190.328 77.800 C 186.885 86.381,176.843 87.544,171.953 79.928 L 170.600 77.821 170.383 65.411 C 170.198 54.870,170.058 52.708,169.453 51.059 C 164.521 37.625,147.637 35.317,139.613 46.981 C 136.880 50.954,137.021 48.949,136.800 87.000 C 136.615 118.823,136.547 121.506,135.895 122.816 C 132.015 130.599,122.478 131.378,117.925 124.284 L 116.600 122.219 116.492 93.609 C 116.367 60.580,116.006 64.168,120.796 50.800 C 121.702 48.270,123.225 43.950,124.180 41.200 C 128.867 27.703,130.193 25.026,134.200 20.971 C 141.584 13.499,149.295 10.901,160.858 11.990 M204.729 27.863 C 216.465 34.527,221.440 53.121,215.200 67.000 C 215.002 67.440,214.572 68.610,214.243 69.600 C 213.915 70.590,212.630 74.280,211.388 77.800 C 210.146 81.320,208.590 85.730,207.930 87.600 C 203.648 99.743,196.303 106.780,185.328 109.257 C 177.546 111.013,160.200 108.520,149.710 104.137 L 148.400 103.589 148.400 79.254 L 148.400 54.918 149.315 53.559 C 151.444 50.396,155.509 50.285,157.764 53.328 C 158.556 54.398,158.613 55.107,158.841 66.928 C 159.110 80.793,159.237 81.578,161.917 85.906 C 172.340 102.737,197.247 98.825,201.837 79.636 C 202.253 77.895,202.375 71.797,202.386 52.100 C 202.394 38.185,202.503 26.800,202.629 26.800 C 202.755 26.800,203.700 27.278,204.729 27.863 M38.800 168.800 C 38.800 169.029,37.600 169.200,36.000 169.200 C 34.400 169.200,33.200 169.371,33.200 169.600 C 33.200 169.820,32.660 170.000,32.000 170.000 C 31.340 170.000,30.800 170.180,30.800 170.400 C 30.800 170.620,30.260 170.800,29.600 170.800 C 28.940 170.800,28.400 170.980,28.400 171.200 C 28.400 171.420,28.076 171.600,27.680 171.600 C 26.786 171.600,24.807 172.494,24.803 172.900 C 24.801 173.065,24.440 173.200,24.000 173.200 C 23.560 173.200,23.200 173.359,23.200 173.553 C 23.200 173.747,22.255 174.356,21.100 174.906 C 19.945 175.456,18.456 176.422,17.791 177.053 C 17.126 177.684,15.911 178.704,15.091 179.320 C 14.271 179.937,13.600 180.618,13.600 180.834 C 13.600 181.050,12.966 181.861,12.191 182.636 C 10.472 184.354,8.928 186.744,8.552 188.267 C 8.398 188.890,7.941 189.691,7.536 190.047 C 7.131 190.403,6.800 190.988,6.800 191.347 C 6.800 191.706,6.620 192.000,6.400 192.000 C 6.180 192.000,6.000 192.540,6.000 193.200 C 6.000 193.860,5.820 194.400,5.600 194.400 C 5.380 194.400,5.200 194.929,5.200 195.576 C 5.200 196.223,5.020 196.864,4.800 197.000 C 4.580 197.136,4.400 197.777,4.400 198.424 C 4.400 199.071,4.220 199.600,4.000 199.600 C 3.457 199.600,3.457 215.464,4.000 215.800 C 4.220 215.936,4.400 216.577,4.400 217.224 C 4.400 217.871,4.580 218.400,4.800 218.400 C 5.020 218.400,5.200 219.120,5.200 220.000 C 5.200 220.880,5.380 221.600,5.600 221.600 C 5.820 221.600,6.000 221.960,6.000 222.400 C 6.000 222.840,6.180 223.200,6.400 223.200 C 6.620 223.200,6.800 223.560,6.800 224.000 C 6.800 224.440,6.980 224.800,7.200 224.800 C 7.420 224.800,7.600 225.250,7.600 225.800 C 7.600 226.350,7.753 226.800,7.939 226.800 C 8.126 226.800,8.603 227.520,9.000 228.400 C 9.397 229.280,9.874 230.000,10.061 230.000 C 10.247 230.000,10.400 230.260,10.400 230.578 C 10.400 231.185,18.148 239.200,18.735 239.200 C 18.922 239.200,19.593 239.644,20.225 240.187 C 20.856 240.730,21.904 241.291,22.553 241.434 C 23.202 241.576,24.097 242.032,24.542 242.446 C 24.987 242.861,25.587 243.200,25.875 243.200 C 26.164 243.200,26.400 243.380,26.400 243.600 C 26.400 243.820,26.839 244.000,27.376 244.000 C 27.913 244.000,28.464 244.180,28.600 244.400 C 28.736 244.620,29.276 244.800,29.800 244.800 C 30.324 244.800,30.864 244.980,31.000 245.200 C 31.136 245.420,31.687 245.600,32.224 245.600 L 33.200 245.600 33.200 265.176 C 33.200 277.796,33.342 284.841,33.600 285.000 C 33.820 285.136,34.000 286.497,34.000 288.024 C 34.000 289.608,34.172 290.800,34.400 290.800 C 34.625 290.800,34.800 291.925,34.800 293.376 C 34.800 294.793,34.980 296.064,35.200 296.200 C 35.420 296.336,35.600 297.337,35.600 298.424 C 35.600 299.511,35.780 300.400,36.000 300.400 C 36.220 300.400,36.400 301.120,36.400 302.000 C 36.400 302.880,36.580 303.600,36.800 303.600 C 37.020 303.600,37.200 304.230,37.200 305.000 C 37.200 305.770,37.380 306.400,37.600 306.400 C 37.820 306.400,38.000 307.120,38.000 308.000 C 38.000 308.880,38.180 309.600,38.400 309.600 C 38.620 309.600,38.800 310.140,38.800 310.800 C 38.800 311.460,38.980 312.000,39.200 312.000 C 39.420 312.000,39.600 312.540,39.600 313.200 C 39.600 313.860,39.780 314.400,40.000 314.400 C 40.220 314.400,40.400 314.850,40.400 315.400 C 40.400 315.950,40.580 316.400,40.800 316.400 C 41.020 316.400,41.200 316.839,41.200 317.376 C 41.200 317.913,41.356 318.449,41.546 318.567 C 41.736 318.684,41.992 319.393,42.113 320.141 C 42.234 320.889,42.709 322.277,43.167 323.226 C 43.625 324.174,44.000 325.186,44.000 325.475 C 44.000 325.764,44.180 326.000,44.400 326.000 C 44.620 326.000,44.800 326.360,44.800 326.800 C 44.800 327.240,44.980 327.600,45.200 327.600 C 45.420 327.600,45.600 327.960,45.600 328.400 C 45.600 328.840,45.780 329.200,46.000 329.200 C 46.220 329.200,46.400 329.560,46.400 330.000 C 46.400 330.440,46.580 330.800,46.800 330.800 C 47.020 330.800,47.200 331.160,47.200 331.600 C 47.200 332.040,47.380 332.400,47.600 332.400 C 47.820 332.400,48.000 332.760,48.000 333.200 C 48.000 333.640,48.180 334.000,48.400 334.000 C 48.620 334.000,48.800 334.320,48.800 334.712 C 48.800 335.103,49.160 335.683,49.600 336.000 C 50.040 336.317,50.400 336.897,50.400 337.288 C 50.400 337.680,50.580 338.000,50.800 338.000 C 51.020 338.000,51.200 338.236,51.200 338.525 C 51.200 338.813,51.560 339.436,52.000 339.908 C 52.440 340.380,52.800 340.954,52.800 341.183 C 52.800 341.412,52.980 341.600,53.200 341.600 C 53.420 341.600,53.600 341.920,53.600 342.312 C 53.600 342.703,53.960 343.283,54.400 343.600 C 54.840 343.917,55.200 344.425,55.200 344.728 C 55.200 345.031,55.740 345.783,56.400 346.400 C 57.060 347.017,57.600 347.726,57.600 347.977 C 57.600 348.228,57.975 348.831,58.434 349.317 C 58.893 349.803,59.549 350.740,59.893 351.400 C 60.237 352.060,60.852 352.891,61.259 353.247 C 61.667 353.603,62.000 354.049,62.000 354.239 C 62.000 354.428,63.575 356.121,65.500 358.001 C 67.425 359.881,69.239 361.879,69.531 362.442 C 69.824 363.004,70.628 363.798,71.318 364.206 C 72.009 364.614,74.009 366.445,75.763 368.274 C 77.517 370.103,79.106 371.600,79.294 371.600 C 79.482 371.600,80.086 372.050,80.636 372.600 C 81.186 373.150,81.781 373.600,81.957 373.600 C 82.239 373.600,82.851 374.047,84.683 375.593 C 84.949 375.817,85.327 376.000,85.524 376.000 C 85.720 376.000,86.406 376.495,87.048 377.100 C 87.689 377.705,88.706 378.455,89.307 378.768 C 89.908 379.080,90.400 379.485,90.400 379.668 C 90.400 379.850,90.720 380.000,91.112 380.000 C 91.503 380.000,92.083 380.360,92.400 380.800 C 92.717 381.240,93.207 381.600,93.488 381.600 C 93.770 381.600,94.000 381.780,94.000 382.000 C 94.000 382.220,94.278 382.400,94.617 382.400 C 94.956 382.400,95.620 382.760,96.092 383.200 C 96.564 383.640,97.187 384.000,97.475 384.000 C 97.764 384.000,98.000 384.180,98.000 384.400 C 98.000 384.620,98.360 384.800,98.800 384.800 C 99.240 384.800,99.600 384.980,99.600 385.200 C 99.600 385.420,99.960 385.600,100.400 385.600 C 100.840 385.600,101.200 385.780,101.200 386.000 C 101.200 386.220,101.560 386.400,102.000 386.400 C 102.440 386.400,102.800 386.580,102.800 386.800 C 102.800 387.020,103.160 387.200,103.600 387.200 C 104.040 387.200,104.400 387.380,104.400 387.600 C 104.400 387.820,104.760 388.000,105.200 388.000 C 105.640 388.000,106.000 388.180,106.000 388.400 C 106.000 388.620,106.360 388.800,106.800 388.800 C 107.240 388.800,107.600 388.980,107.600 389.200 C 107.600 389.420,107.960 389.600,108.400 389.600 C 108.840 389.600,109.200 389.755,109.200 389.945 C 109.200 390.135,110.235 390.596,111.500 390.969 C 112.765 391.342,114.113 391.816,114.495 392.023 C 114.877 392.231,115.552 392.400,115.995 392.400 C 116.438 392.400,116.800 392.580,116.800 392.800 C 116.800 393.020,117.340 393.200,118.000 393.200 C 118.660 393.200,119.200 393.380,119.200 393.600 C 119.200 393.820,119.740 394.000,120.400 394.000 C 121.060 394.000,121.600 394.180,121.600 394.400 C 121.600 394.620,122.140 394.800,122.800 394.800 C 123.460 394.800,124.000 394.980,124.000 395.200 C 124.000 395.420,124.630 395.600,125.400 395.600 C 126.170 395.600,126.800 395.780,126.800 396.000 C 126.800 396.220,127.419 396.400,128.176 396.400 C 128.933 396.400,129.664 396.580,129.800 396.800 C 129.936 397.020,130.566 397.200,131.200 397.200 C 131.834 397.200,132.464 397.380,132.600 397.600 C 132.736 397.820,133.647 398.000,134.624 398.000 C 135.601 398.000,136.400 398.180,136.400 398.400 C 136.400 398.628,137.589 398.800,139.167 398.800 C 141.024 398.800,141.988 398.964,142.100 399.300 C 142.333 399.998,223.082 400.037,223.515 399.340 C 223.672 399.087,224.880 398.779,226.200 398.655 C 230.576 398.246,232.400 397.924,232.400 397.560 C 232.400 397.362,233.120 397.200,234.000 397.200 C 234.880 397.200,235.600 397.020,235.600 396.800 C 235.600 396.580,236.320 396.400,237.200 396.400 C 238.080 396.400,238.800 396.220,238.800 396.000 C 238.800 395.780,239.430 395.600,240.200 395.600 C 240.970 395.600,241.600 395.420,241.600 395.200 C 241.600 394.980,242.140 394.800,242.800 394.800 C 243.460 394.800,244.000 394.620,244.000 394.400 C 244.000 394.180,244.540 394.000,245.200 394.000 C 245.860 394.000,246.400 393.820,246.400 393.600 C 246.400 393.380,246.839 393.200,247.376 393.200 C 247.913 393.200,248.464 393.020,248.600 392.800 C 248.736 392.580,249.197 392.400,249.624 392.400 C 250.051 392.400,250.400 392.244,250.400 392.054 C 250.400 391.864,251.176 391.602,252.125 391.472 C 253.074 391.342,254.893 390.688,256.166 390.018 C 257.439 389.348,258.733 388.800,259.041 388.800 C 259.348 388.800,259.600 388.620,259.600 388.400 C 259.600 388.180,259.960 388.000,260.400 388.000 C 260.840 388.000,261.200 387.820,261.200 387.600 C 261.200 387.380,261.560 387.200,262.000 387.200 C 262.440 387.200,262.800 387.020,262.800 386.800 C 262.800 386.580,263.160 386.400,263.600 386.400 C 264.040 386.400,264.400 386.220,264.400 386.000 C 264.400 385.780,264.760 385.600,265.200 385.600 C 265.640 385.600,266.000 385.420,266.000 385.200 C 266.000 384.980,266.236 384.800,266.525 384.800 C 266.813 384.800,267.436 384.440,267.908 384.000 C 268.380 383.560,269.044 383.200,269.383 383.200 C 269.722 383.200,270.000 383.020,270.000 382.800 C 270.000 382.580,270.270 382.400,270.600 382.400 C 270.930 382.400,271.200 382.220,271.200 382.000 C 271.200 381.780,271.470 381.600,271.800 381.600 C 272.130 381.600,272.400 381.464,272.400 381.298 C 272.400 381.131,272.972 380.742,273.672 380.432 C 274.372 380.122,275.479 379.359,276.131 378.735 C 276.784 378.111,277.474 377.600,277.663 377.600 C 277.852 377.600,278.572 377.060,279.263 376.400 C 279.954 375.740,280.754 375.200,281.041 375.200 C 281.329 375.200,282.014 374.750,282.564 374.200 C 283.114 373.650,283.717 373.200,283.903 373.200 C 284.565 373.200,301.200 357.229,301.200 356.594 C 301.200 356.476,302.010 355.569,303.000 354.579 C 303.990 353.589,304.800 352.628,304.800 352.444 C 304.800 352.259,305.337 351.499,305.994 350.754 C 306.650 350.009,307.190 349.293,307.194 349.161 C 307.199 348.952,307.717 348.267,309.193 346.517 C 309.417 346.251,309.600 345.796,309.600 345.505 C 309.600 345.214,309.960 344.717,310.400 344.400 C 310.840 344.083,311.200 343.569,311.200 343.259 C 311.200 342.948,311.529 342.403,311.930 342.047 C 312.332 341.691,312.916 340.815,313.228 340.100 C 313.540 339.385,313.931 338.800,314.098 338.800 C 314.264 338.800,314.400 338.530,314.400 338.200 C 314.400 337.870,314.580 337.600,314.800 337.600 C 315.020 337.600,315.200 337.330,315.200 337.000 C 315.200 336.670,315.380 336.400,315.600 336.400 C 315.820 336.400,316.000 336.055,316.000 335.633 C 316.000 335.212,316.135 334.807,316.300 334.733 C 316.732 334.541,318.400 331.228,318.400 330.562 C 318.400 330.253,318.580 330.000,318.800 330.000 C 319.020 330.000,319.200 329.640,319.200 329.200 C 319.200 328.760,319.380 328.400,319.600 328.400 C 319.820 328.400,320.000 328.040,320.000 327.600 C 320.000 327.160,320.180 326.800,320.400 326.800 C 320.620 326.800,320.800 326.455,320.800 326.033 C 320.800 325.612,320.943 325.207,321.119 325.133 C 321.542 324.956,323.200 321.367,323.200 320.628 C 323.200 320.309,323.380 319.936,323.600 319.800 C 323.820 319.664,324.000 319.224,324.000 318.822 C 324.000 318.420,324.269 317.576,324.598 316.946 C 324.926 316.316,325.196 315.305,325.198 314.700 C 325.199 314.095,325.380 313.600,325.600 313.600 C 325.820 313.600,326.000 313.060,326.000 312.400 C 326.000 311.740,326.180 311.200,326.400 311.200 C 326.620 311.200,326.800 310.570,326.800 309.800 C 326.800 309.030,326.980 308.400,327.200 308.400 C 327.420 308.400,327.600 307.781,327.600 307.024 C 327.600 306.267,327.780 305.536,328.000 305.400 C 328.220 305.264,328.400 304.634,328.400 304.000 C 328.400 303.366,328.580 302.736,328.800 302.600 C 329.020 302.464,329.200 301.733,329.200 300.976 C 329.200 300.219,329.380 299.600,329.600 299.600 C 329.822 299.600,330.000 298.541,330.000 297.224 C 330.000 295.917,330.180 294.736,330.400 294.600 C 330.620 294.464,330.800 293.294,330.800 292.000 C 330.800 290.706,330.980 289.536,331.200 289.400 C 331.429 289.258,331.600 287.196,331.600 284.576 C 331.600 281.792,331.757 280.000,332.000 280.000 C 332.260 280.000,332.400 274.000,332.400 262.800 C 332.400 245.867,332.412 245.600,333.200 245.600 C 333.640 245.600,334.000 245.420,334.000 245.200 C 334.000 244.980,334.540 244.800,335.200 244.800 C 335.860 244.800,336.400 244.620,336.400 244.400 C 336.400 244.180,336.940 244.000,337.600 244.000 C 338.260 244.000,338.800 243.820,338.800 243.600 C 338.800 243.380,339.160 243.200,339.600 243.200 C 340.040 243.200,340.400 243.020,340.400 242.800 C 340.400 242.580,340.670 242.400,341.000 242.400 C 341.330 242.400,341.600 242.220,341.600 242.000 C 341.600 241.780,341.879 241.600,342.220 241.600 C 343.090 241.600,345.276 240.424,346.047 239.541 C 346.403 239.133,346.881 238.800,347.110 238.800 C 347.674 238.800,354.400 232.164,354.400 231.608 C 354.400 231.365,354.760 230.780,355.200 230.308 C 355.640 229.836,356.000 229.213,356.000 228.925 C 356.000 228.636,356.159 228.400,356.353 228.400 C 356.795 228.400,358.800 224.353,358.800 223.460 C 358.800 223.097,358.980 222.800,359.200 222.800 C 359.420 222.800,359.600 222.350,359.600 221.800 C 359.600 221.250,359.780 220.800,360.000 220.800 C 360.220 220.800,360.400 220.080,360.400 219.200 C 360.400 218.320,360.580 217.600,360.800 217.600 C 361.020 217.600,361.200 216.880,361.200 216.000 C 361.200 215.120,361.380 214.400,361.600 214.400 C 361.851 214.400,362.000 211.933,362.000 207.800 C 362.000 203.667,361.851 201.200,361.600 201.200 C 361.380 201.200,361.200 200.491,361.200 199.624 C 361.200 198.757,361.020 197.936,360.800 197.800 C 360.580 197.664,360.400 197.023,360.400 196.376 C 360.400 195.729,360.220 195.200,360.000 195.200 C 359.780 195.200,359.600 194.660,359.600 194.000 C 359.600 193.340,359.420 192.800,359.200 192.800 C 358.980 192.800,358.800 192.497,358.800 192.126 C 358.800 191.193,356.045 185.943,355.140 185.153 C 354.733 184.797,354.400 184.321,354.400 184.094 C 354.400 182.809,345.269 174.800,343.804 174.800 C 343.472 174.800,343.200 174.620,343.200 174.400 C 343.200 174.180,342.840 174.000,342.400 174.000 C 341.960 174.000,341.600 173.820,341.600 173.600 C 341.600 173.380,341.330 173.200,341.000 173.200 C 340.670 173.200,340.400 173.020,340.400 172.800 C 340.400 172.580,340.130 172.400,339.800 172.400 C 339.470 172.400,339.200 172.220,339.200 172.000 C 339.200 171.780,338.750 171.600,338.200 171.600 C 337.650 171.600,337.200 171.420,337.200 171.200 C 337.200 170.980,336.671 170.800,336.024 170.800 C 335.377 170.800,334.736 170.620,334.600 170.400 C 334.464 170.180,333.733 170.000,332.976 170.000 C 332.219 170.000,331.600 169.820,331.600 169.600 C 331.600 169.378,330.533 169.200,329.200 169.200 C 327.867 169.200,326.800 169.022,326.800 168.800 C 326.800 168.534,278.533 168.400,182.800 168.400 C 87.067 168.400,38.800 168.534,38.800 168.800 M330.574 182.204 C 356.274 190.361,355.874 226.305,330.003 233.460 L 326.606 234.400 182.979 234.400 L 39.352 234.400 35.976 233.555 C 14.654 228.222,8.564 200.925,25.612 187.100 C 26.901 186.055,28.072 185.200,28.216 185.200 C 28.359 185.200,28.965 184.852,29.561 184.428 C 30.158 184.003,32.255 183.114,34.223 182.453 L 37.800 181.251 182.605 181.225 L 327.410 181.200 330.574 182.204 M319.906 259.374 C 319.977 268.282,319.873 272.687,319.586 272.974 C 318.091 274.470,255.495 275.273,238.800 274.011 C 236.050 273.803,230.740 273.440,227.000 273.204 C 223.260 272.968,218.850 272.611,217.200 272.410 C 215.550 272.209,212.310 271.845,210.000 271.600 C 204.097 270.975,199.702 270.405,197.600 269.992 C 193.927 269.271,188.921 268.333,185.000 267.631 C 183.680 267.395,179.900 266.672,176.600 266.025 C 165.206 263.792,159.822 262.862,153.400 262.018 C 151.640 261.787,148.310 261.335,146.000 261.015 C 132.237 259.103,97.253 257.098,93.885 258.027 C 89.487 259.242,88.592 265.351,92.385 268.264 C 93.501 269.120,97.293 269.600,102.967 269.602 C 108.892 269.604,118.734 270.106,126.300 270.792 C 128.775 271.016,132.915 271.389,135.500 271.620 C 138.085 271.852,141.370 272.211,142.800 272.419 C 144.230 272.627,148.820 273.259,153.000 273.822 C 157.180 274.386,165.640 275.839,171.800 277.051 C 177.960 278.263,183.810 279.400,184.800 279.577 C 185.790 279.755,187.950 280.170,189.600 280.501 C 192.342 281.050,193.801 281.306,200.400 282.392 C 201.610 282.591,204.490 282.952,206.800 283.193 C 209.110 283.434,212.530 283.811,214.400 284.031 C 222.813 285.020,224.608 285.185,231.200 285.584 C 242.675 286.277,264.708 286.875,269.000 286.610 C 271.200 286.473,280.110 286.185,288.800 285.968 C 297.490 285.751,307.898 285.465,311.928 285.332 L 319.257 285.091 319.019 286.645 C 318.889 287.500,318.600 289.460,318.376 291.000 C 317.736 295.424,314.644 307.378,312.894 312.200 C 310.869 317.776,307.960 324.232,305.863 327.800 C 304.650 329.865,303.794 331.351,302.381 333.846 C 298.001 341.578,286.589 354.521,277.400 362.176 C 274.641 364.475,263.975 372.000,263.476 372.000 C 263.381 372.000,261.614 372.950,259.551 374.112 C 257.488 375.273,254.630 376.740,253.200 377.372 C 251.770 378.003,249.700 378.932,248.600 379.437 C 242.396 382.280,230.195 385.622,220.400 387.161 C 210.104 388.779,151.140 388.722,146.400 387.090 C 146.070 386.976,144.450 386.669,142.800 386.407 C 128.826 384.192,107.479 376.004,99.800 369.914 C 99.580 369.739,98.230 368.839,96.800 367.913 C 85.094 360.335,68.800 343.231,62.400 331.800 C 61.907 330.920,60.726 328.850,59.776 327.200 C 55.438 319.668,50.848 307.934,48.665 298.797 C 46.829 291.108,46.100 285.969,45.764 278.345 C 45.504 272.430,45.530 272.077,46.244 271.860 C 46.660 271.734,50.510 271.357,54.800 271.022 C 75.879 269.377,76.800 269.084,76.800 264.018 C 76.800 257.880,73.391 257.246,52.048 259.415 C 48.885 259.737,46.140 260.000,45.948 260.000 C 45.545 260.000,45.466 246.667,45.867 246.266 C 46.014 246.119,107.709 246.044,182.967 246.099 L 319.800 246.200 319.906 259.374 M117.115 302.273 C 111.788 303.142,110.725 319.263,115.789 322.393 C 121.143 325.702,124.400 322.095,124.400 312.855 C 124.400 303.811,122.713 301.361,117.115 302.273 M243.200 302.347 C 239.446 303.296,238.019 308.373,238.980 317.356 C 239.433 321.581,242.217 323.774,246.184 323.029 C 252.557 321.834,252.761 304.160,246.423 302.400 C 244.881 301.972,244.699 301.969,243.200 302.347 M162.494 306.382 C 159.698 307.065,156.539 309.798,155.077 312.800 C 154.038 314.933,153.551 333.008,154.398 338.000 C 158.159 360.161,184.977 369.026,200.980 353.400 C 207.969 346.576,209.315 342.274,209.364 326.600 C 209.409 312.262,208.890 310.636,203.200 307.266 L 201.400 306.200 182.600 306.132 C 172.260 306.094,163.212 306.207,162.494 306.382 " stroke="none" fill="#070707" fill-rule="evenodd"></path><path id="path1" d="M67.800 181.597 C 39.350 181.795,36.832 181.867,34.800 182.544 C 10.162 190.751,9.896 224.219,34.400 232.829 L 37.000 233.743 72.000 234.026 C 143.786 234.606,321.876 234.461,326.035 233.818 C 333.234 232.706,337.268 230.761,341.810 226.212 C 343.944 224.075,344.706 222.980,347.140 218.555 C 350.024 213.312,349.939 201.936,346.978 196.800 C 346.661 196.250,345.996 194.997,345.501 194.017 C 342.370 187.817,333.779 182.583,325.093 181.585 C 321.665 181.191,124.923 181.200,67.800 181.597 M46.000 252.733 C 46.000 260.250,45.474 259.464,50.265 259.106 C 52.429 258.944,56.540 258.641,59.400 258.433 C 62.260 258.225,66.093 257.926,67.917 257.769 C 72.919 257.338,76.133 258.887,76.944 262.119 L 77.215 263.200 83.408 263.200 C 89.355 263.200,89.600 263.168,89.600 262.391 C 89.600 261.360,91.543 258.400,92.220 258.400 C 92.502 258.400,92.806 258.181,92.895 257.914 C 93.052 257.445,115.701 257.368,116.454 257.833 C 116.610 257.930,119.406 258.201,122.669 258.437 C 137.086 259.478,141.145 259.902,153.000 261.600 C 154.320 261.789,156.750 262.127,158.400 262.351 C 160.050 262.575,162.435 262.947,163.700 263.179 C 164.965 263.410,166.945 263.764,168.100 263.965 C 169.255 264.165,172.450 264.781,175.200 265.334 C 177.950 265.887,183.800 266.991,188.200 267.787 C 192.600 268.583,196.920 269.389,197.800 269.579 C 199.504 269.946,203.687 270.492,210.200 271.198 C 212.400 271.436,215.550 271.798,217.200 272.001 C 218.850 272.205,223.080 272.562,226.600 272.794 C 230.120 273.026,234.170 273.295,235.600 273.390 C 237.030 273.485,245.850 273.770,255.200 274.023 C 271.940 274.475,273.413 274.457,312.785 273.324 C 316.043 273.230,318.795 272.970,319.085 272.730 C 319.486 272.397,319.600 269.426,319.600 259.351 L 319.600 246.400 182.800 246.400 L 46.000 246.400 46.000 252.733 " stroke="none" fill="#cdf0e4" fill-rule="evenodd"></path><path id="path2" d="M152.000 12.452 C 142.931 14.075,134.367 19.417,131.329 25.348 C 130.977 26.037,130.578 26.690,130.444 26.800 C 130.309 26.910,130.000 27.450,129.756 28.000 C 129.513 28.550,128.928 29.782,128.457 30.738 C 127.986 31.694,127.600 32.808,127.600 33.214 C 127.600 33.620,127.420 34.064,127.200 34.200 C 126.980 34.336,126.800 34.799,126.800 35.229 C 126.800 35.659,126.620 36.368,126.400 36.805 C 126.180 37.242,125.820 37.958,125.600 38.395 C 125.380 38.832,125.200 39.464,125.200 39.800 C 125.200 40.136,125.020 40.768,124.800 41.205 C 124.580 41.642,124.220 42.358,124.000 42.795 C 123.780 43.232,123.600 43.941,123.600 44.371 C 123.600 44.801,123.420 45.264,123.200 45.400 C 122.980 45.536,122.800 45.999,122.800 46.429 C 122.800 46.859,122.626 47.523,122.414 47.905 C 121.675 49.237,118.712 58.228,117.770 62.000 L 116.821 65.800 116.811 93.304 C 116.799 124.180,116.655 122.629,119.813 125.787 C 122.211 128.184,128.098 129.859,129.000 128.400 C 129.136 128.180,129.563 128.000,129.948 128.000 C 130.334 128.000,131.036 127.640,131.508 127.200 C 131.980 126.760,132.518 126.400,132.704 126.400 C 133.234 126.400,135.349 122.845,135.894 121.037 C 136.268 119.796,136.389 111.382,136.394 86.227 C 136.401 47.271,136.183 48.987,141.819 43.513 C 147.033 38.448,159.016 37.364,162.800 41.614 C 162.910 41.737,163.598 42.256,164.328 42.766 C 169.665 46.496,170.522 49.445,170.784 65.000 L 171.000 77.800 172.311 79.689 C 176.536 85.772,184.617 85.948,188.526 80.040 C 189.117 79.148,189.600 78.154,189.600 77.832 C 189.600 77.510,189.780 77.136,190.000 77.000 C 190.261 76.839,190.399 66.899,190.397 48.476 L 190.395 20.200 186.097 18.549 C 176.850 14.997,170.827 13.518,162.800 12.827 C 160.710 12.647,157.920 12.400,156.600 12.279 C 155.280 12.158,153.210 12.236,152.000 12.452 M77.419 263.570 C 77.206 263.914,89.170 263.693,89.567 263.346 C 89.658 263.266,87.014 263.200,83.690 263.200 C 80.367 263.200,77.544 263.367,77.419 263.570 M170.000 279.046 C 168.570 279.830,167.220 280.616,167.000 280.793 C 166.780 280.970,165.880 281.513,165.000 282.000 C 141.897 294.787,133.106 322.193,142.996 350.600 C 145.484 357.746,146.134 359.552,146.600 360.600 C 146.893 361.260,148.243 364.590,149.600 368.000 C 155.872 383.762,157.937 387.819,159.850 388.135 C 162.324 388.544,201.744 388.439,209.315 388.004 C 220.950 387.335,232.306 385.281,240.200 382.417 C 241.520 381.938,243.590 381.217,244.800 380.814 C 246.010 380.412,248.170 379.542,249.600 378.880 C 251.030 378.219,252.897 377.390,253.750 377.038 C 256.448 375.926,267.880 369.356,268.800 368.390 C 268.910 368.274,270.271 367.321,271.825 366.271 C 273.379 365.221,275.089 363.965,275.625 363.480 C 276.161 362.996,277.590 361.797,278.800 360.815 C 282.304 357.974,288.225 352.106,291.530 348.200 C 293.206 346.220,294.672 344.510,294.788 344.400 C 297.570 341.773,305.981 328.014,309.372 320.544 C 314.108 310.109,318.800 293.324,318.800 286.815 L 318.800 285.078 312.900 285.353 C 306.993 285.628,289.443 286.143,268.800 286.646 C 252.237 287.049,229.440 285.967,213.200 284.007 C 211.550 283.807,208.310 283.445,206.000 283.201 C 203.690 282.956,200.990 282.602,200.000 282.412 C 199.010 282.223,196.850 281.850,195.200 281.584 C 193.550 281.318,188.153 280.313,183.207 279.350 C 172.462 277.259,173.229 277.277,170.000 279.046 M248.169 303.016 C 249.908 304.156,250.580 306.208,250.730 310.834 L 250.867 315.069 254.934 315.070 C 274.252 315.075,285.268 332.195,273.934 344.596 C 271.766 346.969,269.423 348.703,267.200 349.581 C 266.430 349.885,265.620 350.262,265.400 350.418 C 262.075 352.779,249.913 352.646,244.500 350.190 C 243.785 349.865,242.525 349.295,241.700 348.921 C 235.223 345.992,229.776 334.574,232.337 329.295 C 232.522 328.913,233.107 327.707,233.637 326.615 C 234.167 325.524,235.586 323.565,236.791 322.263 L 238.982 319.896 238.854 314.027 C 238.708 307.294,239.111 305.178,240.849 303.554 C 242.635 301.886,246.060 301.634,248.169 303.016 M199.680 306.049 C 203.816 306.926,206.776 309.185,208.528 312.800 C 209.545 314.900,210.048 333.061,209.221 337.835 C 204.181 366.919,164.308 369.801,155.101 341.747 C 153.840 337.904,153.703 315.199,154.926 312.742 C 156.680 309.218,159.858 306.779,163.678 306.027 C 166.359 305.499,197.174 305.518,199.680 306.049 M103.425 315.160 C 102.999 315.326,104.844 315.449,107.525 315.431 C 110.206 315.414,112.399 315.265,112.399 315.100 C 112.400 314.710,104.438 314.763,103.425 315.160 M100.000 316.000 C 99.213 316.509,100.616 316.509,101.800 316.000 C 102.533 315.685,102.516 315.654,101.600 315.634 C 101.050 315.622,100.330 315.787,100.000 316.000 M96.300 317.426 C 95.255 317.970,94.400 318.492,94.400 318.586 C 94.400 318.742,98.789 316.860,99.167 316.541 C 99.787 316.017,97.867 316.610,96.300 317.426 M92.148 319.939 C 88.911 322.284,86.012 326.354,85.410 329.400 C 85.279 330.060,85.564 329.610,86.042 328.400 C 87.342 325.113,90.122 321.676,93.226 319.519 C 93.762 319.146,94.092 318.833,93.960 318.821 C 93.828 318.809,93.012 319.313,92.148 319.939 M126.239 322.019 C 130.215 326.317,131.278 328.863,131.307 334.149 C 131.327 337.694,131.338 337.738,131.700 335.664 C 132.618 330.399,129.789 323.957,125.000 320.407 C 124.560 320.081,125.118 320.806,126.239 322.019 M84.928 333.600 C 84.928 335.030,85.001 335.615,85.089 334.900 C 85.178 334.185,85.178 333.015,85.089 332.300 C 85.001 331.585,84.928 332.170,84.928 333.600 M85.422 338.200 C 85.798 340.089,87.797 343.277,89.886 345.320 C 92.503 347.880,97.510 351.072,96.600 349.600 C 96.464 349.380,96.174 349.200,95.954 349.200 C 95.156 349.200,90.863 345.995,89.334 344.257 C 87.933 342.666,87.222 341.461,85.640 338.000 C 85.196 337.027,85.190 337.032,85.422 338.200 M130.572 338.643 C 128.906 343.761,123.941 348.230,117.200 350.680 C 115.463 351.311,115.065 351.555,116.000 351.414 C 118.712 351.006,123.950 348.056,126.574 345.458 C 128.907 343.149,131.632 338.699,131.063 338.130 C 130.929 337.995,130.708 338.226,130.572 338.643 M99.600 351.200 C 99.930 351.413,100.560 351.588,101.000 351.588 C 101.662 351.588,101.697 351.521,101.200 351.200 C 100.870 350.987,100.240 350.812,99.800 350.812 C 99.138 350.812,99.103 350.879,99.600 351.200 M102.876 352.060 C 104.109 352.407,112.817 352.417,113.684 352.072 C 114.060 351.922,111.574 351.800,108.160 351.800 C 104.745 351.800,102.367 351.917,102.876 352.060 " stroke="none" fill="#f5d256" fill-rule="evenodd"></path><path id="path3" d="M76.801 264.738 C 76.796 268.987,75.263 269.425,54.800 271.022 C 50.510 271.357,46.660 271.734,46.244 271.860 C 44.636 272.348,46.016 287.708,48.665 298.797 C 50.848 307.934,55.438 319.668,59.776 327.200 C 60.726 328.850,61.907 330.920,62.400 331.800 C 68.800 343.231,85.094 360.335,96.800 367.913 C 98.230 368.839,99.580 369.739,99.800 369.914 C 104.632 373.746,120.161 380.710,130.200 383.546 C 135.644 385.084,137.382 385.480,142.800 386.413 C 144.230 386.659,146.210 387.015,147.200 387.205 C 148.190 387.394,151.123 387.658,153.717 387.792 L 158.434 388.035 157.666 386.517 C 156.930 385.062,156.535 384.208,153.906 378.400 C 153.259 376.970,151.470 372.650,149.931 368.800 C 148.392 364.950,146.893 361.260,146.600 360.600 C 146.134 359.552,145.483 357.745,142.996 350.600 C 133.103 322.186,141.868 294.859,165.000 281.996 C 165.880 281.507,167.050 280.805,167.600 280.437 C 169.473 279.183,172.706 277.600,173.454 277.571 C 175.048 277.508,162.176 275.128,154.200 274.011 C 140.722 272.124,140.018 272.034,135.400 271.616 C 132.980 271.397,128.930 271.030,126.400 270.801 C 118.737 270.106,108.919 269.604,102.967 269.602 C 97.293 269.600,93.501 269.120,92.385 268.264 C 91.187 267.343,90.000 265.472,90.000 264.502 L 90.000 263.511 83.401 263.656 L 76.802 263.800 76.801 264.738 M301.300 285.876 C 301.685 285.976,302.315 285.976,302.700 285.876 C 303.085 285.775,302.770 285.693,302.000 285.693 C 301.230 285.693,300.915 285.775,301.300 285.876 M280.900 286.287 C 281.505 286.378,282.495 286.378,283.100 286.287 C 283.705 286.195,283.210 286.120,282.000 286.120 C 280.790 286.120,280.295 286.195,280.900 286.287 M252.711 286.693 C 253.651 286.778,255.091 286.777,255.911 286.691 C 256.730 286.605,255.960 286.536,254.200 286.537 C 252.440 286.539,251.770 286.609,252.711 286.693 M271.100 286.682 C 271.595 286.778,272.405 286.778,272.900 286.682 C 273.395 286.587,272.990 286.509,272.000 286.509 C 271.010 286.509,270.605 286.587,271.100 286.682 M122.093 303.266 C 124.230 304.788,124.448 305.761,124.318 313.216 C 124.253 316.948,124.327 320.001,124.483 320.001 C 125.179 319.999,129.317 324.760,130.215 326.595 C 138.149 342.811,116.741 358.285,97.400 350.315 C 75.458 341.273,84.472 313.964,109.101 314.865 L 112.802 315.000 112.803 311.400 C 112.806 303.356,117.027 299.659,122.093 303.266 " stroke="none" fill="#f9ca05" fill-rule="evenodd"></path><path id="path4" d="M150.600 12.196 C 141.498 13.852,133.696 19.389,129.738 27.002 C 128.008 30.329,123.411 42.744,123.774 43.107 C 123.888 43.221,124.089 42.974,124.220 42.557 C 124.351 42.141,124.625 41.487,124.829 41.105 C 125.033 40.723,125.200 40.136,125.200 39.800 C 125.200 39.464,125.408 38.787,125.662 38.295 C 126.656 36.374,126.800 35.984,126.800 35.229 C 126.800 34.799,126.980 34.336,127.200 34.200 C 127.420 34.064,127.600 33.620,127.600 33.214 C 127.600 32.808,127.986 31.694,128.457 30.738 C 128.928 29.782,129.513 28.550,129.756 28.000 C 130.000 27.450,130.309 26.910,130.444 26.800 C 130.578 26.690,130.977 26.037,131.329 25.348 C 133.433 21.241,139.508 16.480,145.800 14.006 C 148.661 12.881,155.493 11.782,157.069 12.193 C 157.691 12.355,160.090 12.639,162.400 12.825 C 170.771 13.497,176.628 14.912,186.097 18.549 L 190.395 20.200 190.397 48.476 C 190.399 66.899,190.261 76.839,190.000 77.000 C 189.780 77.136,189.600 77.510,189.600 77.832 C 189.600 78.154,189.117 79.148,188.526 80.040 C 184.617 85.948,176.536 85.772,172.311 79.689 L 171.000 77.800 170.784 65.000 C 170.522 49.445,169.665 46.496,164.328 42.766 C 163.598 42.256,162.910 41.737,162.800 41.614 C 159.016 37.364,147.033 38.448,141.819 43.513 C 136.183 48.987,136.401 47.271,136.394 86.227 C 136.389 111.382,136.268 119.796,135.894 121.037 C 135.349 122.845,133.234 126.400,132.704 126.400 C 132.518 126.400,131.980 126.760,131.508 127.200 C 131.036 127.640,130.334 128.000,129.948 128.000 C 129.563 128.000,129.136 128.180,129.000 128.400 C 128.098 129.859,122.211 128.184,119.813 125.787 C 116.655 122.629,116.799 124.180,116.811 93.304 L 116.821 65.800 117.770 62.000 C 118.712 58.228,121.675 49.237,122.414 47.905 C 122.818 47.179,122.956 45.710,122.587 46.080 C 122.374 46.293,119.809 53.392,118.400 57.671 C 116.321 63.984,116.376 62.939,116.492 93.609 L 116.600 122.219 117.925 124.284 C 122.478 131.378,132.015 130.599,135.895 122.816 C 136.547 121.506,136.615 118.823,136.800 87.000 C 137.021 48.949,136.880 50.954,139.613 46.981 C 147.637 35.317,164.521 37.625,169.453 51.059 C 170.058 52.708,170.198 54.870,170.383 65.411 L 170.600 77.821 171.953 79.928 C 176.843 87.544,186.885 86.381,190.328 77.800 C 190.691 76.895,190.784 69.618,190.705 48.214 L 190.600 19.829 187.420 18.497 C 174.943 13.274,159.345 10.605,150.600 12.196 M202.386 52.100 C 202.375 71.797,202.253 77.895,201.837 79.636 C 197.247 98.825,172.340 102.737,161.917 85.906 C 159.237 81.578,159.110 80.793,158.841 66.928 C 158.613 55.107,158.556 54.398,157.764 53.328 C 155.509 50.285,151.444 50.396,149.315 53.559 L 148.400 54.918 148.400 79.254 L 148.400 103.589 149.710 104.137 C 160.200 108.520,177.546 111.013,185.328 109.257 C 196.303 106.780,203.648 99.743,207.930 87.600 C 208.590 85.730,210.146 81.320,211.388 77.800 C 212.630 74.280,213.915 70.590,214.243 69.600 C 214.572 68.610,215.002 67.440,215.200 67.000 C 220.625 54.934,217.892 39.693,208.737 30.963 C 206.906 29.217,203.360 26.800,202.629 26.800 C 202.503 26.800,202.394 38.185,202.386 52.100 M123.088 44.133 C 122.642 45.266,122.715 45.845,123.238 45.322 C 123.478 45.082,123.608 44.551,123.526 44.142 C 123.382 43.426,123.366 43.426,123.088 44.133 M226.495 70.656 C 226.108 71.668,224.281 76.850,223.131 80.200 C 222.905 80.860,222.569 81.760,222.386 82.200 C 222.203 82.640,221.669 84.170,221.200 85.600 C 220.731 87.030,220.191 88.560,220.000 89.000 C 219.809 89.440,219.267 90.931,218.795 92.314 C 218.324 93.697,217.683 95.317,217.371 95.914 C 216.461 97.660,216.650 98.666,218.000 99.264 C 218.660 99.556,219.200 99.931,219.200 100.098 C 219.200 100.264,219.560 100.400,220.000 100.400 C 220.440 100.400,220.800 100.580,220.800 100.800 C 220.800 101.020,221.160 101.200,221.600 101.200 C 222.040 101.200,222.400 101.380,222.400 101.600 C 222.400 101.820,222.683 102.000,223.029 102.000 C 223.374 102.000,223.927 102.270,224.257 102.599 C 225.476 103.819,226.558 103.723,228.113 102.256 C 231.544 99.020,231.337 98.973,246.916 106.571 C 253.342 109.706,259.590 112.730,260.800 113.291 C 269.869 117.500,269.123 117.170,284.600 123.798 C 291.640 126.812,298.350 129.711,299.512 130.239 C 300.673 130.768,301.704 131.200,301.802 131.200 C 301.900 131.200,303.159 131.740,304.600 132.400 C 306.041 133.060,307.398 133.600,307.615 133.600 C 307.833 133.600,308.323 133.765,308.705 133.967 C 310.010 134.657,313.191 136.000,313.521 136.000 C 313.702 136.000,314.595 136.360,315.506 136.800 C 316.416 137.240,317.322 137.600,317.519 137.600 C 317.716 137.600,318.400 137.850,319.039 138.156 C 320.963 139.077,341.024 146.890,347.600 149.279 C 349.925 150.123,350.702 150.419,352.535 151.158 C 375.618 160.456,395.785 133.780,379.926 114.925 C 376.893 111.318,373.108 108.912,367.800 107.217 C 366.260 106.725,363.560 105.825,361.800 105.217 C 360.040 104.609,356.800 103.530,354.600 102.820 C 352.400 102.110,350.240 101.381,349.800 101.201 C 348.522 100.677,347.487 100.330,346.200 99.996 C 345.540 99.825,342.570 98.935,339.600 98.018 C 336.630 97.101,330.330 95.175,325.600 93.737 C 320.870 92.299,315.830 90.765,314.400 90.328 C 311.925 89.572,311.260 89.377,308.000 88.445 C 307.230 88.225,305.970 87.865,305.200 87.645 C 304.430 87.425,303.170 87.065,302.400 86.845 C 301.630 86.625,300.325 86.255,299.500 86.023 C 298.675 85.790,297.325 85.410,296.500 85.177 C 295.675 84.945,294.460 84.597,293.800 84.405 C 292.377 83.990,289.283 83.169,278.800 80.423 C 269.874 78.085,264.933 76.888,257.000 75.146 C 253.920 74.470,250.680 73.755,249.800 73.557 C 247.760 73.099,244.310 72.410,242.000 72.000 C 241.010 71.824,239.120 71.472,237.800 71.218 C 227.878 69.309,227.028 69.266,226.495 70.656 M35.866 181.874 C 34.803 182.200,34.004 182.538,34.093 182.626 C 34.181 182.714,34.871 182.569,35.626 182.303 C 36.633 181.948,45.231 181.761,67.800 181.601 L 98.600 181.383 68.200 181.333 C 42.417 181.291,37.506 181.373,35.866 181.874 M325.620 181.612 C 330.454 182.178,336.207 184.444,339.197 186.961 L 340.194 187.800 339.407 186.869 C 337.314 184.393,329.136 181.159,325.205 181.253 L 323.000 181.305 325.620 181.612 M31.012 183.624 C 30.138 184.060,29.238 184.612,29.012 184.851 C 28.785 185.090,29.500 184.842,30.600 184.299 C 31.700 183.756,32.870 183.211,33.200 183.088 C 33.733 182.888,33.733 182.861,33.200 182.848 C 32.870 182.839,31.885 183.188,31.012 183.624 M26.962 186.062 L 26.200 186.924 27.300 186.216 C 28.434 185.486,28.649 185.200,28.062 185.200 C 27.876 185.200,27.381 185.588,26.962 186.062 M23.443 189.043 C 22.197 190.290,21.243 191.377,21.325 191.458 C 21.406 191.539,22.492 190.586,23.739 189.339 C 24.986 188.092,25.939 187.006,25.858 186.925 C 25.777 186.843,24.690 187.797,23.443 189.043 M340.400 187.679 C 340.400 188.017,343.276 190.858,343.446 190.687 C 343.523 190.611,342.869 189.848,341.993 188.993 C 341.117 188.137,340.400 187.546,340.400 187.679 M344.751 192.858 C 345.438 193.880,346.004 194.870,346.009 195.058 C 346.014 195.246,346.388 195.850,346.841 196.400 C 347.383 197.059,347.229 196.555,346.388 194.922 C 345.686 193.560,344.750 192.120,344.307 191.722 C 343.804 191.271,343.971 191.698,344.751 192.858 M17.970 196.857 C 16.328 199.924,15.214 207.602,15.888 211.200 C 16.152 212.609,16.230 211.913,16.246 208.000 C 16.264 203.533,16.393 202.627,17.457 199.500 C 18.670 195.936,18.788 195.328,17.970 196.857 M347.629 197.738 C 347.572 198.402,348.927 202.592,349.067 202.186 C 349.145 201.958,348.861 200.788,348.434 199.586 C 348.007 198.384,347.645 197.552,347.629 197.738 M349.320 207.800 C 349.319 211.731,349.356 211.963,349.667 209.978 C 349.864 208.720,349.865 206.811,349.669 205.578 C 349.362 203.650,349.322 203.905,349.320 207.800 M16.406 213.833 C 16.409 214.255,16.595 214.870,16.818 215.200 C 17.115 215.638,17.152 215.476,16.956 214.600 C 16.627 213.129,16.398 212.810,16.406 213.833 M348.600 214.000 C 348.450 214.473,348.417 214.950,348.527 215.060 C 348.637 215.170,348.850 214.873,349.000 214.400 C 349.150 213.927,349.183 213.450,349.073 213.340 C 348.963 213.230,348.750 213.527,348.600 214.000 M347.829 216.629 C 347.681 217.215,347.638 217.772,347.732 217.866 C 347.827 217.960,348.024 217.558,348.171 216.971 C 348.319 216.385,348.362 215.828,348.268 215.734 C 348.173 215.640,347.976 216.042,347.829 216.629 M17.228 216.676 C 17.213 217.158,17.380 217.664,17.600 217.800 C 18.073 218.092,18.073 217.701,17.600 216.600 C 17.269 215.829,17.255 215.831,17.228 216.676 M346.646 219.386 C 346.291 219.928,346.000 220.481,346.000 220.614 C 346.000 220.747,345.429 221.698,344.730 222.728 C 343.895 223.959,343.743 224.353,344.287 223.878 C 344.741 223.480,345.683 222.085,346.380 220.778 C 347.670 218.356,347.815 217.602,346.646 219.386 M19.604 221.684 C 19.593 222.415,25.545 228.989,25.898 228.636 C 25.952 228.582,25.050 227.561,23.893 226.369 C 22.737 225.176,21.300 223.570,20.700 222.800 C 20.100 222.030,19.607 221.528,19.604 221.684 M341.685 226.282 C 339.860 228.253,340.300 228.346,342.207 226.393 C 343.063 225.517,343.591 224.814,343.381 224.831 C 343.172 224.847,342.408 225.500,341.685 226.282 M338.400 229.236 C 337.630 229.905,337.362 230.276,337.804 230.063 C 338.534 229.710,340.348 227.985,339.962 228.011 C 339.873 228.017,339.170 228.568,338.400 229.236 M30.400 231.422 C 30.400 231.743,32.869 232.844,33.281 232.706 C 33.516 232.628,32.964 232.272,32.054 231.914 C 31.144 231.557,30.400 231.335,30.400 231.422 M333.200 232.024 C 332.430 232.430,332.034 232.770,332.320 232.781 C 332.896 232.802,335.200 231.689,335.200 231.390 C 335.200 231.079,334.681 231.244,333.200 232.024 M34.600 233.200 C 35.040 233.389,35.670 233.544,36.000 233.544 C 36.378 233.544,36.304 233.417,35.800 233.200 C 35.360 233.011,34.730 232.856,34.400 232.856 C 34.022 232.856,34.096 232.983,34.600 233.200 M329.800 233.200 C 329.296 233.417,329.222 233.544,329.600 233.544 C 329.930 233.544,330.560 233.389,331.000 233.200 C 331.504 232.983,331.578 232.856,331.200 232.856 C 330.870 232.856,330.240 233.011,329.800 233.200 M37.818 234.053 C 38.468 234.192,52.320 234.289,68.600 234.269 C 84.880 234.249,96.490 234.182,94.400 234.120 C 86.107 233.875,36.711 233.816,37.818 234.053 M324.800 234.000 C 323.415 234.292,323.419 234.295,325.200 234.307 C 326.190 234.315,327.450 234.176,328.000 234.000 C 329.354 233.566,326.860 233.566,324.800 234.000 M45.867 246.266 C 45.720 246.413,45.600 249.571,45.600 253.283 L 45.600 260.033 48.700 259.763 C 52.734 259.411,53.015 259.113,49.197 259.238 L 46.200 259.335 46.090 252.868 L 45.980 246.400 182.790 246.400 L 319.600 246.400 319.600 259.320 C 319.600 269.107,319.479 272.369,319.100 272.770 C 318.696 273.198,318.716 273.265,319.200 273.117 C 319.718 272.958,319.800 271.100,319.800 259.567 L 319.800 246.200 182.967 246.099 C 107.709 246.044,46.014 246.119,45.867 246.266 M95.900 257.482 C 96.395 257.578,97.205 257.578,97.700 257.482 C 98.195 257.387,97.790 257.309,96.800 257.309 C 95.810 257.309,95.405 257.387,95.900 257.482 M65.000 258.002 C 63.991 258.184,65.194 258.274,68.257 258.245 C 70.928 258.220,72.908 258.068,72.657 257.906 C 72.097 257.546,67.188 257.608,65.000 258.002 M92.800 257.945 C 92.800 258.134,93.250 258.203,93.800 258.098 C 94.350 257.993,94.800 257.838,94.800 257.753 C 94.800 257.669,94.350 257.600,93.800 257.600 C 93.250 257.600,92.800 257.755,92.800 257.945 M99.633 257.744 C 99.725 257.824,104.300 257.979,109.800 258.090 C 115.300 258.201,118.900 258.152,117.800 257.981 C 115.838 257.676,99.306 257.461,99.633 257.744 M54.200 258.798 C 53.730 258.998,55.050 259.046,57.400 258.914 C 59.600 258.790,61.475 258.624,61.567 258.544 C 61.923 258.236,54.955 258.476,54.200 258.798 M73.600 258.525 C 73.600 258.593,74.185 259.072,74.900 259.588 L 76.200 260.527 75.230 259.463 C 74.402 258.555,73.600 258.093,73.600 258.525 M90.629 260.028 C 89.923 261.095,89.609 262.024,89.716 262.728 C 89.875 263.765,89.882 263.760,89.940 262.591 C 89.974 261.900,90.527 260.743,91.229 259.891 C 91.905 259.071,92.289 258.400,92.082 258.400 C 91.875 258.400,91.222 259.132,90.629 260.028 M121.233 258.549 C 121.325 258.631,123.110 258.802,125.200 258.929 C 127.486 259.067,128.601 259.023,128.000 258.819 C 127.034 258.491,120.895 258.246,121.233 258.549 M130.033 259.347 C 130.125 259.429,132.000 259.598,134.200 259.724 C 136.564 259.859,137.791 259.815,137.200 259.616 C 136.236 259.292,129.694 259.047,130.033 259.347 M139.233 260.148 C 139.325 260.229,140.750 260.399,142.400 260.525 C 144.246 260.666,145.015 260.625,144.400 260.417 C 143.426 260.089,138.901 259.853,139.233 260.148 M147.400 261.223 C 149.649 261.688,151.305 261.675,150.200 261.200 C 149.760 261.011,148.590 260.864,147.600 260.874 L 145.800 260.892 147.400 261.223 M153.400 262.023 C 154.280 262.205,155.360 262.352,155.800 262.349 L 156.600 262.344 155.800 262.000 C 155.360 261.811,154.280 261.664,153.400 261.674 L 151.800 261.692 153.400 262.023 M159.000 262.800 C 160.761 263.248,162.999 263.248,161.600 262.800 C 161.050 262.624,159.970 262.483,159.200 262.487 L 157.800 262.495 159.000 262.800 M164.000 263.600 C 165.530 264.090,166.758 264.090,166.000 263.600 C 165.670 263.387,164.860 263.227,164.200 263.246 C 163.024 263.279,163.020 263.286,164.000 263.600 M168.200 264.400 C 168.860 264.568,169.850 264.709,170.400 264.713 L 171.400 264.720 170.400 264.400 C 169.850 264.224,168.860 264.083,168.200 264.087 L 167.000 264.095 168.200 264.400 M172.400 265.200 C 172.950 265.376,173.850 265.520,174.400 265.520 L 175.400 265.520 174.400 265.200 C 173.850 265.024,172.950 264.880,172.400 264.880 L 171.400 264.880 172.400 265.200 M176.400 266.000 C 176.950 266.176,177.850 266.320,178.400 266.320 L 179.400 266.320 178.400 266.000 C 177.850 265.824,176.950 265.680,176.400 265.680 L 175.400 265.680 176.400 266.000 M180.600 266.782 C 181.260 266.952,183.060 267.309,184.600 267.574 C 186.140 267.840,188.321 268.248,189.446 268.480 C 190.571 268.713,191.724 268.825,192.008 268.731 C 192.292 268.636,189.835 268.073,186.549 267.479 C 180.846 266.449,178.032 266.119,180.600 266.782 M192.863 268.992 C 193.007 269.139,194.087 269.410,195.263 269.594 C 200.610 270.433,206.139 271.183,210.000 271.593 C 212.310 271.839,215.460 272.202,217.000 272.401 C 218.540 272.599,221.870 272.846,224.400 272.949 L 229.000 273.136 225.000 272.777 C 222.800 272.580,219.470 272.245,217.600 272.032 C 215.730 271.819,212.400 271.447,210.200 271.205 C 203.184 270.432,199.438 269.940,198.000 269.602 C 195.778 269.080,192.575 268.700,192.863 268.992 M229.233 273.345 C 229.325 273.424,232.010 273.583,235.200 273.696 C 238.683 273.821,240.201 273.777,239.000 273.587 C 237.005 273.271,228.917 273.070,229.233 273.345 M305.000 273.607 C 303.680 273.757,306.110 273.792,310.400 273.685 C 314.690 273.578,318.275 273.425,318.367 273.345 C 318.648 273.100,307.549 273.318,305.000 273.607 M257.098 274.549 C 266.032 274.748,279.217 274.748,287.698 274.549 C 301.595 274.224,300.536 274.200,272.000 274.200 C 242.855 274.200,242.147 274.217,257.098 274.549 M173.874 305.899 C 178.094 305.964,185.114 305.964,189.474 305.900 C 193.833 305.835,190.380 305.782,181.800 305.782 C 173.220 305.782,169.653 305.835,173.874 305.899 M252.300 315.071 C 251.148 315.207,250.800 315.427,250.800 316.018 C 250.800 322.298,244.677 325.451,240.531 321.305 L 239.075 319.848 236.837 322.232 C 235.607 323.543,234.167 325.513,233.637 326.608 C 233.107 327.704,232.522 328.913,232.337 329.295 C 229.776 334.574,235.223 345.992,241.700 348.921 C 242.525 349.295,243.785 349.865,244.500 350.190 C 249.913 352.646,262.075 352.779,265.400 350.418 C 265.620 350.262,266.430 349.885,267.200 349.581 C 274.354 346.755,279.436 338.426,278.325 331.345 C 276.763 321.380,264.387 313.641,252.300 315.071 M104.800 315.441 C 91.203 317.637,81.892 328.548,85.651 337.881 C 88.166 344.129,91.904 347.757,98.500 350.354 C 109.590 354.722,125.265 349.949,129.586 340.890 C 130.082 339.851,130.662 338.664,130.876 338.253 C 132.915 334.337,130.442 326.134,125.877 321.669 L 124.107 319.938 123.294 320.972 C 119.893 325.296,113.632 323.206,112.962 317.524 L 112.712 315.400 109.256 315.340 C 107.355 315.307,105.350 315.352,104.800 315.441 " stroke="none" fill="#e69e95" fill-rule="evenodd"></path></g></svg>